<svg xmlns="http://www.w3.org/2000/svg" viewBox="0 0 500 500"><defs><style>.a{fill:#fff;}.b{fill:#0f7cb2;}.c{fill:#ffe200;}.d{fill:#e4007f;}.e{fill:#4b2574;}.f{fill:#094;}.g{fill:#006e40;}.h{fill:#1f3033;}</style></defs><g transform="translate(-669 -129)"><circle class="a" cx="250" cy="250" r="250" transform="translate(669 129)"/><g transform="translate(769 219)"><g transform="translate(119.189 54.242)"><path class="b" d="M119.708,76.765H108.051V96.987H100.2V45.6h19.508c9.992,0,16.415,6.661,16.415,15.583S129.7,76.765,119.708,76.765ZM119.232,52.5h-11.3V69.628h11.3c5.472,0,9.159-3.093,9.159-8.564C128.391,55.711,124.7,52.5,119.232,52.5Z" transform="translate(-100.2 -45.6)"/><path class="b" d="M145.992,96.987c-6.9,0-9.992-4.639-9.992-10.111V45.6h7.375V86.519c0,2.855.952,4.282,3.925,4.282h3.212v6.3h-4.52Z" transform="translate(-93.416 -45.6)"/><path class="b" d="M179.669,90.768c-2.379,2.5-5.948,4.282-10.943,4.282a14.986,14.986,0,0,1-10.943-4.282c-3.45-3.569-4.282-8.208-4.282-14.393s.833-10.825,4.282-14.393c2.379-2.5,5.948-4.282,10.943-4.282a14.986,14.986,0,0,1,10.943,4.282c3.45,3.569,4.282,8.208,4.282,14.393S183.119,87.2,179.669,90.768Zm-5.591-24.5a7.348,7.348,0,0,0-5.472-2.141,7.262,7.262,0,0,0-5.353,2.141c-2.26,2.26-2.5,6.066-2.5,9.992s.238,7.851,2.5,9.992a7.263,7.263,0,0,0,5.353,2.141,8.056,8.056,0,0,0,5.472-2.141c2.26-2.26,2.5-6.067,2.5-9.992S176.339,68.525,174.079,66.264Z" transform="translate(-90.099 -43.307)"/><path class="b" d="M207.263,94.713V72.35c0-5.71-3.212-8.208-7.375-8.208s-7.613,2.5-7.613,8.208V94.713H184.9V58.076h7.256v3.687A13.127,13.127,0,0,1,201.91,57.6a12.409,12.409,0,0,1,9.04,3.331c2.855,2.736,3.688,6.185,3.688,10.349V94.713Z" transform="translate(-84.148 -43.326)"/><path class="b" d="M222.975,78.535c0,6.3,3.331,10.23,9.278,10.23,4.163,0,6.3-1.19,8.921-3.806l4.639,4.4c-3.806,3.806-7.256,5.71-13.679,5.71-9.159,0-16.534-4.877-16.534-18.794,0-11.9,6.185-18.675,15.583-18.675,9.873,0,15.583,7.256,15.583,17.6v3.212h-23.79Zm15.464-10.111a7.671,7.671,0,0,0-7.256-4.639,7.554,7.554,0,0,0-7.256,4.639,12.467,12.467,0,0,0-.952,5h16.534A12.4,12.4,0,0,0,238.439,68.425Z" transform="translate(-78.331 -43.326)"/></g><g transform="translate(22.839 44.131)"><path class="b" d="M46.851,47.8A7.851,7.851,0,1,1,39,55.651,7.843,7.843,0,0,1,46.851,47.8Z" transform="translate(-15.448 -35.072)"/><path class="b" d="M68.1,68.751A7.851,7.851,0,1,1,60.251,60.9,7.843,7.843,0,0,1,68.1,68.751Z" transform="translate(-12.908 -32.59)"/><path class="b" d="M46.851,74.1A7.851,7.851,0,1,1,39,81.951,7.843,7.843,0,0,1,46.851,74.1Z" transform="translate(-15.448 -30.088)"/><path class="b" d="M55.361,37.1A36.161,36.161,0,1,0,91.522,73.261,36.145,36.145,0,0,0,55.361,37.1ZM75.7,93.483a28.717,28.717,0,1,1,8.446-20.341A29.378,29.378,0,0,1,75.7,93.483Z" transform="translate(-19.2 -37.1)"/></g><g transform="translate(292.382 61.855)"><path class="b" d="M249.606,52a3.806,3.806,0,1,0,3.806,3.806A3.687,3.687,0,0,0,249.606,52Zm0,7.137a3.331,3.331,0,1,1,3.331-3.331A3.325,3.325,0,0,1,249.606,59.137Z" transform="translate(-245.8 -52)"/></g><g transform="translate(294.642 63.52)"><path class="b" d="M250.2,57.92l-.952-1.9h-.833v1.9H247.7V53.4h1.784a1.35,1.35,0,0,1,1.427,1.308,1.158,1.158,0,0,1-.952,1.19l1.071,2.022Zm-.833-3.925h-1.071V55.3h1.071c.476,0,.833-.238.833-.714C250.2,54.233,249.841,53.995,249.365,53.995Z" transform="translate(-247.7 -53.4)"/></g><path d="M22.482,234.319,0,258.109H21.292L35.8,234.2H22.482Z" transform="translate(0 44.383)"/><path class="c" d="M81.023,234.3,103.5,258.209H82.212L67.7,234.3Z" transform="translate(12.83 44.402)"/><path class="c" d="M33.663,94.2,0,142.256H21.53l28.191-40.205A41.368,41.368,0,0,1,33.663,94.2Z" transform="translate(0 17.852)"/><path class="d" d="M51,101.752a43.367,43.367,0,0,1-8.8-.952v40.205H59.8V100.8A36.306,36.306,0,0,1,51,101.752Z" transform="translate(7.997 19.103)"/><path d="M72.615,94.9A40.2,40.2,0,0,1,56.2,102.156l27.953,39.968h21.53Z" transform="translate(10.65 17.984)"/><g transform="translate(135.961 116.334)"><path d="M125.6,112.788h3.331a6.93,6.93,0,0,1-2.617,4.4,7.052,7.052,0,0,1-4.639,1.546,6.289,6.289,0,0,1-4.044-1.19,9.218,9.218,0,0,1-2.379-2.5,5.856,5.856,0,0,1-.714-2.022,34.951,34.951,0,0,1-.238-4.758,34.95,34.95,0,0,1,.238-4.758,5.856,5.856,0,0,1,.714-2.022,6.763,6.763,0,0,1,2.379-2.5,6.514,6.514,0,0,1,4.044-1.189,7.23,7.23,0,0,1,7.256,6.066H125.6a4.279,4.279,0,0,0-1.427-2.141,3.839,3.839,0,0,0-2.5-.952,3.243,3.243,0,0,0-1.9.476,3.962,3.962,0,0,0-1.308,1.071,4.139,4.139,0,0,0-.833,1.784,25.911,25.911,0,0,0-.238,4.163,25.911,25.911,0,0,0,.238,4.163,4.394,4.394,0,0,0,.833,1.665,2.908,2.908,0,0,0,1.308,1.071,4.987,4.987,0,0,0,1.9.476A4.473,4.473,0,0,0,125.6,112.788Z" transform="translate(-114.3 -97.8)"/><path d="M127.6,110.213a13.7,13.7,0,0,1,.357-3.569,5.476,5.476,0,0,1,1.189-2.141,6.756,6.756,0,0,1,1.665-1.308,5.1,5.1,0,0,1,2.855-.595,5.832,5.832,0,0,1,2.736.595,5.78,5.78,0,0,1,2.855,3.45,13.1,13.1,0,0,1,.357,3.569,12.52,12.52,0,0,1-.357,3.569,5.476,5.476,0,0,1-1.19,2.141,6.757,6.757,0,0,1-1.665,1.308,6.2,6.2,0,0,1-2.736.595,6.37,6.37,0,0,1-2.855-.595,5.78,5.78,0,0,1-2.855-3.45A13.1,13.1,0,0,1,127.6,110.213Zm9.278,0a10.977,10.977,0,0,0-.119-2.26,3.212,3.212,0,0,0-.595-1.308,3.179,3.179,0,0,0-4.758,0,4.4,4.4,0,0,0-.595,1.308,10.974,10.974,0,0,0-.119,2.26,10.974,10.974,0,0,0,.119,2.26,2.266,2.266,0,0,0,.595,1.189,3.179,3.179,0,0,0,4.758,0,5.556,5.556,0,0,0,.595-1.189A10.357,10.357,0,0,0,136.878,110.213Z" transform="translate(-111.78 -96.89)"/><path d="M140.5,117.588v-14.75h2.974v1.546h0a4.525,4.525,0,0,1,3.806-1.784,5.36,5.36,0,0,1,3.331,1.308,4.538,4.538,0,0,1,1.546,3.806v9.754h-2.974v-8.8a3.24,3.24,0,0,0-.833-2.379,2.609,2.609,0,0,0-2.022-.833,2.867,2.867,0,0,0-2.141.833,3.067,3.067,0,0,0-.833,2.379v8.8H140.5Z" transform="translate(-109.335 -96.89)"/><path d="M154.246,118.479v-12.49H152.7v-2.26h1.546v-1.9a3.33,3.33,0,0,1,1.189-2.974,4.34,4.34,0,0,1,2.855-.952h1.9v2.736h-1.665c-.833,0-1.308.357-1.308,1.19v1.9h2.974v2.26H157.22v12.49Z" transform="translate(-107.023 -97.781)"/><path d="M171.852,111.383h-9.159a3.805,3.805,0,0,0,.952,2.736,3.613,3.613,0,0,0,2.5.952,4.437,4.437,0,0,0,3.212-1.427l2.141,1.784a6.074,6.074,0,0,1-2.5,1.784,8.176,8.176,0,0,1-2.855.595,7.747,7.747,0,0,1-4.4-1.427q-2.141-1.427-2.141-6.067c0-2.855.714-4.877,2.022-5.948a6.636,6.636,0,0,1,4.163-1.665,6.454,6.454,0,0,1,4.282,1.665,5.825,5.825,0,0,1,1.784,4.52v2.5Zm-9.159-2.5h6.185a3.407,3.407,0,0,0-.952-2.5,2.867,2.867,0,0,0-2.141-.833,2.7,2.7,0,0,0-2.141.833A3.408,3.408,0,0,0,162.693,108.885Z" transform="translate(-105.715 -96.871)"/><path d="M172.5,117.588v-14.75h2.974v1.546h0a4.525,4.525,0,0,1,3.806-1.784,4.61,4.61,0,0,1,3.093,1.19l-2.141,2.5a3.164,3.164,0,0,0-1.9-.714,3.23,3.23,0,0,0-2.022.714,2.907,2.907,0,0,0-.833,2.379v8.8H172.5Z" transform="translate(-103.271 -96.89)"/><path d="M193.552,111.383h-9.159a3.8,3.8,0,0,0,.952,2.736,3.612,3.612,0,0,0,2.5.952,4.437,4.437,0,0,0,3.212-1.427l2.141,1.784a6.074,6.074,0,0,1-2.5,1.784,8.176,8.176,0,0,1-2.855.595,7.747,7.747,0,0,1-4.4-1.427q-2.141-1.427-2.141-6.067c0-2.855.714-4.877,2.022-5.948a6.636,6.636,0,0,1,4.163-1.665,6.454,6.454,0,0,1,4.282,1.665,5.825,5.825,0,0,1,1.784,4.52v2.5Zm-9.159-2.5h6.185a3.407,3.407,0,0,0-.952-2.5,2.867,2.867,0,0,0-2.141-.833,2.7,2.7,0,0,0-2.141.833A3,3,0,0,0,184.393,108.885Z" transform="translate(-101.603 -96.871)"/><path d="M194.2,117.588v-14.75h2.974v1.546h0a4.525,4.525,0,0,1,3.806-1.784,5.36,5.36,0,0,1,3.331,1.308,4.538,4.538,0,0,1,1.546,3.806v9.754h-2.974v-8.8a3.24,3.24,0,0,0-.833-2.379,2.609,2.609,0,0,0-2.022-.833,2.867,2.867,0,0,0-2.141.833,3.067,3.067,0,0,0-.833,2.379v8.8H194.2Z" transform="translate(-99.158 -96.89)"/><path d="M216.154,113.325l2.141,1.9a8.334,8.334,0,0,1-2.26,1.784,6.109,6.109,0,0,1-2.974.714,7.106,7.106,0,0,1-4.639-1.784c-1.427-1.19-2.022-3.093-2.022-5.829s.714-4.639,2.022-5.829a7.105,7.105,0,0,1,4.639-1.784,6.109,6.109,0,0,1,2.974.714A8.334,8.334,0,0,1,218.3,105l-2.141,1.9a3.565,3.565,0,0,0-2.974-1.546c-2.5,0-3.806,1.546-3.806,4.639s1.308,4.52,3.806,4.52A2.788,2.788,0,0,0,216.154,113.325Z" transform="translate(-96.846 -96.909)"/><path d="M229.652,111.383h-9.159a3.805,3.805,0,0,0,.952,2.736,3.613,3.613,0,0,0,2.5.952,4.437,4.437,0,0,0,3.212-1.427l2.141,1.784a6.074,6.074,0,0,1-2.5,1.784,8.176,8.176,0,0,1-2.855.595,7.747,7.747,0,0,1-4.4-1.427q-2.141-1.427-2.141-6.067c0-2.855.714-4.877,2.022-5.948a6.636,6.636,0,0,1,4.163-1.665,6.454,6.454,0,0,1,4.282,1.665,5.825,5.825,0,0,1,1.784,4.52Zm-9.159-2.5h6.185a3.408,3.408,0,0,0-.952-2.5,2.867,2.867,0,0,0-2.141-.833,2.7,2.7,0,0,0-2.141.833A3.407,3.407,0,0,0,220.493,108.885Z" transform="translate(-94.762 -96.871)"/></g><g transform="translate(135.961 230.17)"><path d="M114.3,249.745v-7.494l21.768-27.24a8.427,8.427,0,0,0,1.665-2.974,10.61,10.61,0,0,0,.357-2.617,8.581,8.581,0,0,0-2.022-5.353,6.9,6.9,0,0,0-5.591-2.5,8.019,8.019,0,0,0-5.591,2.141,8.924,8.924,0,0,0-2.617,5.948H114.3a15.52,15.52,0,0,1,4.639-11.419,14.841,14.841,0,0,1,10.944-4.639,15.871,15.871,0,0,1,11.657,4.639,15.442,15.442,0,0,1,4.639,11.3,14.712,14.712,0,0,1-3.331,9.754l-17.962,22.482H146.06v7.97Z" transform="translate(-114.3 -193.481)"/><path d="M146.3,234.181V209.558c0-5.115,1.665-9.04,4.877-11.9a16.05,16.05,0,0,1,11.062-4.163,16.325,16.325,0,0,1,10.943,4.163c3.212,2.736,4.877,6.78,4.877,11.9v24.623c0,5.115-1.665,9.04-4.877,11.9a16.621,16.621,0,0,1-22.006,0C147.846,243.221,146.3,239.3,146.3,234.181Zm23.671-.476V210.034a8.8,8.8,0,0,0-2.141-6.3,8.342,8.342,0,0,0-11.419,0,8.8,8.8,0,0,0-2.141,6.3v23.671a8.8,8.8,0,0,0,2.141,6.3,8.342,8.342,0,0,0,11.419,0C169.258,238.582,169.971,236.441,169.971,233.705Z" transform="translate(-108.236 -193.5)"/><path d="M187.67,249.788V202.446l-7.97,5.829v-8.446L187.67,194h8.089v55.788Z" transform="translate(-101.906 -193.405)"/><path d="M199.1,233.468c0-5.472,2.141-9.635,6.542-12.49A19.642,19.642,0,0,1,201.6,216.1a12.243,12.243,0,0,1-1.546-6.423A16.042,16.042,0,0,1,216.11,193.5a15.177,15.177,0,0,1,11.419,4.758,15.711,15.711,0,0,1,4.639,11.419,12.535,12.535,0,0,1-1.546,6.423,19.654,19.654,0,0,1-3.925,4.877,14.184,14.184,0,0,1,6.542,12.49,15.53,15.53,0,0,1-5,12.014,17.722,17.722,0,0,1-23.909,0C200.765,242.508,199.1,238.463,199.1,233.468Zm8.089,0a8.368,8.368,0,0,0,2.736,6.3,9.2,9.2,0,0,0,12.609,0,8.632,8.632,0,0,0,0-12.609,9.2,9.2,0,0,0-12.609,0A7.651,7.651,0,0,0,207.189,233.468Zm.952-23.909a7.15,7.15,0,0,0,2.5,5.948,8.647,8.647,0,0,0,5.472,2.022,8.408,8.408,0,0,0,5.472-2.022,8.329,8.329,0,0,0,0-11.9,8.647,8.647,0,0,0-5.472-2.022,8.408,8.408,0,0,0-5.472,2.022A7.15,7.15,0,0,0,208.14,209.558Z" transform="translate(-98.23 -193.5)"/></g><g transform="translate(135.961 147.261)"><path d="M123.7,158.477V128.739h-9.4V124.1h24.028v4.639h-9.4v29.738Z" transform="translate(-114.3 -123.743)"/><path d="M136.6,141.286a52.88,52.88,0,0,1,.357-7.97,11.158,11.158,0,0,1,1.189-3.331,12.868,12.868,0,0,1,3.925-4.163,12.378,12.378,0,0,1,13.56,0,14.734,14.734,0,0,1,4.044,4.163,10.1,10.1,0,0,1,1.19,3.331,52.882,52.882,0,0,1,.357,7.97,52.881,52.881,0,0,1-.357,7.97,11.158,11.158,0,0,1-1.19,3.331,12.138,12.138,0,0,1-4.044,4.163,13.029,13.029,0,0,1-13.56,0,14.17,14.17,0,0,1-3.925-4.163,10.094,10.094,0,0,1-1.189-3.331A52.88,52.88,0,0,1,136.6,141.286Zm5.234,0a40.318,40.318,0,0,0,.357,6.9,6.483,6.483,0,0,0,1.427,2.855,5.387,5.387,0,0,0,2.141,1.784,7.583,7.583,0,0,0,6.423,0,6.367,6.367,0,0,0,2.141-1.784,6.483,6.483,0,0,0,1.427-2.855,40.321,40.321,0,0,0,.357-6.9,40.322,40.322,0,0,0-.357-6.9,6.483,6.483,0,0,0-1.427-2.855,6.575,6.575,0,0,0-2.141-1.784,5.594,5.594,0,0,0-3.212-.714,6.74,6.74,0,0,0-3.212.714,6.368,6.368,0,0,0-2.141,1.784,7.178,7.178,0,0,0-1.427,2.855A42.3,42.3,0,0,0,141.834,141.286Z" transform="translate(-110.074 -123.8)"/><path d="M162.3,158.477V124.219h5.234v17.6h.119L181.808,124.1h6.185L177.05,137.66l12.133,20.816H183L173.6,141.7l-6.067,6.3v10.468Z" transform="translate(-105.204 -123.743)"/><path d="M194.43,158.477V144.322L184.2,124.1h5.472l7.256,15.226,7.256-15.226h5.472l-10.349,20.222v14.155Z" transform="translate(-101.053 -123.743)"/><path d="M207.1,141.286a52.877,52.877,0,0,1,.357-7.97,11.156,11.156,0,0,1,1.19-3.331,12.867,12.867,0,0,1,3.925-4.163,12.378,12.378,0,0,1,13.56,0,14.735,14.735,0,0,1,4.044,4.163,10.1,10.1,0,0,1,1.189,3.331,52.879,52.879,0,0,1,.357,7.97,52.879,52.879,0,0,1-.357,7.97,11.158,11.158,0,0,1-1.189,3.331,12.139,12.139,0,0,1-4.044,4.163,11.388,11.388,0,0,1-6.78,1.9,11.145,11.145,0,0,1-6.78-1.9,14.169,14.169,0,0,1-3.925-4.163,10.092,10.092,0,0,1-1.19-3.331A52.873,52.873,0,0,1,207.1,141.286Zm5.234,0a40.318,40.318,0,0,0,.357,6.9,6.483,6.483,0,0,0,1.427,2.855,5.387,5.387,0,0,0,2.141,1.784,7.583,7.583,0,0,0,6.423,0,6.367,6.367,0,0,0,2.141-1.784,6.482,6.482,0,0,0,1.427-2.855,40.317,40.317,0,0,0,.357-6.9,40.318,40.318,0,0,0-.357-6.9,6.483,6.483,0,0,0-1.427-2.855,6.575,6.575,0,0,0-2.141-1.784,5.594,5.594,0,0,0-3.212-.714,6.74,6.74,0,0,0-3.212.714,6.368,6.368,0,0,0-2.141,1.784,7.178,7.178,0,0,0-1.427,2.855A42.3,42.3,0,0,0,212.334,141.286Z" transform="translate(-96.713 -123.8)"/></g><g transform="translate(135.961 192.344)"><path d="M114.3,189.14V161.9h3.925L130.6,181.289h.119V161.9h4.163v27.24h-3.925l-12.371-19.389h-.119V189.14Z" transform="translate(-114.3 -161.662)"/><path d="M135.2,178.173a15.28,15.28,0,0,1,.476-4.639,6.549,6.549,0,0,1,1.665-2.736,8.574,8.574,0,0,1,2.26-1.665,8.582,8.582,0,0,1,7.375,0,12.378,12.378,0,0,1,2.26,1.665,9.39,9.39,0,0,1,1.665,2.736,15.78,15.78,0,0,1,.476,4.639,16.173,16.173,0,0,1-.476,4.758,6.549,6.549,0,0,1-1.665,2.736,8.574,8.574,0,0,1-2.26,1.665,8.047,8.047,0,0,1-3.687.833,6.781,6.781,0,0,1-3.687-.833,8.574,8.574,0,0,1-2.26-1.665,9.39,9.39,0,0,1-1.665-2.736A21.681,21.681,0,0,1,135.2,178.173Zm12.133,0a15.4,15.4,0,0,0-.238-2.974,5.038,5.038,0,0,0-.714-1.665,3.68,3.68,0,0,0-3.093-1.427,3.4,3.4,0,0,0-3.093,1.427,4.171,4.171,0,0,0-.714,1.665,18.706,18.706,0,0,0,0,5.948,5.038,5.038,0,0,0,.714,1.665,3.534,3.534,0,0,0,3.093,1.427,3.4,3.4,0,0,0,3.093-1.427,4.171,4.171,0,0,0,.714-1.665A14.445,14.445,0,0,0,147.333,178.173Z" transform="translate(-110.339 -160.449)"/><path d="M156.937,187.889,149.8,168.5h4.163l4.52,13.56h.119l4.52-13.56h4.163l-7.137,19.389Z" transform="translate(-107.572 -160.411)"/><path d="M173.676,176.65V161.9h14.512v3.925H177.363v6.185a7.067,7.067,0,0,1,4.4-1.546,7.187,7.187,0,0,1,2.855.595,5.168,5.168,0,0,1,2.022,1.427,8.852,8.852,0,0,1,1.665,2.617,15.672,15.672,0,0,1,.476,4.758,16.7,16.7,0,0,1-.357,4.044,8.429,8.429,0,0,1-1.308,2.5,8.187,8.187,0,0,1-2.379,2.022,6.627,6.627,0,0,1-3.569.952,9.334,9.334,0,0,1-5.115-1.665c-1.665-1.071-2.617-2.855-2.855-5.472h3.925a3.67,3.67,0,0,0,3.925,3.212c1.9,0,2.974-.714,3.331-2.022a14.776,14.776,0,0,0,.476-3.925,9.059,9.059,0,0,0-.714-3.806c-.476-.952-1.546-1.546-3.212-1.546a3.835,3.835,0,0,0-3.569,2.26h-3.687Z" transform="translate(-103.138 -161.662)"/><path d="M196.5,189.416V161.7h2.855v27.716Z" transform="translate(-98.722 -161.7)"/><path d="M214.125,189.159v-23.2l-3.925,2.855v-4.163l3.925-2.855h3.925v27.359Z" transform="translate(-96.126 -161.681)"/><path d="M225.025,189.159v-23.2l-3.925,2.855v-4.163l3.925-2.855h3.925v27.359Z" transform="translate(-94.06 -161.681)"/></g><path class="b" d="M43.936,228.7v23.909q0,8.921-9.278,8.921H29.9v15.7h6.423c7.018,0,12.847-2.141,17.367-6.423s6.78-9.873,6.78-16.772V228.819c-2.5.119-5.234.238-8.208.238S46.553,228.938,43.936,228.7Z" transform="translate(5.666 43.341)"/><path class="d" d="M94.644,190.037a37.4,37.4,0,0,0-7.137-9.516,33.023,33.023,0,0,0-11.776-6.9c-4.4-1.427-11.062-2.022-20.1-2.022-8.921,0-15.464.714-19.865,2.022a29.641,29.641,0,0,0-11.776,6.9,37.4,37.4,0,0,0-7.137,9.516c-2.26,4.044-3.45,9.278-3.45,15.7,0,6.542,1.19,11.776,3.45,15.82a39.653,39.653,0,0,0,7.137,9.516,33.024,33.024,0,0,0,11.776,6.9,44.175,44.175,0,0,0,11.419,1.784V222.987a27.011,27.011,0,0,1-4.044-.595c-.595-.119-1.19-.357-1.784-.476a11.162,11.162,0,0,1-1.784-.714,25.992,25.992,0,0,1-3.45-2.022,14.59,14.59,0,0,1-3.687-3.925,17.907,17.907,0,0,1-2.379-9.516,18.2,18.2,0,0,1,2.379-9.516,12.6,12.6,0,0,1,2.26-2.736c.476-.357.952-.833,1.427-1.189a19.518,19.518,0,0,1,3.45-1.9l1.784-.714c.595-.238,1.19-.357,1.784-.595a22.6,22.6,0,0,1,5-.714c2.141-.119,4.639-.238,7.732-.238,2.26,0,4.282,0,6.067.119a27.726,27.726,0,0,1,6.661.833c1.19.357,2.379.714,3.569,1.189a18.521,18.521,0,0,1,3.331,1.9,12.6,12.6,0,0,1,1.427,1.19,11.844,11.844,0,0,1,1.19,1.308c2.26,2.736,3.45,6.423,3.45,10.944,0,4.639-1.19,8.208-3.45,10.943-.357.476-.833.833-1.19,1.309a6.9,6.9,0,0,1-1.427,1.189c-.595.357-1.071.714-1.665,1.071s-1.19.595-1.665.952a13.986,13.986,0,0,1-3.569,1.19,23.711,23.711,0,0,1-3.569.476,3.292,3.292,0,0,0-1.071.119v16.653a60.342,60.342,0,0,0,11.9-1.784,31.107,31.107,0,0,0,11.776-6.9,34.834,34.834,0,0,0,7.137-9.516c2.26-4.044,3.331-9.278,3.331-15.82C98.093,199.316,96.9,194.082,94.644,190.037Z" transform="translate(2.539 32.52)"/><path class="e" d="M50.164,214.938H46c-1.308,0-2.379-.119-3.45-.119a2.619,2.619,0,0,1-.952-.119v16.772c2.617.119,5.353.238,8.446.238,2.974,0,5.71-.119,8.208-.238V214.819C56.231,214.938,53.5,214.938,50.164,214.938Z" transform="translate(7.884 40.688)"/><rect class="b" width="41.633" height="17.605" transform="translate(8.564 182.114)"/><rect class="b" width="40.086" height="17.605" transform="translate(67.802 182.114)"/><path class="f" d="M59.824,134.6,42.1,146.614v9.992H59.824Z" transform="translate(7.978 25.508)"/><rect class="g" width="17.605" height="17.605" transform="translate(50.078 182.114)"/><rect class="d" width="17.605" height="21.887" transform="translate(50.078)"/><rect class="f" width="41.633" height="17.605" transform="translate(8.446 21.887)"/><rect class="f" width="40.086" height="17.605" transform="translate(67.802 21.887)"/><rect class="h" width="17.605" height="17.605" transform="translate(50.078 21.887)"/></g></g></svg>