<?xml version="1.0" encoding="UTF-8"?>
<svg width="353px" height="376px" viewBox="0 0 353 376" version="1.1" xmlns="http://www.w3.org/2000/svg" xmlns:xlink="http://www.w3.org/1999/xlink">
    <!-- Generator: Sketch 39.1 (31720) - http://www.bohemiancoding.com/sketch -->
    <title>Group 6</title>
    <desc>Created with Sketch.</desc>
    <defs>
        <filter x="-50%" y="-50%" width="200%" height="200%" filterUnits="objectBoundingBox" id="filter-1">
            <feOffset dx="0" dy="1" in="SourceAlpha" result="shadowOffsetOuter1"></feOffset>
            <feGaussianBlur stdDeviation="1" in="shadowOffsetOuter1" result="shadowBlurOuter1"></feGaussianBlur>
            <feColorMatrix values="0 0 0 0 0   0 0 0 0 0   0 0 0 0 0  0 0 0 0.15 0" type="matrix" in="shadowBlurOuter1" result="shadowMatrixOuter1"></feColorMatrix>
            <feMerge>
                <feMergeNode in="shadowMatrixOuter1"></feMergeNode>
                <feMergeNode in="SourceGraphic"></feMergeNode>
            </feMerge>
        </filter>
        <polygon id="path-2" points="0 279.400428 266.36454 279.400428 266.36454 0.221841542 0 0.221841542"></polygon>
    </defs>
    <g id="Page-1" stroke="none" stroke-width="1" fill="none" fill-rule="evenodd">
        <g id="PC---Home---__OLD" transform="translate(-544.000000, -239.000000)">
            <g id="Group-6" transform="translate(546.000000, 240.000000)">
                <g id="Group-2" fill="#ECEFEF">
                    <g id="Group" filter="url(#filter-1)">
                        <polygon id="Fill-1" points="0 372 349 372 349 0 0 0"></polygon>
                    </g>
                </g>
                <g id="Page-1" transform="translate(41.000000, 46.000000)">
                    <polygon id="Fill-1" fill="#E0DED2" points="70.3411563 125.910064 130.29833 125.910064 130.29833 65.9528908 70.3411563 65.9528908"></polygon>
                    <polygon id="Fill-2" fill="#66AAB7" points="91.3263469 74.9465268 91.3263469 86.9379615 100.319923 95.9315375 100.319923 83.9401028"></polygon>
                    <polygon id="Fill-3" fill="#66AAB7" points="109.313499 116.916548 109.313499 104.925113 100.319923 95.9315375 100.319923 107.922972"></polygon>
                    <polygon id="Fill-4" fill="#66AAB7" points="121.304934 86.9379615 109.313499 86.9379615 100.319923 95.9315375 112.311358 95.9315375"></polygon>
                    <polygon id="Fill-5" fill="#66AAB7" points="79.3349122 104.925113 91.3263469 104.925113 100.319923 95.9315375 88.3284882 95.9315375"></polygon>
                    <polygon id="Fill-6" fill="#525353" points="109.313499 74.9465268 100.319923 83.9401028 100.319923 95.9315375 109.313499 86.9379615"></polygon>
                    <polygon id="Fill-7" fill="#525353" points="91.3263469 116.916548 100.319923 107.922972 100.319923 95.9315375 91.3263469 104.925113"></polygon>
                    <polygon id="Fill-8" fill="#525353" points="112.311358 95.9315375 100.319923 95.9315375 109.313499 104.925113 121.304934 104.925113"></polygon>
                    <polygon id="Fill-9" fill="#525353" points="79.3349122 86.9379615 88.3284882 95.9315375 100.319923 95.9315375 91.3263469 86.9379615"></polygon>
                    <polygon id="Fill-10" fill="#D7E1E0" points="5.58740899 190.963597 65.5445824 190.963597 65.5445824 131.006424 5.58740899 131.006424"></polygon>
                    <polygon id="Fill-11" fill="#E0DED2" points="135.095503 60.5573448 195.052677 60.5573448 195.052677 0.599571734 135.095503 0.599571734"></polygon>
                    <polygon id="Fill-12" fill="#BC563A" points="135.095203 0.599391863 151.28364 16.7878287 151.28364 44.3687281 178.86394 44.3687281 195.052377 60.5571649 195.052377 48.5651306 183.060942 36.5736959 171.068908 36.5736959 159.078073 36.5736959 159.078073 24.5828608 159.078073 12.5914261 147.086638 0.599391863"></polygon>
                    <g id="Group-145" transform="translate(0.000000, 0.377730)">
                        <path d="M166.872385,0.221901499 L159.077953,0.221901499 C159.077953,20.0899101 175.184248,36.1962056 195.052257,36.1962056 L195.052257,28.401773 C179.488574,28.401773 166.872385,15.784985 166.872385,0.221901499 L166.872385,0.221901499 Z" id="Fill-13" fill="#BC563A"></path>
                        <polygon id="Fill-15" fill="#DEB525" points="171.668959 32.5987752 162.675383 32.5987752 162.675383 23.6051991"></polygon>
                        <polygon id="Fill-17" fill="#DEB525" points="159.077953 60.1790749 135.095084 60.1790749 135.095084 36.1962056"></polygon>
                        <polygon id="Fill-19" fill="#DEB525" points="151.28352 0.221901499 155.480522 0.221901499 155.480522 4.41890364"></polygon>
                        <polygon id="Fill-21" fill="#DEB525" points="190.855255 39.1940642 195.052257 39.1940642 195.052257 43.3910664"></polygon>
                        <path d="M171.069388,0.221901499 C171.069388,13.4670407 181.807118,24.2047709 195.052257,24.2047709 L195.052257,0.221901499 L171.069388,0.221901499 Z" id="Fill-23" fill="#DBBC9A"></path>
                        <mask id="mask-3" fill="white">
                            <use xlink:href="#path-2"></use>
                        </mask>
                        <g id="Clip-26"></g>
                        <polygon id="Fill-25" fill="#D7E1E0" mask="url(#mask-3)" points="200.448223 125.532334 260.405396 125.532334 260.405396 65.5751606 200.448223 65.5751606"></polygon>
                        <polygon id="Fill-27" fill="#DBBC9A" mask="url(#mask-3)" points="230.426989 65.5752206 260.405576 95.5538073 230.426989 125.532394 200.448403 95.5538073"></polygon>
                        <polygon id="Fill-28" fill="#E0DED2" mask="url(#mask-3)" points="215.437516 110.543041 245.416103 110.543041 245.416103 80.564454 215.437516 80.564454"></polygon>
                        <polygon id="Fill-29" fill="#BC563A" mask="url(#mask-3)" points="236.786467 98.1880857 239.420385 95.5535675 236.786467 92.9196488 236.786467 89.1945096 233.061328 89.1945096 230.426809 86.5599914 227.792891 89.1945096 224.067752 89.1945096 224.067752 92.9196488 221.433233 95.5535675 224.067752 98.1880857 224.067752 101.913225 227.792891 101.913225 230.426809 104.547143 233.061328 101.913225 236.786467 101.913225"></polygon>
                        <path d="M21.1893448,176.209096 C21.5029208,183.656976 27.505833,189.659889 34.9537131,189.973465 C34.640137,182.525585 28.6372248,176.522672 21.1893448,176.209096" id="Fill-30" fill="#D9AE2B" mask="url(#mask-3)"></path>
                        <path d="M36.1786381,189.973465 C43.6265182,189.659889 49.6294304,183.656976 49.9430064,176.209096 C42.4951263,176.522672 36.4922141,182.525585 36.1786381,189.973465" id="Fill-31" fill="#D9AE2B" mask="url(#mask-3)"></path>
                        <path d="M21.1893448,145.005585 C28.6372248,144.692009 34.640137,138.689096 34.9537131,131.241216 C27.505833,131.554792 21.5029208,137.557704 21.1893448,145.005585" id="Fill-32" fill="#D9AE2B" mask="url(#mask-3)"></path>
                        <path d="M36.1786381,131.241216 C36.4922141,138.689096 42.4951263,144.692009 49.9430064,145.005585 C49.6294304,137.557704 43.6265182,131.554792 36.1786381,131.241216" id="Fill-33" fill="#D9AE2B" mask="url(#mask-3)"></path>
                        <path d="M51.1679315,176.209096 C51.4815075,183.656976 57.4844197,189.659889 64.9322998,189.973465 C64.6187238,182.525585 58.6158116,176.522672 51.1679315,176.209096" id="Fill-34" fill="#D9AE2B" mask="url(#mask-3)"></path>
                        <path d="M64.9323597,131.241216 C57.4844797,131.554792 51.4815675,137.557704 51.1679914,145.005585 C58.6158715,144.692009 64.6187837,138.689096 64.9323597,131.241216" id="Fill-35" fill="#D9AE2B" mask="url(#mask-3)"></path>
                        <path d="M6.20005139,189.973465 C13.6479315,189.659889 19.6508437,183.656976 19.9644197,176.209096 C12.5165396,176.522672 6.51362741,182.525585 6.20005139,189.973465" id="Fill-36" fill="#D9AE2B" mask="url(#mask-3)"></path>
                        <path d="M6.20005139,131.241216 C6.51362741,138.689096 12.5165396,144.692009 19.9644197,145.005585 C19.6508437,137.557704 13.6479315,131.554792 6.20005139,131.241216" id="Fill-37" fill="#D9AE2B" mask="url(#mask-3)"></path>
                        <path d="M21.1893448,174.984171 C28.6372248,174.670595 34.640137,168.667683 34.9537131,161.219803 C27.505833,161.533379 21.5029208,167.536291 21.1893448,174.984171" id="Fill-38" fill="#D9AE2B" mask="url(#mask-3)"></path>
                        <path d="M21.1893448,146.23051 C21.5029208,153.67839 27.505833,159.681302 34.9537131,159.994878 C34.640137,152.546998 28.6372248,146.544086 21.1893448,146.23051" id="Fill-39" fill="#D9AE2B" mask="url(#mask-3)"></path>
                        <path d="M6.20005139,161.219803 C6.51362741,168.667683 12.5165396,174.670595 19.9644197,174.984171 C19.6508437,167.536291 13.6479315,161.533379 6.20005139,161.219803" id="Fill-40" fill="#D9AE2B" mask="url(#mask-3)"></path>
                        <path d="M6.20005139,159.994878 C13.6479315,159.681302 19.6508437,153.67839 19.9644197,146.23051 C12.5165396,146.544086 6.51362741,152.546998 6.20005139,159.994878" id="Fill-41" fill="#D9AE2B" mask="url(#mask-3)"></path>
                        <path d="M36.1786381,161.219803 C36.4922141,168.667683 42.4951263,174.670595 49.9430064,174.984171 C49.6294304,167.536291 43.6265182,161.533379 36.1786381,161.219803" id="Fill-42" fill="#D9AE2B" mask="url(#mask-3)"></path>
                        <path d="M36.1786381,159.994878 C43.6265182,159.681302 49.6294304,153.67839 49.9430064,146.23051 C42.4951263,146.544086 36.4922141,152.546998 36.1786381,159.994878" id="Fill-43" fill="#D9AE2B" mask="url(#mask-3)"></path>
                        <path d="M51.1679315,174.984171 C58.6158116,174.670595 64.6187238,168.667683 64.9322998,161.219803 C57.4844197,161.533379 51.4815075,167.536291 51.1679315,174.984171" id="Fill-44" fill="#D9AE2B" mask="url(#mask-3)"></path>
                        <path d="M51.1679315,146.23051 C51.4815075,153.67839 57.4844197,159.681302 64.9322998,159.994878 C64.6187238,152.546998 58.6158116,146.544086 51.1679315,146.23051" id="Fill-45" fill="#D9AE2B" mask="url(#mask-3)"></path>
                        <polygon id="Fill-46" fill="#E0DED2" mask="url(#mask-3)" points="135.094904 190.585867 195.052077 190.585867 195.052077 130.628694 135.094904 130.628694"></polygon>
                        <polygon id="Fill-47" fill="#DBBC9A" mask="url(#mask-3)" points="195.052257 190.585927 153.082236 190.585927 195.052257 148.615906"></polygon>
                        <path d="M171.240805,166.774655 C159.328514,168.174056 150.084317,178.297824 150.084317,190.586047 L159.077893,190.586047 C159.077893,183.053627 164.634124,176.821079 171.870955,175.758039 C172.588043,175.653713 173.320719,175.596754 174.067186,175.596754 C177.441576,175.596754 180.555152,176.711957 183.060163,178.594013 C181.178707,176.088403 180.062904,172.975426 180.062904,169.601036 C180.062904,168.85457 180.119263,168.121293 180.224788,167.404805 C181.287829,160.167375 187.520377,154.611743 195.052197,154.611743 L195.052197,145.618167 C182.763974,145.618167 172.640206,154.862364 171.240805,166.774655" id="Fill-48" fill="#BC563A" mask="url(#mask-3)"></path>
                        <path d="M186.429456,184.59021 C187.060805,185.679632 187.967358,186.586184 189.056779,187.217533 C190.146201,186.586184 191.052754,185.679632 191.683503,184.59021 C191.052754,183.500788 190.146201,182.594236 189.056779,181.962887 C187.967358,182.594236 187.060805,183.500788 186.429456,184.59021" id="Fill-49" fill="#404F62" mask="url(#mask-3)"></path>
                        <path d="M160.676831,139.022758 L157.942184,141.757405 C157.973362,140.608026 157.846253,139.455649 157.547666,138.335649 C157.022441,136.364857 155.998373,134.498989 154.452077,132.952694 C152.905782,134.498989 151.881113,136.364857 151.355889,138.335649 C151.070493,139.407084 150.940385,140.507897 150.956574,141.607512 C150.196916,140.830467 149.335332,140.15415 148.388009,139.605542 C146.622869,138.583272 144.578929,137.987897 142.392291,137.987897 C142.392291,140.175135 142.987066,142.218475 144.009336,143.983615 C144.524968,144.873379 145.15212,145.688197 145.869208,146.413679 C144.862527,146.422073 143.857045,146.554578 142.876745,146.815392 C140.905353,147.340617 139.039486,148.365285 137.493191,149.91158 C139.039486,151.457876 140.905353,152.481944 142.876745,153.007169 C143.996146,153.305156 145.148522,153.432865 146.297901,153.401687 L143.488908,156.210681 L143.488908,190.585927 L146.926852,190.585927 L146.926852,157.356463 L153.634261,150.649054 C153.889079,150.436805 154.138501,150.216163 154.378929,149.979332 L154.383726,149.979332 L154.383726,149.975135 C154.40591,149.952951 154.429893,149.933165 154.452077,149.91158 C154.438287,149.89779 154.423897,149.885799 154.410107,149.872608 L154.413105,149.87021 C154.426296,149.8834 154.438287,149.89779 154.452077,149.91158 C154.71469,149.648968 154.956317,149.374364 155.188951,149.093764 L161.822612,142.460103 L195.052077,142.460103 L195.052077,139.022758 L160.676831,139.022758 Z" id="Fill-50" fill="#525353" mask="url(#mask-3)"></path>
                        <path d="M191.683683,184.59021 C192.297045,183.530767 192.65379,182.304642 192.65379,180.992779 C191.341927,180.992779 190.115803,181.349525 189.05636,181.962887 L189.05636,181.962887 C187.997516,181.350124 186.771392,180.992779 185.458929,180.992779 C185.458929,182.304642 185.816274,183.530767 186.429636,184.59021" id="Fill-51" fill="#525353" mask="url(#mask-3)"></path>
                        <path d="M186.429456,184.59021 C185.816094,185.649653 185.459349,186.875777 185.459349,188.18764 C186.771212,188.18764 187.997336,187.830895 189.05618,187.217533 L189.056779,187.217533 C190.115623,187.830296 191.341747,188.18764 192.65421,188.18764 C192.65421,186.875777 192.296865,185.649653 191.683503,184.59021" id="Fill-52" fill="#525353" mask="url(#mask-3)"></path>
                        <path d="M35.5661756,95.5538073 C52.1227495,95.5538073 65.5447623,108.97582 65.5447623,125.532394 L65.5447623,65.5752206 L5.58758887,65.5752206 C22.1441627,65.5752206 35.5661756,78.9972334 35.5661756,95.5538073" id="Fill-53" fill="#BC563A" mask="url(#mask-3)"></path>
                        <path d="M35.5661756,95.5538073 C35.5661756,78.9972334 22.1441627,65.5752206 5.58758887,65.5752206 L5.58758887,71.5709379 C18.8327281,71.5709379 29.5704582,82.3086681 29.5704582,95.5538073 C29.5704582,95.755863 29.5602655,95.9561199 29.555469,96.157576 C29.4997088,98.3957773 29.1435632,100.559032 28.515212,102.604771 C30.5609507,101.97642 32.7242056,101.620274 34.9624069,101.564514 C35.163863,101.559717 35.3635203,101.549525 35.5661756,101.549525 C48.8113148,101.549525 59.549045,112.287255 59.549045,125.532394 L65.5447623,125.532394 C65.5447623,108.97582 52.1227495,95.5538073 35.5661756,95.5538073" id="Fill-54" fill="#E0DED2" mask="url(#mask-3)"></path>
                        <path d="M35.5661756,101.549525 C35.3635203,101.549525 35.163863,101.559717 34.9624069,101.564514 C32.7242056,101.620274 30.5609507,101.97642 28.515212,102.604771 C29.1435632,100.559032 29.4997088,98.3957773 29.555469,96.157576 C29.5602655,95.9561199 29.5704582,95.755863 29.5704582,95.5538073 C29.5704582,82.3086681 18.8327281,71.5709379 5.58758887,71.5709379 L5.58758887,119.536677 L5.58758887,125.532394 L11.5833062,125.532394 L59.549045,125.532394 C59.549045,112.287255 48.8113148,101.549525 35.5661756,101.549525" id="Fill-55" fill="#66AAB7" mask="url(#mask-3)"></path>
                        <path d="M33.7674604,108.744385 C31.5808223,108.744385 29.5368822,109.339161 27.771743,110.36143 C29.5872463,111.413679 31.098167,112.9246 32.1498158,114.740103 C33.1726852,116.505242 33.7674604,118.549182 33.7674604,120.73582 C38.2030921,120.73582 42.0673319,118.320745 44.1412505,114.740103 C42.0673319,111.15946 38.2030921,108.744385 33.7674604,108.744385" id="Fill-56" fill="#E0DED2" mask="url(#mask-3)"></path>
                        <path d="M15.7803084,86.3787409 C12.199666,88.4532591 9.78459101,92.3168994 9.78459101,96.7531306 C11.9712291,96.7531306 14.0151692,97.3479058 15.7803084,98.3701756 C17.5958116,99.4218244 19.1067323,100.932745 20.1583812,102.748848 C21.1812505,100.983109 21.7760257,98.9397687 21.7760257,96.7531306 C21.7760257,92.3168994 19.3609507,88.4532591 15.7803084,86.3787409" id="Fill-57" fill="#E0DED2" mask="url(#mask-3)"></path>
                        <path d="M32.1501156,114.740103 C31.0984668,112.9246 29.587546,111.413679 27.7720428,110.36143 C26.0063041,109.339161 23.9629636,108.744385 21.7763255,108.744385 C21.7763255,110.931024 22.3711006,112.974964 23.3933704,114.740103 C24.4450193,116.555606 25.95594,118.066527 27.7720428,119.118775 C29.537182,120.141045 31.5805225,120.73582 33.7677602,120.73582 C33.7677602,118.549182 33.1723854,116.505242 32.1501156,114.740103" id="Fill-58" fill="#398EB6" mask="url(#mask-3)"></path>
                        <path d="M11.4019358,114.740103 C10.379666,116.505242 9.78429122,118.549182 9.78429122,120.73582 C11.9715289,120.73582 14.0148694,120.141045 15.7800086,119.118775 C17.5961113,118.066527 19.1070321,116.555606 20.1586809,114.740103 C21.1809507,112.974964 21.7757259,110.931024 21.7757259,108.744385 C19.5890878,108.744385 17.5457473,109.339161 15.7800086,110.36143 C13.9645054,111.413679 12.4535846,112.9246 11.4019358,114.740103" id="Fill-59" fill="#398EB6" mask="url(#mask-3)"></path>
                        <path d="M15.7803084,98.3701756 C14.0151692,97.3479058 11.9712291,96.7531306 9.78459101,96.7531306 C9.78459101,98.9397687 10.3793662,100.983109 11.4022355,102.748848 C12.4538844,104.564351 13.9648051,106.075272 15.7803084,107.126921 C17.5454475,108.14979 19.5893876,108.744565 21.7760257,108.744565 C21.7760257,106.557328 21.1812505,104.513987 20.1583812,102.748848 C19.1067323,100.932745 17.5958116,99.4218244 15.7803084,98.3701756" id="Fill-60" fill="#398EB6" mask="url(#mask-3)"></path>
                        <path d="M54.1510407,79.2558887 C54.6762655,77.2850964 55.7009336,75.4192291 57.2472291,73.8729336 C55.7009336,75.4192291 53.8350664,76.4438972 51.8642741,76.9691221 C49.8365225,77.5087366 47.6996488,77.5087366 45.6718972,76.9691221 C46.1971221,78.9405139 47.2217901,80.8057816 48.7680857,82.3520771 C50.3143812,83.8983726 52.1796488,84.9230407 54.1510407,85.4482655 C53.6108266,83.4205139 53.6108266,81.2836403 54.1510407,79.2558887" id="Fill-61" fill="#66AAB7" mask="url(#mask-3)"></path>
                        <path d="M60.3431178,79.2561884 C59.8178929,77.2847966 58.7932248,75.4195289 57.2469293,73.8726338 C55.7006338,75.4195289 54.6765653,77.2847966 54.1507409,79.2561884 C53.6111263,81.2833405 53.6111263,83.4202141 54.1513405,85.4479657 C54.6765653,87.4193576 55.7006338,89.2852248 57.2469293,90.8315203 C58.7932248,89.2852248 59.8178929,87.4193576 60.3431178,85.4485653 C60.8833319,83.4208137 60.8833319,81.28394 60.3431178,79.2561884" id="Fill-62" fill="#E0DED2" mask="url(#mask-3)"></path>
                        <path d="M45.6718373,70.776985 C43.701045,71.3022099 41.8351777,72.3262784 40.2888822,73.8731734 C41.8351777,75.419469 43.7004454,76.4435375 45.6718373,76.9687623 C47.6995889,77.5089764 49.8364625,77.5089764 51.8642141,76.9687623 C53.8350064,76.4435375 55.7008737,75.419469 57.2471692,73.8731734 C55.7008737,72.3262784 53.8350064,71.3022099 51.8636146,70.776985 C49.8364625,70.2367709 47.6995889,70.2367709 45.6718373,70.776985" id="Fill-63" fill="#E0DED2" mask="url(#mask-3)"></path>
                        <polygon id="Fill-64" fill="#398EB6" mask="url(#mask-3)" points="200.448223 150.614218 220.433747 150.614218 220.433747 130.628694 200.448223 130.628694"></polygon>
                        <polygon id="Fill-65" fill="#398EB6" mask="url(#mask-3)" points="200.448223 190.585867 220.433747 190.585867 220.433747 170.600343 200.448223 170.600343"></polygon>
                        <polygon id="Fill-66" fill="#398EB6" mask="url(#mask-3)" points="240.419872 190.585867 260.405396 190.585867 260.405396 170.600343 240.419872 170.600343"></polygon>
                        <polygon id="Fill-67" fill="#398EB6" mask="url(#mask-3)" points="240.419872 150.614218 260.405396 150.614218 260.405396 130.628694 240.419872 130.628694"></polygon>
                        <polygon id="Fill-68" fill="#D9AE2B" mask="url(#mask-3)" points="220.434167 150.614278 220.434167 130.628754 200.448642 150.614278"></polygon>
                        <polygon id="Fill-69" fill="#D9AE2B" mask="url(#mask-3)" points="220.434167 190.585927 220.434167 170.600403 200.448642 170.600403"></polygon>
                        <polygon id="Fill-70" fill="#D9AE2B" mask="url(#mask-3)" points="240.419872 190.585927 260.405396 170.600403 240.419872 170.600403"></polygon>
                        <polygon id="Fill-71" fill="#D9AE2B" mask="url(#mask-3)" points="240.419872 130.628754 240.419872 150.614278 260.405396 150.614278"></polygon>
                        <polygon id="Fill-72" fill="#BC563A" mask="url(#mask-3)" points="220.434347 170.600343 240.419872 170.600343 240.419872 150.614818 220.434347 150.614818"></polygon>
                        <polygon id="Fill-73" fill="#D7E1E0" mask="url(#mask-3)" points="220.434167 150.614458 240.419692 150.614458 230.427229 140.621396"></polygon>
                        <polygon id="Fill-74" fill="#D7E1E0" mask="url(#mask-3)" points="240.419872 130.628754 220.434347 130.628754 230.426809 140.621816"></polygon>
                        <polygon id="Fill-75" fill="#D7E1E0" mask="url(#mask-3)" points="220.434167 190.585927 240.419692 190.585927 230.427229 180.592865"></polygon>
                        <polygon id="Fill-76" fill="#D7E1E0" mask="url(#mask-3)" points="240.419872 170.600223 220.434347 170.600223 230.426809 180.593285"></polygon>
                        <polygon id="Fill-77" fill="#D7E1E0" mask="url(#mask-3)" points="240.419872 150.614458 240.419872 170.599983 250.412934 160.60752"></polygon>
                        <polygon id="Fill-78" fill="#D7E1E0" mask="url(#mask-3)" points="260.405576 170.600223 260.405576 150.614698 250.412514 160.607161"></polygon>
                        <polygon id="Fill-79" fill="#D7E1E0" mask="url(#mask-3)" points="200.448403 150.614458 200.448403 170.599983 210.441465 160.60752"></polygon>
                        <polygon id="Fill-80" fill="#D7E1E0" mask="url(#mask-3)" points="220.434167 170.600223 220.434167 150.614698 210.441105 160.607161"></polygon>
                        <polygon id="Fill-81" fill="#525353" mask="url(#mask-3)" points="220.434167 130.628754 220.434167 150.614278 230.427229 140.621816"></polygon>
                        <polygon id="Fill-82" fill="#525353" mask="url(#mask-3)" points="240.419872 130.628754 230.426809 140.621816 240.419872 150.614278"></polygon>
                        <polygon id="Fill-83" fill="#525353" mask="url(#mask-3)" points="220.434167 190.585927 230.427229 180.592865 220.434167 170.600403"></polygon>
                        <polygon id="Fill-84" fill="#525353" mask="url(#mask-3)" points="240.419872 190.585927 240.419872 170.600403 230.426809 180.592865"></polygon>
                        <polygon id="Fill-85" fill="#525353" mask="url(#mask-3)" points="260.405576 150.614278 240.420051 150.614278 250.412514 160.60734"></polygon>
                        <polygon id="Fill-86" fill="#525353" mask="url(#mask-3)" points="240.419872 170.600403 260.405396 170.600403 250.412934 160.60734"></polygon>
                        <polygon id="Fill-87" fill="#525353" mask="url(#mask-3)" points="200.448403 150.614278 210.441465 160.60734 220.433927 150.614278"></polygon>
                        <polygon id="Fill-88" fill="#525353" mask="url(#mask-3)" points="200.448403 170.600403 220.433927 170.600403 210.441465 160.60734"></polygon>
                        <polygon id="Fill-89" fill="#D7E1E0" mask="url(#mask-3)" points="5.58740899 60.179015 65.5445824 60.179015 65.5445824 0.221841542 5.58740899 0.221841542"></polygon>
                        <path d="M48.9489764,31.0038544 C48.0364283,30.4768308 47.0429379,30.2196146 46.0584411,30.2028266 L46.0584411,30.2004283 L46.0584411,30.19803 C47.0429379,30.181242 48.0364283,29.9240257 48.9489764,29.3970021 C51.8167281,27.7415846 52.7994261,24.0746039 51.143409,21.2068522 C49.4879914,18.3391006 45.8210107,17.3564026 42.9532591,19.0124197 C42.0377131,19.5406424 41.3170278,20.2751178 40.8103897,21.1223126 C40.8091906,21.1211135 40.8079914,21.1205139 40.8061927,21.1193148 C41.2864497,20.2571306 41.5616531,19.2660385 41.5616531,18.2089936 C41.5616531,14.8975589 38.8773704,12.2132762 35.5659358,12.2132762 C32.2551006,12.2132762 29.5702184,14.8975589 29.5702184,18.2089936 C29.5702184,19.2660385 29.8460214,20.2571306 30.3262784,21.1193148 C30.3244797,21.1205139 30.3232805,21.1211135 30.3220814,21.1223126 C29.8154433,20.2751178 29.0941585,19.5406424 28.179212,19.0124197 C25.3114604,17.3564026 21.6444797,18.3391006 19.9890621,21.2068522 C18.333045,24.0746039 19.315743,27.7415846 22.1834946,29.3970021 C23.0960428,29.9240257 24.0895332,30.181242 25.07403,30.19803 L25.0734304,30.2004283 L25.07403,30.2028266 C24.0895332,30.2196146 23.0960428,30.4768308 22.1834946,31.0038544 C19.315743,32.6592719 18.333045,36.3262527 19.9890621,39.1940043 C21.6444797,42.0617559 25.3114604,43.044454 28.179212,41.3884368 C29.0941585,40.8602141 29.8154433,40.1257388 30.3220814,39.2791435 C30.3232805,39.279743 30.3244797,39.2809422 30.3262784,39.2815418 C29.8460214,40.1437259 29.5702184,41.134818 29.5702184,42.191863 C29.5702184,45.5032976 32.2551006,48.1875803 35.5659358,48.1875803 C38.8773704,48.1875803 41.5616531,45.5032976 41.5616531,42.191863 C41.5616531,41.134818 41.2864497,40.1437259 40.8061927,39.2815418 C40.8079914,39.2809422 40.8091906,39.279743 40.8103897,39.2791435 C41.3170278,40.1257388 42.0383126,40.8602141 42.9532591,41.3884368 C45.8210107,43.044454 49.4879914,42.0617559 51.143409,39.1940043 C52.7994261,36.3262527 51.8167281,32.6592719 48.9489764,31.0038544" id="Fill-90" fill="#A2A19C" mask="url(#mask-3)"></path>
                        <path d="M41.5618929,30.2004882 C41.5618929,33.5119229 38.8776103,36.1962056 35.5661756,36.1962056 C32.2547409,36.1962056 29.5704582,33.5119229 29.5704582,30.2004882 C29.5704582,26.8890535 32.2547409,24.2047709 35.5661756,24.2047709 C38.8776103,24.2047709 41.5618929,26.8890535 41.5618929,30.2004882" id="Fill-91" fill="#525353" mask="url(#mask-3)"></path>
                        <polygon id="Fill-92" fill="#525353" mask="url(#mask-3)" points="17.5790236 60.1790749 5.58758887 60.1790749 5.58758887 48.1876403"></polygon>
                        <polygon id="Fill-93" fill="#525353" mask="url(#mask-3)" points="53.5533276 0.221901499 65.5447623 0.221901499 65.5447623 12.2133362"></polygon>
                        <polygon id="Fill-94" fill="#525353" mask="url(#mask-3)" points="5.58758887 12.2133362 5.58758887 0.221901499 17.5790236 0.221901499"></polygon>
                        <polygon id="Fill-95" fill="#525353" mask="url(#mask-3)" points="65.5447623 48.1876403 65.5447623 60.1790749 53.5533276 60.1790749"></polygon>
                        <polygon id="Fill-96" fill="#D9AE2B" mask="url(#mask-3)" points="229.827238 30.5002141 259.805824 30.5002141 259.805824 0.521627409 229.827238 0.521627409"></polygon>
                        <polygon id="Fill-97" fill="#E0DED2" mask="url(#mask-3)" points="229.827418 30.5002741 229.827418 0.521687366 259.806004 0.521687366"></polygon>
                        <polygon id="Fill-98" fill="#D9AE2B" mask="url(#mask-3)" points="229.827238 60.4788009 259.805824 60.4788009 259.805824 30.5002141 229.827238 30.5002141"></polygon>
                        <polygon id="Fill-99" fill="#E0DED2" mask="url(#mask-3)" points="229.827418 30.5002741 259.806004 30.5002741 259.806004 60.4788608"></polygon>
                        <polygon id="Fill-100" fill="#D9AE2B" mask="url(#mask-3)" points="199.848651 60.4788009 229.827238 60.4788009 229.827238 30.5002141 199.848651 30.5002141"></polygon>
                        <polygon id="Fill-101" fill="#E0DED2" mask="url(#mask-3)" points="229.827418 30.5002741 229.827418 60.4788608 199.848831 60.4788608"></polygon>
                        <polygon id="Fill-102" fill="#D9AE2B" mask="url(#mask-3)" points="199.848651 30.5002141 229.827238 30.5002141 229.827238 0.521627409 199.848651 0.521627409"></polygon>
                        <polygon id="Fill-103" fill="#E0DED2" mask="url(#mask-3)" points="229.827418 30.5002741 199.848831 30.5002741 199.848831 0.521687366"></polygon>
                        <polygon id="Fill-104" fill="#398EB6" mask="url(#mask-3)" points="70.3411563 60.179015 130.29833 60.179015 130.29833 0.221841542 70.3411563 0.221841542"></polygon>
                        <path d="M112.311358,51.1854989 C108.258852,51.1854989 104.826904,48.490424 103.706304,44.7994604 C109.25594,43.5121799 113.631615,39.1365054 114.918895,33.5868694 C118.609859,34.707469 121.304934,38.1394176 121.304934,42.1919229 C121.304934,47.1509807 117.270415,51.1854989 112.311358,51.1854989 M88.3284882,51.1854989 C83.3694304,51.1854989 79.3349122,47.1509807 79.3349122,42.1919229 C79.3349122,38.1394176 82.0299872,34.707469 85.7209507,33.5868694 C87.0082313,39.1365054 91.3839058,43.5121799 96.9335418,44.7994604 C95.8129422,48.490424 92.3809936,51.1854989 88.3284882,51.1854989 M79.3349122,18.2090535 C79.3349122,13.2499957 83.3694304,9.21547752 88.3284882,9.21547752 C92.3809936,9.21547752 95.8129422,11.9105525 96.9335418,15.6015161 C91.3839058,16.8887966 87.0082313,21.2644711 85.7209507,26.8141071 C82.0299872,25.6935075 79.3349122,22.2615589 79.3349122,18.2090535 M112.311358,9.21547752 C117.270415,9.21547752 121.304934,13.2499957 121.304934,18.2090535 C121.304934,22.2615589 118.609859,25.6935075 114.918895,26.8141071 C113.631615,21.2644711 109.25594,16.8887966 103.706304,15.6015161 C104.826904,11.9105525 108.258852,9.21547752 112.311358,9.21547752 M102.92746,38.8055418 C102.101251,39.0567623 101.226475,39.1940642 100.319923,39.1940642 C99.4133704,39.1940642 98.5385953,39.0567623 97.7123854,38.8055418 C97.2645054,38.669439 96.8358116,38.4931649 96.4203084,38.2923084 C94.5928137,37.40794 93.1124711,35.9275974 92.2281028,34.1001028 C92.0272463,33.6851991 91.8509722,33.2559058 91.7148694,32.8080257 C91.4642484,31.9818158 91.3263469,31.1070407 91.3263469,30.2004882 C91.3263469,29.2939358 91.4642484,28.4191606 91.7148694,27.5929507 C91.8509722,27.1450707 92.0272463,26.7157773 92.2281028,26.3008737 C93.1124711,24.473379 94.5928137,22.9930364 96.4203084,22.1086681 C96.8358116,21.9078116 97.2645054,21.7315375 97.7123854,21.5954347 C98.5385953,21.3442141 99.4133704,21.2069122 100.319923,21.2069122 C101.226475,21.2069122 102.101251,21.3442141 102.92746,21.5954347 C103.37534,21.7315375 103.804034,21.9078116 104.219537,22.1086681 C106.047032,22.9930364 107.527375,24.473379 108.411743,26.3008737 C108.6126,26.7157773 108.788874,27.1450707 108.924976,27.5929507 C109.175597,28.4191606 109.313499,29.2939358 109.313499,30.2004882 C109.313499,31.1070407 109.175597,31.9818158 108.924976,32.8080257 C108.788874,33.2559058 108.6126,33.6851991 108.411743,34.1001028 C107.527375,35.9275974 106.047032,37.40794 104.219537,38.2923084 C103.804034,38.4931649 103.37534,38.669439 102.92746,38.8055418 M121.294741,30.2004882 C124.938938,27.4634433 127.300651,23.106955 127.300651,18.2090535 C127.300651,9.94395717 120.576454,3.21976017 112.311358,3.21976017 C107.413456,3.21976017 103.056968,5.58147323 100.319923,9.22567024 C97.5828779,5.58147323 93.2263897,3.21976017 88.3284882,3.21976017 C80.0633919,3.21976017 73.3391949,9.94395717 73.3391949,18.2090535 C73.3391949,23.106955 75.7009079,27.4634433 79.3451049,30.2004882 C75.7009079,32.9375332 73.3391949,37.2940214 73.3391949,42.1919229 C73.3391949,50.4570193 80.0633919,57.1812163 88.3284882,57.1812163 C93.2263897,57.1812163 97.5828779,54.8195032 100.319923,51.1753062 C103.056968,54.8195032 107.413456,57.1812163 112.311358,57.1812163 C120.576454,57.1812163 127.300651,50.4570193 127.300651,42.1919229 C127.300651,37.2940214 124.938938,32.9375332 121.294741,30.2004882" id="Fill-105" fill="#D7E1E0" mask="url(#mask-3)"></path>
                        <polygon id="Fill-106" fill="#398EB6" mask="url(#mask-3)" points="135.094904 125.532334 195.052077 125.532334 195.052077 65.5751606 135.094904 65.5751606"></polygon>
                        <path d="M177.065105,116.538818 C173.0126,116.538818 169.580651,113.843743 168.460051,110.152779 C174.009687,108.865499 178.385362,104.489824 179.672642,98.9401884 C183.363606,100.060788 186.058681,103.492737 186.058681,107.545242 C186.058681,112.5043 182.024163,116.538818 177.065105,116.538818 M153.082236,116.538818 C148.123178,116.538818 144.08866,112.5043 144.08866,107.545242 C144.08866,103.492737 146.783734,100.060788 150.474698,98.9401884 C151.761979,104.489824 156.137653,108.865499 161.687289,110.152779 C160.56669,113.843743 157.134741,116.538818 153.082236,116.538818 M144.08866,83.5623726 C144.08866,78.6033148 148.123178,74.5687966 153.082236,74.5687966 C157.134741,74.5687966 160.56669,77.2638715 161.687289,80.9548351 C156.137653,82.2421156 151.761979,86.6177901 150.474698,92.1674261 C146.783734,91.0468266 144.08866,87.6148779 144.08866,83.5623726 M177.065105,74.5687966 C182.024163,74.5687966 186.058681,78.6033148 186.058681,83.5623726 C186.058681,87.6148779 183.363606,91.0468266 179.672642,92.1674261 C178.385362,86.6177901 174.009687,82.2421156 168.460051,80.9548351 C169.580651,77.2638715 173.0126,74.5687966 177.065105,74.5687966 M167.681208,104.158861 C166.854998,104.410081 165.980223,104.547383 165.07367,104.547383 C164.167118,104.547383 163.292343,104.410081 162.466133,104.158861 C162.018253,104.022758 161.589559,103.846484 161.174056,103.645627 C159.346561,102.761259 157.866218,101.280916 156.98185,99.4534218 C156.780994,99.0385182 156.604719,98.6092248 156.468617,98.1613448 C156.217996,97.3351349 156.080094,96.4603597 156.080094,95.5538073 C156.080094,94.6472548 156.217996,93.7724797 156.468617,92.9462698 C156.604719,92.4983897 156.780994,92.0690964 156.98185,91.6541927 C157.866218,89.8266981 159.346561,88.3463555 161.174056,87.4619872 C161.589559,87.2611306 162.018253,87.0848565 162.466133,86.9487537 C163.292343,86.6975332 164.167118,86.5602313 165.07367,86.5602313 C165.980223,86.5602313 166.854998,86.6975332 167.681208,86.9487537 C168.129088,87.0848565 168.557782,87.2611306 168.973285,87.4619872 C170.800779,88.3463555 172.281122,89.8266981 173.16549,91.6541927 C173.366347,92.0690964 173.542621,92.4983897 173.678724,92.9462698 C173.929345,93.7724797 174.067246,94.6472548 174.067246,95.5538073 C174.067246,96.4603597 173.929345,97.3351349 173.678724,98.1613448 C173.542621,98.6092248 173.366347,99.0385182 173.16549,99.4534218 C172.281122,101.280916 170.800779,102.761259 168.973285,103.645627 C168.557782,103.846484 168.129088,104.022758 167.681208,104.158861 M186.048488,95.5538073 C189.692685,92.8167623 192.054398,88.4602741 192.054398,83.5623726 C192.054398,75.2972762 185.330201,68.5730792 177.065105,68.5730792 C172.167203,68.5730792 167.810715,70.9347923 165.07367,74.5789893 C162.336625,70.9347923 157.980137,68.5730792 153.082236,68.5730792 C144.817139,68.5730792 138.092942,75.2972762 138.092942,83.5623726 C138.092942,88.4602741 140.454655,92.8167623 144.098852,95.5538073 C140.454655,98.2908522 138.092942,102.64734 138.092942,107.545242 C138.092942,115.810338 144.817139,122.534535 153.082236,122.534535 C157.980137,122.534535 162.336625,120.172822 165.07367,116.528625 C167.810715,120.172822 172.167203,122.534535 177.065105,122.534535 C185.330201,122.534535 192.054398,115.810338 192.054398,107.545242 C192.054398,102.64734 189.692685,98.2908522 186.048488,95.5538073" id="Fill-107" fill="#D7E1E0" mask="url(#mask-3)"></path>
                        <polygon id="Fill-108" fill="#398EB6" mask="url(#mask-3)" points="70.3411563 190.585867 130.29833 190.585867 130.29833 130.628694 70.3411563 130.628694"></polygon>
                        <path d="M112.311358,181.592351 C108.258852,181.592351 104.826904,178.897276 103.706304,175.206313 C109.25594,173.919032 113.631615,169.543358 114.918895,163.993722 C118.609859,165.114321 121.304934,168.54627 121.304934,172.598775 C121.304934,177.557833 117.270415,181.592351 112.311358,181.592351 M88.3284882,181.592351 C83.3694304,181.592351 79.3349122,177.557833 79.3349122,172.598775 C79.3349122,168.54627 82.0299872,165.114321 85.7209507,163.993722 C87.0082313,169.543358 91.3839058,173.919032 96.9335418,175.206313 C95.8129422,178.897276 92.3809936,181.592351 88.3284882,181.592351 M79.3349122,148.615906 C79.3349122,143.656848 83.3694304,139.62233 88.3284882,139.62233 C92.3809936,139.62233 95.8129422,142.317405 96.9335418,146.008368 C91.3839058,147.295649 87.0082313,151.671323 85.7209507,157.220959 C82.0299872,156.10036 79.3349122,152.668411 79.3349122,148.615906 M112.311358,139.62233 C117.270415,139.62233 121.304934,143.656848 121.304934,148.615906 C121.304934,152.668411 118.609859,156.10036 114.918895,157.220959 C113.631615,151.671323 109.25594,147.295649 103.706304,146.008368 C104.826904,142.317405 108.258852,139.62233 112.311358,139.62233 M102.92746,169.212394 C102.101251,169.463615 101.226475,169.600916 100.319923,169.600916 C99.4133704,169.600916 98.5385953,169.463615 97.7123854,169.212394 C97.2645054,169.076291 96.8358116,168.900017 96.4203084,168.699161 C94.5928137,167.814792 93.1124711,166.33445 92.2281028,164.506955 C92.0272463,164.092051 91.8509722,163.662758 91.7148694,163.214878 C91.4642484,162.388668 91.3263469,161.513893 91.3263469,160.60734 C91.3263469,159.700788 91.4642484,158.826013 91.7148694,157.999803 C91.8509722,157.551923 92.0272463,157.12263 92.2281028,156.707726 C93.1124711,154.880231 94.5928137,153.399889 96.4203084,152.51552 C96.8358116,152.314664 97.2645054,152.13839 97.7123854,152.002287 C98.5385953,151.751066 99.4133704,151.613764 100.319923,151.613764 C101.226475,151.613764 102.101251,151.751066 102.92746,152.002287 C103.37534,152.13839 103.804034,152.314664 104.219537,152.51552 C106.047032,153.399889 107.527375,154.880231 108.411743,156.707726 C108.6126,157.12263 108.788874,157.551923 108.924976,157.999803 C109.175597,158.826013 109.313499,159.700788 109.313499,160.60734 C109.313499,161.513893 109.175597,162.388668 108.924976,163.214878 C108.788874,163.662758 108.6126,164.092051 108.411743,164.506955 C107.527375,166.33445 106.047032,167.814792 104.219537,168.699161 C103.804034,168.900017 103.37534,169.076291 102.92746,169.212394 M121.294741,160.60734 C124.938938,157.870296 127.300651,153.513807 127.300651,148.615906 C127.300651,140.350809 120.576454,133.626612 112.311358,133.626612 C107.413456,133.626612 103.056968,135.988325 100.319923,139.632522 C97.5828779,135.988325 93.2263897,133.626612 88.3284882,133.626612 C80.0633919,133.626612 73.3391949,140.350809 73.3391949,148.615906 C73.3391949,153.513807 75.7009079,157.870296 79.3451049,160.60734 C75.7009079,163.344385 73.3391949,167.700874 73.3391949,172.598775 C73.3391949,180.863872 80.0633919,187.588069 88.3284882,187.588069 C93.2263897,187.588069 97.5828779,185.226355 100.319923,181.582158 C103.056968,185.226355 107.413456,187.588069 112.311358,187.588069 C120.576454,187.588069 127.300651,180.863872 127.300651,172.598775 C127.300651,167.700874 124.938938,163.344385 121.294741,160.60734" id="Fill-109" fill="#D7E1E0" mask="url(#mask-3)"></path>
                        <path d="M20.0021927,219.610116 C20.0021927,221.542535 19.2263469,223.374227 17.8119572,224.795812 C17.5409507,224.882749 17.3035203,225.05003 17.1314433,225.278467 C15.9538844,226.180822 14.5011221,226.676069 13.0243769,226.676069 C12.181379,226.676069 11.4175246,226.556754 10.6278887,226.300137 C9.58703212,225.759323 8.96767452,224.850373 8.96767452,223.858081 C8.96767452,223.163777 9.19131478,222.546818 9.59122912,222.087546 C10.103863,222.850201 10.9744411,223.34185 11.9625353,223.34185 C13.5088308,223.34185 14.7205653,222.091143 14.7205653,220.495084 C14.7205653,219.360694 14.0004797,218.343221 12.9146552,217.921122 C12.6076745,217.737054 12.2701156,217.737054 12.0512719,217.737054 L11.6081884,217.737054 C10.6968394,217.737054 9.79628266,217.9523 8.96767452,218.360009 L8.96767452,207.67624 L13.0243769,207.67624 C16.8718287,207.67624 20.0021927,210.846176 20.0021927,214.742193 L20.0021927,219.610116 Z M14.4405653,246.589645 C12.9026638,246.589645 11.7023212,246.363006 10.6350835,245.865362 C9.62240685,245.431272 8.96767452,244.471358 8.96767452,243.41791 C8.96767452,241.96155 10.1524283,240.776797 11.6081884,240.776797 C12.5758972,240.776797 13.3931135,240.000351 13.3931135,239.081208 C13.3931135,238.096711 12.5926852,237.296283 11.6081884,237.296283 C10.6968394,237.296283 9.79628266,237.511529 8.96767452,237.919238 L8.96767452,229.215854 C9.09238544,229.27761 9.22129336,229.337567 9.35379872,229.393328 C10.3904582,229.771058 11.6375675,230.156582 13.0243769,230.156582 C15.0185525,230.156582 17.0103298,229.521036 18.6915289,228.357867 C22.0251478,230.107418 24.0738844,233.390672 24.0738844,237.045062 C24.0738844,242.397439 19.8421071,246.589645 14.4405653,246.589645 L14.4405653,246.589645 Z M21.3068608,225.924805 C22.699666,224.101507 23.4827066,221.854313 23.4827066,219.610116 L23.4827066,214.742193 C23.4827066,209.025276 18.6933276,204.195726 13.0243769,204.195726 L2.66977302,204.195726 C1.73024411,204.195726 0.973584582,205.123263 0.973584582,205.891315 C0.973584582,206.892 1.71885225,207.67624 2.66977302,207.67624 L5.48776017,207.67624 L5.48776017,243.240437 C5.48776017,244.563692 4.56202141,245.970287 2.84664668,245.970287 L1.69606852,245.970287 C0.86206424,245.970287 -0.000119914347,246.604034 -0.000119914347,247.665876 C-0.000119914347,248.406347 0.822492505,249.362064 1.69606852,249.362064 L3.02352034,249.362064 C4.62977302,249.362064 6.14309208,248.671358 7.24510493,247.471615 C7.66660385,247.864934 8.1810364,248.261251 8.80878801,248.679752 L9.6553833,249.109045 C10.9780385,249.688231 12.5884882,249.981422 14.4405653,249.981422 C21.7439486,249.981422 27.4650621,244.299281 27.4650621,237.045062 C27.4650621,232.544677 25.1315289,228.377054 21.3068608,225.924805 L21.3068608,225.924805 Z" id="Fill-110" fill="#525353" mask="url(#mask-3)"></path>
                        <path d="M50.9495675,224.757439 C51.4675974,224.757439 51.973636,224.596754 52.4155203,224.30836 C52.4892677,224.581165 52.5282398,224.877353 52.5282398,225.185533 C52.5282398,226.316925 51.9556488,227.237268 50.9567623,227.717525 L50.02203,228.058081 L49.2126081,224.237011 C49.695863,224.565576 50.2942355,224.757439 50.9495675,224.757439 L50.9495675,224.757439 Z M46.891666,229.203263 L39.9738073,231.632128 L43.6216017,214.254141 L46.891666,229.203263 Z M57.4986895,246.678381 L53.9786039,246.678381 L50.7571049,231.537996 L52.1193319,231.08352 L52.2362484,231.034955 C54.5631863,229.871786 56.0087537,227.630587 56.0087537,225.185533 C56.0087537,222.569602 54.3869122,220.203692 51.9730364,219.298938 L51.8848994,219.273156 L51.764985,219.152642 L51.3920514,219.152642 L50.8800171,219.15564 C49.7899957,219.24018 48.9122227,219.75761 48.4277687,220.529859 L45.6871263,207.587503 L49.2677687,207.587503 C50.30203,207.587503 51.0520942,206.836839 51.0520942,205.803178 C51.0520942,204.984163 50.335606,204.107589 49.2677687,204.107589 L37.7619872,204.107589 C36.7007452,204.107589 36.0663983,204.969173 36.0663983,205.803178 C36.0663983,206.854227 36.7637002,207.587503 37.7619872,207.587503 L41.605242,207.587503 L35.5549636,235.708017 L33.2280257,246.678381 L29.8854133,246.678381 C28.9458844,246.678381 28.1892248,247.605319 28.1892248,248.37397 C28.1892248,249.374655 28.9344925,250.158296 29.8854133,250.158296 L41.4793319,250.158296 C42.4302527,250.158296 43.1755203,249.374655 43.1755203,248.37397 C43.1755203,247.605319 42.4188608,246.678381 41.4793319,246.678381 L36.7505096,246.678381 L38.638561,237.867075 L38.8909807,236.774056 C39.169182,236.05397 39.7621585,235.497567 40.5386039,235.238552 L47.6297388,232.744934 L50.632394,246.678381 L45.9047709,246.678381 C44.965242,246.678381 44.2085824,247.605319 44.2085824,248.37397 C44.2085824,249.374655 44.9538501,250.158296 45.9047709,250.158296 L57.4986895,250.158296 C58.4496103,250.158296 59.1948779,249.374655 59.1948779,248.37397 C59.1948779,247.605319 58.4382184,246.678381 57.4986895,246.678381 L57.4986895,246.678381 Z" id="Fill-111" fill="#525353" mask="url(#mask-3)"></path>
                        <path d="M71.4348351,207.587683 L73.8984754,207.587683 C79.3563769,207.587683 83.7968051,212.028111 83.7968051,217.486013 C83.7968051,221.459974 81.2959914,225.064 77.6218158,226.525756 L77.0216445,224.90931 C75.9418158,222.479246 73.8888822,220.787854 71.4348351,220.260831 L71.4348351,207.587683 Z M71.4348351,223.900231 C72.4301242,224.344514 73.2881113,225.196505 73.8726938,226.349482 L74.2600171,227.338775 C73.235349,227.573208 72.277833,228.002501 71.4348351,228.599675 L71.4348351,223.900231 Z M89.475349,246.501088 L86.9973191,246.501088 C85.8875118,246.501088 84.8628437,245.849953 84.3759914,244.840274 L78.8611306,229.799418 C83.8597602,227.813636 87.2773191,222.879161 87.2773191,217.486013 C87.2773191,210.234193 81.1502955,204.107169 73.8984754,204.107169 L64.6057131,204.107169 C63.5714518,204.107169 62.8213876,204.857233 62.8213876,205.891495 C62.8213876,206.842415 63.6050278,207.587683 64.6057131,207.587683 L68.0430578,207.587683 L68.0430578,220.17869 C64.3059272,220.992908 61.6702099,224.211409 61.6702099,228.106827 C61.6702099,229.575777 62.9592891,230.864257 64.4282398,230.864257 C65.9979186,230.864257 67.2750064,229.62734 67.2750064,228.106827 C67.2750064,227.00961 66.7383897,226.101859 65.8810021,225.621602 C66.4002313,224.821173 67.1574904,224.206013 68.0430578,223.862458 L68.0430578,246.677961 L64.7825867,246.677961 C63.7315375,246.677961 62.9982612,247.375263 62.9982612,248.37355 C62.9982612,249.218347 63.7309379,250.158475 64.7825867,250.158475 L75.2259272,250.158475 C76.273379,250.158475 76.9221156,249.232137 76.9221156,248.37355 C76.9221156,247.344086 76.256591,246.677961 75.2259272,246.677961 L71.4348351,246.677961 L71.4348351,235.098433 C71.4348351,232.912394 73.1520086,230.97158 75.3260557,230.681987 L75.424985,230.671195 L81.1778758,246.127555 L81.2774047,246.227084 C82.2511092,248.51445 84.4065696,249.981602 86.8204454,249.981602 L89.475349,249.981602 C90.5096103,249.981602 91.2596745,249.230938 91.2596745,248.196677 C91.2596745,247.246355 90.4760343,246.501088 89.475349,246.501088 L89.475349,246.501088 Z" id="Fill-112" fill="#525353" mask="url(#mask-3)"></path>
                        <path d="M108.287392,213.945842 C108.287392,212.229867 107.010304,210.834064 105.440625,210.834064 C104.096985,210.834064 102.594458,212.164514 102.594458,213.945842 C102.594458,217.418561 105.459212,220.243743 108.981096,220.243743 C112.512574,220.243743 115.278998,217.477319 115.278998,213.945842 C115.278998,207.833807 110.490818,203.045028 104.378784,203.045028 C98.3081199,203.045028 93.5840942,207.719289 93.389833,213.945842 L93.389833,240.497276 C93.389833,246.556548 98.3195118,251.485627 104.378784,251.485627 C110.388891,251.485627 115.278998,246.556548 115.278998,240.497276 L115.278998,234.833122 C115.278998,233.798861 114.528934,233.048197 113.494672,233.048197 C112.675657,233.048197 111.799084,233.765884 111.799084,234.833122 L111.799084,240.497276 C111.799084,244.588154 108.470261,247.916976 104.378784,247.916976 C100.287306,247.916976 96.9584839,244.588154 96.9584839,240.497276 L96.9578844,213.980617 C97.1233662,209.679889 100.313687,206.437405 104.378784,206.437405 C108.470261,206.437405 111.799084,209.805799 111.799084,213.945842 C111.799084,215.472951 110.508805,216.763229 108.981096,216.763229 C108.328762,216.763229 107.680625,216.531195 107.14221,216.127084 C107.82752,215.606056 108.287392,214.796034 108.287392,213.945842" id="Fill-113" fill="#525353" mask="url(#mask-3)"></path>
                        <path d="M141.453242,204.107349 L119.592857,204.107349 C118.808017,204.107349 117.896668,204.886792 117.896668,205.891675 C117.896668,206.831203 118.824206,207.587863 119.592857,207.587863 L121.702749,207.587863 L121.702749,232.097156 C119.96579,233.199169 118.870373,235.219726 118.870373,237.399169 C118.870373,238.397456 119.604248,239.094758 120.654698,239.094758 C121.060009,239.094758 121.419752,238.973645 121.702749,238.761996 L121.702749,246.678141 L119.592857,246.678141 C118.824206,246.678141 117.896668,247.434801 117.896668,248.37373 C117.896668,249.379212 118.808017,250.158655 119.592857,250.158655 L141.453242,250.158655 C142.487503,250.158655 143.238167,249.407991 143.238167,248.37373 L143.238167,241.205251 C143.238167,240.25433 142.453927,239.509062 141.453242,239.509062 C140.685191,239.509062 139.757653,240.265722 139.757653,241.205251 L139.757653,246.678141 L125.182664,246.678141 L125.182664,234.515829 L133.408188,231.883709 L133.535298,231.831546 C133.697182,231.750604 133.934612,231.632488 134.139666,231.417842 C136.204591,230.544266 137.573413,228.430176 137.573413,226.070861 L137.573413,225.893987 C137.573413,224.424437 136.284934,223.135358 134.815383,223.135358 C133.197139,223.135358 131.88048,224.372874 131.88048,225.893987 C131.88048,226.862895 132.29958,227.683709 132.987889,228.193345 C132.791829,228.318056 132.573585,228.415186 132.329559,228.488934 L125.182664,230.769704 L125.182664,207.587863 L139.757653,207.587863 L139.757653,213.326364 C139.757653,214.160368 140.660608,215.11069 141.453242,215.11069 C142.504891,215.11069 143.238167,214.169961 143.238167,213.326364 L143.238167,205.891675 C143.238167,205.047478 142.504891,204.107349 141.453242,204.107349" id="Fill-114" fill="#525353" mask="url(#mask-3)"></path>
                        <path d="M166.934201,228.534621 C165.31176,228.534621 163.808634,229.089225 162.700625,230.095906 L162.406236,230.363315 L162.406236,230.506612 C162.089662,230.895135 161.698141,231.525884 161.698141,232.266355 C161.698141,233.839632 163.245036,234.935649 164.633045,234.935649 C166.127777,234.935649 167.391075,233.713122 167.391075,232.266355 C167.391075,232.166227 167.391075,232.0637 167.388077,231.959375 C168.744908,232.156634 169.752188,233.231666 169.752188,234.567512 L169.752188,246.678261 L155.177199,246.678261 L155.177199,207.587383 L158.615143,207.587383 C159.648805,207.587383 160.399469,206.837319 160.399469,205.803058 C160.399469,204.804771 159.665593,204.107469 158.615143,204.107469 L148.171203,204.107469 C147.120754,204.107469 146.386878,204.804771 146.386878,205.803058 C146.386878,206.837319 147.136942,207.587383 148.171203,207.587383 L151.696685,207.587383 L151.696685,246.678261 L149.587392,246.678261 C148.604694,246.678261 147.891203,247.391152 147.891203,248.37385 C147.891203,249.216248 148.616685,250.158176 149.587392,250.158176 L171.447777,250.158176 C172.495229,250.158176 173.143966,249.232437 173.143966,248.37385 L173.143966,234.390638 L173.143366,234.183186 C173.03964,231.068411 170.25403,228.534621 166.934201,228.534621" id="Fill-115" fill="#525353" mask="url(#mask-3)"></path>
                        <path d="M187.33367,247.82866 C183.193627,247.82866 179.825233,244.540009 179.825233,240.497096 L179.825233,213.856925 C179.825233,209.814612 183.193627,206.525362 187.33367,206.525362 C191.355597,206.525362 194.75337,209.882964 194.75337,213.856925 C194.75337,215.508146 193.449901,216.851786 191.847246,216.851786 C191.243478,216.851786 190.642707,216.615555 190.128874,216.194655 C190.818381,215.652043 191.242278,214.810244 191.242278,213.856925 C191.242278,212.31063 189.992171,211.098895 188.395512,211.098895 C186.849216,211.098895 185.637482,212.31063 185.637482,213.856925 C185.637482,217.438167 188.365533,220.243563 191.847246,220.243563 C192.960651,220.243563 193.924163,220.041507 194.75337,219.6314 L194.75337,240.497096 C194.75337,244.471058 191.355597,247.82866 187.33367,247.82866 M187.33367,203.045448 C181.274398,203.045448 176.344719,207.894784 176.344719,213.856925 L176.344719,240.497096 C176.344719,246.350715 181.480051,251.486047 187.33367,251.486047 C193.343777,251.486047 198.233884,246.556368 198.233884,240.497096 L198.233285,213.740009 C198.040223,207.743092 193.252642,203.045448 187.33367,203.045448" id="Fill-116" fill="#525353" mask="url(#mask-3)"></path>
                        <path d="M230.462124,207.587683 C231.413045,207.587683 232.158313,206.803443 232.158313,205.802758 C232.158313,205.034707 231.401653,204.107169 230.462124,204.107169 L219.930047,204.107169 C218.990518,204.107169 218.233859,205.034707 218.233859,205.802758 C218.233859,206.803443 218.979126,207.587683 219.930047,207.587683 L223.367392,207.587683 L223.367392,226.835135 C222.015957,225.138347 220.412103,223.6646 218.844822,222.224428 C218.524651,221.930638 218.20448,221.636848 217.860925,221.317276 C213.99069,217.989054 209.626407,214.235135 209.104779,207.587683 L212.495358,207.587683 C213.446278,207.587683 214.191546,206.803443 214.191546,205.802758 C214.191546,205.034707 213.434887,204.107169 212.495358,204.107169 L201.963281,204.107169 C201.023752,204.107169 200.267692,205.034707 200.267692,205.802758 C200.267692,206.803443 201.01236,207.587683 201.963281,207.587683 L205.573901,207.587683 L205.404822,246.677961 L201.963281,246.677961 C201.028548,246.677961 200.267692,247.438818 200.267692,248.37355 C200.267692,249.374236 201.01236,250.158475 201.963281,250.158475 L212.495358,250.158475 C213.446278,250.158475 214.191546,249.374236 214.191546,248.37355 C214.191546,247.438818 213.43069,246.677961 212.495358,246.677961 L208.885936,246.677961 L209.040625,217.178433 C210.836343,219.769782 213.1357,221.898261 215.532788,224.004557 C219.56191,227.519246 223.367392,230.839075 223.367392,236.425884 C223.367392,237.807897 222.33433,238.954278 220.999084,239.131152 C221.00388,239.057405 221.006278,238.981859 221.006278,238.903914 C221.006278,237.280874 219.820325,236.057148 218.248248,236.057148 C216.598827,236.057148 215.402081,237.254493 215.402081,238.903914 C215.402081,239.898604 215.901525,240.804557 216.683366,241.24824 C217.833944,242.181173 219.129019,242.635649 220.638141,242.635649 C221.581268,242.635649 222.504009,242.403615 223.367392,241.955135 L223.367392,246.677961 L219.930047,246.677961 C218.995315,246.677961 218.233859,247.438818 218.233859,248.37355 C218.233859,249.374236 218.979126,250.158475 219.930047,250.158475 L230.462124,250.158475 C231.413045,250.158475 232.158313,249.374236 232.158313,248.37355 C232.158313,247.438818 231.397456,246.677961 230.462124,246.677961 L226.847906,246.677961 L226.847906,207.587683 L230.462124,207.587683 Z" id="Fill-117" fill="#525353" mask="url(#mask-3)"></path>
                        <path d="M258.119409,224.757439 C258.637439,224.757439 259.143478,224.596754 259.585362,224.30836 C259.659109,224.581165 259.698081,224.877953 259.698081,225.185533 C259.698081,226.316925 259.12549,227.237268 258.126604,227.717525 L257.191872,228.058081 L256.38245,224.237011 C256.865704,224.565576 257.464077,224.757439 258.119409,224.757439 L258.119409,224.757439 Z M254.061507,229.203263 L247.143649,231.632128 L250.791443,214.254141 L254.061507,229.203263 Z M264.668531,246.678381 L261.148445,246.678381 L257.926946,231.537996 L259.289173,231.08352 L259.40609,231.034955 C261.733028,229.871786 263.178595,227.630587 263.178595,225.185533 C263.178595,222.569602 261.556754,220.203692 259.142878,219.298938 L259.054741,219.273156 L258.934827,219.152642 L258.561893,219.152642 L258.049859,219.15564 C256.959837,219.24018 256.082064,219.75761 255.59761,220.530458 L252.856968,207.587503 L256.43761,207.587503 C257.471872,207.587503 258.221936,206.836839 258.221936,205.803178 C258.221936,204.984163 257.505448,204.107589 256.43761,204.107589 L244.931829,204.107589 C243.870587,204.107589 243.23624,204.969173 243.23624,205.803178 C243.23624,206.854227 243.933542,207.587503 244.931829,207.587503 L248.775084,207.587503 L242.724805,235.708017 L240.397867,246.678381 L237.055255,246.678381 C236.115726,246.678381 235.359666,247.605319 235.359666,248.37397 C235.359666,249.374655 236.104334,250.158296 237.055255,250.158296 L248.649173,250.158296 C249.600094,250.158296 250.345362,249.374655 250.345362,248.37397 C250.345362,247.605319 249.588702,246.678381 248.649173,246.678381 L243.920351,246.678381 L245.808403,237.867075 L246.060822,236.774056 C246.339024,236.05397 246.932,235.497567 247.708445,235.238552 L254.79958,232.744934 L257.802236,246.678381 L253.074612,246.678381 C252.135084,246.678381 251.378424,247.605319 251.378424,248.37397 C251.378424,249.374655 252.123692,250.158296 253.074612,250.158296 L264.668531,250.158296 C265.619452,250.158296 266.364719,249.374655 266.364719,248.37397 C266.364719,247.605319 265.60806,246.678381 264.668531,246.678381 L264.668531,246.678381 Z" id="Fill-118" fill="#525353" mask="url(#mask-3)"></path>
                        <path d="M188.0206,231.213028 C188.0206,232.638809 186.864625,233.794184 185.439443,233.794184 C184.013662,233.794184 182.857687,232.638809 182.857687,231.213028 C182.857687,229.787246 184.013662,228.631872 185.439443,228.631872 C186.864625,228.631872 188.0206,229.787246 188.0206,231.213028" id="Fill-119" fill="#525353" mask="url(#mask-3)"></path>
                        <path d="M188.0206,241.538732 C188.0206,242.964514 186.864625,244.119889 185.439443,244.119889 C184.013662,244.119889 182.857687,242.964514 182.857687,241.538732 C182.857687,240.112951 184.013662,238.957576 185.439443,238.957576 C186.864625,238.957576 188.0206,240.112951 188.0206,241.538732" id="Fill-120" fill="#525353" mask="url(#mask-3)"></path>
                        <path d="M192.814655,236.37582 C192.814655,237.801602 191.658681,238.956976 190.233499,238.956976 C188.807717,238.956976 187.651743,237.801602 187.651743,236.37582 C187.651743,234.950039 188.807717,233.794664 190.233499,233.794664 C191.658681,233.794664 192.814655,234.950039 192.814655,236.37582" id="Fill-121" fill="#525353" mask="url(#mask-3)"></path>
                        <path d="M12.4695332,271.131734 C12.8820385,271.005824 13.207606,270.827152 13.4450364,270.596317 C13.6830664,270.365482 13.847349,270.089679 13.9384839,269.767709 C14.0296188,269.445139 14.0751863,269.081799 14.0751863,268.675889 C14.0751863,268.256188 14.0260214,267.889251 13.9282912,267.573876 C13.8299615,267.2597 13.6584839,266.997088 13.4138587,266.787238 C13.1692334,266.577388 12.8400685,266.416702 12.4275632,266.304582 C12.0150578,266.193062 11.49403,266.136702 10.8638801,266.136702 L8.21976874,266.136702 L8.21976874,271.32 L10.8848651,271.32 C11.5288051,271.32 12.0570278,271.257645 12.4695332,271.131734 L12.4695332,271.131734 Z M10.9058501,264.038201 C12.0390407,264.038201 12.9731734,264.164111 13.7076488,264.415931 C14.4427238,264.667752 15.0195118,265.002912 15.439212,265.423212 C15.8589122,265.842912 16.1527024,266.329165 16.3205824,266.88137 C16.4884625,267.434176 16.5724026,268.011563 16.5724026,268.612934 C16.5724026,269.256874 16.4884625,269.872034 16.3205824,270.460214 C16.1527024,271.047195 15.8553148,271.562227 15.4284197,272.002313 C15.0021242,272.443597 14.4247366,272.793148 13.6968565,273.051563 C12.969576,273.311178 12.0534304,273.440685 10.9478201,273.440685 L8.21976874,273.440685 L8.21976874,279.022698 L5.72195289,279.022698 L5.72195289,264.038201 L10.9058501,264.038201 Z" id="Fill-122" fill="#398EB6" mask="url(#mask-3)"></path>
                        <polygon id="Fill-123" fill="#398EB6" mask="url(#mask-3)" points="21.2364711 276.818852 28.6657645 276.818852 28.3509893 279.022878 18.6972848 279.022878 18.6972848 264.038381 21.2364711 264.038381"></polygon>
                        <path d="M39.9640343,275.696454 C40.7057045,274.681979 41.0762398,273.29337 41.0762398,271.53063 C41.0762398,270.64866 40.9821071,269.858424 40.793242,269.158724 C40.6043769,268.459623 40.3279743,267.864248 39.9640343,267.374998 C39.6006938,266.885148 39.1456188,266.507418 38.6000086,266.241208 C38.0543983,265.975597 37.4176531,265.842493 36.6903726,265.842493 C35.9624925,265.842493 35.3263469,265.975597 34.780137,266.241208 C34.2345268,266.507418 33.776454,266.885148 33.4059186,267.374998 C33.0347837,267.864248 32.7583812,268.459623 32.5767109,269.158724 C32.3950407,269.858424 32.3039058,270.64866 32.3039058,271.53063 C32.3039058,273.29337 32.6708437,274.681979 33.4059186,275.696454 C34.140394,276.71033 35.235212,277.217567 36.6903726,277.217567 C38.1311435,277.217567 39.2229636,276.71033 39.9640343,275.696454 M33.8046338,278.865191 C32.9442484,278.508445 32.2061756,277.994612 31.5904154,277.323092 C30.9746552,276.651572 30.5027923,275.829559 30.1736274,274.857054 C29.8450621,273.884548 29.6807794,272.782535 29.6807794,271.551615 C29.6807794,270.320094 29.84806,269.214484 30.1838201,268.235383 C30.5201799,267.256283 30.9956403,266.427075 31.6114004,265.74836 C32.2271606,265.069645 32.9688308,264.552214 33.8358116,264.194869 C34.7033919,263.838724 35.6615075,263.660051 36.7113576,263.660051 C37.7743983,263.660051 38.7397088,263.838724 39.6072891,264.194869 C40.4748694,264.552214 41.2093448,265.066647 41.8113148,265.738167 C42.4126852,266.409687 42.8779529,267.2317 43.2065182,268.204206 C43.5356831,269.176111 43.6999657,270.278124 43.6999657,271.509645 C43.6999657,272.754955 43.5392805,273.862964 43.2173105,274.835469 C42.8953405,275.808574 42.4336702,276.633585 41.8322998,277.3123 C41.2303298,277.991015 40.4994518,278.508445 39.6390664,278.865191 C38.7780814,279.222535 37.8025782,279.400608 36.7113576,279.400608 C35.6339272,279.400608 34.6650193,279.222535 33.8046338,278.865191" id="Fill-124" fill="#398EB6" mask="url(#mask-3)"></path>
                        <polygon id="Fill-125" fill="#398EB6" mask="url(#mask-3)" points="48.6340814 264.038141 55.5177645 274.867606 55.5177645 264.038141 57.9945953 264.038141 57.9945953 279.022638 55.6436745 279.022638 48.7390064 268.235143 48.7390064 279.022638 46.2837602 279.022638 46.2837602 264.038141"></polygon>
                        <polygon id="Fill-126" fill="#398EB6" mask="url(#mask-3)" points="71.1329507 264.038141 71.1329507 266.220582 63.7030578 266.220582 63.7030578 270.208334 70.7132505 270.208334 70.7132505 272.41176 63.7030578 272.41176 63.7030578 276.840197 71.531666 276.840197 71.2378758 279.022638 61.1638715 279.022638 61.1638715 264.038141"></polygon>
                        <path d="M90.3971306,276.126767 C90.1033405,276.784497 89.6974304,277.357687 89.18,277.847537 C88.66197,278.337388 88.0324197,278.718116 87.2907495,278.990921 C86.5496788,279.263726 85.6886938,279.400428 84.7095931,279.400428 C83.6321627,279.400428 82.6704497,279.218758 81.8238544,278.854818 C80.9772591,278.490878 80.2637687,277.96985 79.6833833,277.291135 C79.1023983,276.613019 78.6617131,275.787409 78.3607281,274.814904 C78.0603426,273.842398 77.9098501,272.754775 77.9098501,271.551435 C77.9098501,270.319914 78.0741328,269.214904 78.4026981,268.235203 C78.731863,267.256103 79.196531,266.426895 79.7985011,265.74818 C80.3998715,265.070064 81.1205567,264.552034 81.9605567,264.195289 C82.7999572,263.838544 83.7232976,263.659872 84.7305782,263.659872 C85.6677088,263.659872 86.4795289,263.778587 87.1648394,264.017216 C87.8507495,264.254647 88.4347323,264.594004 88.9173876,265.03469 C89.4000428,265.475375 89.7849679,266.003597 90.0715632,266.619358 C90.358758,267.235118 90.5722056,267.920428 90.7119058,268.675889 L88.2140899,269.032634 C88.1025696,268.528994 87.9622698,268.081113 87.7943897,267.689593 C87.6265096,267.297473 87.4064668,266.96591 87.1336617,266.693105 C86.8608565,266.4203 86.5286938,266.20985 86.1365739,266.062955 C85.7450535,265.91666 85.2761884,265.842912 84.7305782,265.842912 C84.0590578,265.842912 83.4642827,265.975418 82.9468522,266.241627 C82.4288223,266.507238 81.9917345,266.888565 81.6349893,267.38561 C81.2782441,267.882056 81.0090364,268.479829 80.8267666,269.179529 C80.6450964,269.879229 80.5539615,270.662869 80.5539615,271.53045 C80.5539615,272.41182 80.6486938,273.202056 80.8375589,273.901756 C81.026424,274.601456 81.3028266,275.199229 81.666167,275.696274 C82.0301071,276.192719 82.4671949,276.57045 82.97803,276.829465 C83.4888651,277.08848 84.072848,277.217388 84.7305782,277.217388 C85.3181585,277.217388 85.8182013,277.140642 86.2313062,276.987152 C86.6438116,276.833062 86.9897645,276.616017 87.2697645,276.336617 C87.5497645,276.056617 87.7704069,275.717259 87.9310921,275.318544 C88.0917773,274.919829 88.2074946,274.468351 88.2776445,273.96531 L90.9637259,273.96531 C90.8797859,274.748351 90.6909208,275.468437 90.3971306,276.126767" id="Fill-127" fill="#398EB6" mask="url(#mask-3)"></path>
                        <path d="M103.021233,275.696454 C103.762904,274.681979 104.133439,273.29337 104.133439,271.53063 C104.133439,270.64866 104.039306,269.858424 103.850441,269.158724 C103.661576,268.459623 103.385173,267.864248 103.021233,267.374998 C102.657293,266.885148 102.202818,266.507418 101.657208,266.241208 C101.111597,265.975597 100.474852,265.842493 99.7475717,265.842493 C99.0196916,265.842493 98.3829465,265.975597 97.8373362,266.241208 C97.2917259,266.507418 96.8336531,266.885148 96.4631178,267.374998 C96.0919829,267.864248 95.8155803,268.459623 95.6339101,269.158724 C95.4516403,269.858424 95.3611049,270.64866 95.3611049,271.53063 C95.3611049,273.29337 95.7280428,274.681979 96.4631178,275.696454 C97.1975931,276.71033 98.2924111,277.217567 99.7475717,277.217567 C101.188343,277.217567 102.279563,276.71033 103.021233,275.696454 M96.861833,278.865191 C96.0014475,278.508445 95.2627752,277.994612 94.6476146,277.323092 C94.0318544,276.651572 93.5593919,275.829559 93.2308266,274.857054 C92.9022612,273.884548 92.737379,272.782535 92.737379,271.551615 C92.737379,270.320094 92.9052591,269.214484 93.2410193,268.235383 C93.577379,267.256283 94.0528394,266.427075 94.6685996,265.74836 C95.2837602,265.069645 96.02603,264.552214 96.8930107,264.194869 C97.760591,263.838724 98.7187066,263.660051 99.7685567,263.660051 C100.831597,263.660051 101.796908,263.838724 102.664488,264.194869 C103.532069,264.552214 104.266544,265.066647 104.868514,265.738167 C105.469285,266.409687 105.935152,267.2317 106.263717,268.204206 C106.592882,269.176111 106.757165,270.278124 106.757165,271.509645 C106.757165,272.754955 106.59588,273.862964 106.27391,274.835469 C105.95254,275.808574 105.490869,276.633585 104.889499,277.3123 C104.287529,277.991015 103.556651,278.508445 102.696266,278.865191 C101.835281,279.222535 100.859777,279.400608 99.7685567,279.400608 C98.6911263,279.400608 97.7222184,279.222535 96.861833,278.865191" id="Fill-128" fill="#398EB6" mask="url(#mask-3)"></path>
                        <polygon id="Fill-129" fill="#398EB6" mask="url(#mask-3)" points="111.69134 264.038141 118.575024 274.867606 118.575024 264.038141 121.051255 264.038141 121.051255 279.022638 118.700934 279.022638 111.796266 268.235143 111.796266 279.022638 109.341019 279.022638 109.341019 264.038141"></polygon>
                        <polygon id="Fill-130" fill="#398EB6" mask="url(#mask-3)" points="133.791135 266.220403 126.759957 266.220403 126.759957 270.459974 133.371435 270.459974 133.371435 272.6634 126.759957 272.6634 126.759957 279.023058 124.220771 279.023058 124.220771 264.037961 133.791135 264.037961"></polygon>
                        <polygon id="Fill-131" fill="#398EB6" mask="url(#mask-3)" points="145.894989 264.038141 145.894989 266.220582 138.465696 266.220582 138.465696 270.208334 145.475289 270.208334 145.475289 272.41176 138.465696 272.41176 138.465696 276.840197 146.293704 276.840197 145.999914 279.022638 135.92651 279.022638 135.92651 264.038141"></polygon>
                        <path d="M155.151178,270.785122 C155.528908,270.666407 155.826296,270.497927 156.04334,270.281482 C156.259786,270.065036 156.413876,269.802424 156.505011,269.494844 C156.596146,269.186664 156.641113,268.844308 156.641113,268.466578 C156.641113,268.116428 156.588951,267.798655 156.484026,267.51146 C156.378501,267.224865 156.204026,266.97964 155.9594,266.776385 C155.714176,266.57433 155.389208,266.416642 154.983298,266.304522 C154.577388,266.193002 154.073747,266.136642 153.472377,266.136642 L150.911606,266.136642 L150.911606,270.963794 L153.724197,270.963794 C154.297987,270.963794 154.773448,270.903837 155.151178,270.785122 M156.337131,264.436857 C157.071606,264.702467 157.651991,265.049019 158.078887,265.475914 C158.505782,265.90221 158.80257,266.374672 158.971049,266.892103 C159.138929,267.409533 159.222869,267.920968 159.222869,268.424009 C159.222869,269.403709 159.030407,270.222724 158.645482,270.879854 C158.260557,271.537585 157.641799,272.069405 156.788009,272.474715 L159.89439,279.022638 L157.124368,279.022638 L154.437687,273.062296 C154.311777,273.076086 154.178672,273.086878 154.038972,273.094073 C153.899272,273.100668 153.752377,273.104266 153.598287,273.104266 L150.911606,273.104266 L150.911606,279.022638 L148.41439,279.022638 L148.41439,264.038141 L153.535332,264.038141 C154.668522,264.038141 155.602056,264.171246 156.337131,264.436857" id="Fill-132" fill="#398EB6" mask="url(#mask-3)"></path>
                        <polygon id="Fill-133" fill="#398EB6" mask="url(#mask-3)" points="171.838758 264.038141 171.838758 266.220582 164.408865 266.220582 164.408865 270.208334 171.419058 270.208334 171.419058 272.41176 164.408865 272.41176 164.408865 276.840197 172.237473 276.840197 171.943683 279.022638 161.869679 279.022638 161.869679 264.038141"></polygon>
                        <polygon id="Fill-134" fill="#398EB6" mask="url(#mask-3)" points="176.70854 264.038141 183.592223 274.867606 183.592223 264.038141 186.068454 264.038141 186.068454 279.022638 183.718133 279.022638 176.813465 268.235143 176.813465 279.022638 174.358218 279.022638 174.358218 264.038141"></polygon>
                        <path d="M201.167469,276.126767 C200.873679,276.784497 200.467769,277.357687 199.950338,277.847537 C199.432308,278.337388 198.802758,278.718116 198.061088,278.990921 C197.319418,279.263726 196.459032,279.400428 195.479931,279.400428 C194.402501,279.400428 193.440188,279.218758 192.594193,278.854818 C191.747597,278.490878 191.034107,277.96985 190.453122,277.291135 C189.872737,276.613019 189.432051,275.787409 189.131066,274.814904 C188.830081,273.842398 188.679589,272.754775 188.679589,271.551435 C188.679589,270.319914 188.844471,269.214904 189.173036,268.235203 C189.501602,267.256103 189.966869,266.426895 190.568839,265.74818 C191.17021,265.070064 191.890895,264.552034 192.730296,264.195289 C193.569696,263.838544 194.493036,263.659872 195.500916,263.659872 C196.438047,263.659872 197.249867,263.778587 197.935178,264.017216 C198.620488,264.254647 199.205071,264.594004 199.687726,265.03469 C200.170381,265.475375 200.555306,266.003597 200.841901,266.619358 C201.129096,267.235118 201.341944,267.920428 201.481645,268.675889 L198.984428,269.032634 C198.872908,268.528994 198.732608,268.081113 198.564728,267.689593 C198.396848,267.297473 198.176805,266.96591 197.904,266.693105 C197.631195,266.4203 197.298433,266.20985 196.906912,266.062955 C196.514792,265.91666 196.046527,265.842912 195.500916,265.842912 C194.829396,265.842912 194.234621,265.975418 193.716591,266.241627 C193.199161,266.507238 192.761473,266.888565 192.405328,267.38561 C192.048582,267.882056 191.778775,268.479829 191.597105,269.179529 C191.414835,269.879229 191.3243,270.662869 191.3243,271.53045 C191.3243,272.41182 191.418433,273.202056 191.607897,273.901756 C191.796762,274.601456 192.072565,275.199229 192.436505,275.696274 C192.800445,276.192719 193.237533,276.57045 193.748368,276.829465 C194.259203,277.08848 194.843186,277.217388 195.500916,277.217388 C196.088497,277.217388 196.58854,277.140642 197.001645,276.987152 C197.41415,276.833062 197.760103,276.616017 198.040103,276.336617 C198.320103,276.056617 198.540146,275.717259 198.70143,275.318544 C198.862116,274.919829 198.977833,274.468351 199.047383,273.96531 L201.734064,273.96531 C201.650124,274.748351 201.461259,275.468437 201.167469,276.126767" id="Fill-135" fill="#398EB6" mask="url(#mask-3)"></path>
                        <polygon id="Fill-136" fill="#398EB6" mask="url(#mask-3)" points="214.009636 264.038141 214.009636 266.220582 206.580343 266.220582 206.580343 270.208334 213.589936 270.208334 213.589936 272.41176 206.580343 272.41176 206.580343 276.840197 214.408351 276.840197 214.114561 279.022638 204.041156 279.022638 204.041156 264.038141"></polygon>
                        <path d="M221.248146,277.889807 C221.737396,277.455717 222.300394,276.955675 222.937139,276.389079 C223.573884,275.822484 224.213627,275.259486 224.857567,274.700086 C225.571058,274.084325 226.197011,273.51773 226.735426,273.0003 C227.273842,272.48227 227.721722,271.979229 228.078467,271.488779 C228.435212,270.999529 228.70442,270.506681 228.88669,270.009636 C229.06836,269.513191 229.159495,268.978373 229.159495,268.404582 C229.159495,267.355332 228.88669,266.571692 228.341079,266.054261 C227.795469,265.536231 227.019024,265.277816 226.011743,265.277816 C225.409773,265.277816 224.902535,265.343769 224.49063,265.476874 C224.077525,265.610578 223.730972,265.795246 223.451572,266.033276 C223.171572,266.271306 222.944334,266.564497 222.769859,266.914047 C222.594784,267.264197 222.437096,267.649122 222.297396,268.068822 L221.185191,267.837388 C221.29731,267.404497 221.464591,266.963212 221.688831,266.515332 C221.912471,266.068051 222.213456,265.671135 222.591186,265.323983 C222.968916,264.97743 223.441379,264.693833 224.007375,264.47439 C224.57397,264.254946 225.262878,264.144026 226.074698,264.144026 C226.773799,264.144026 227.396754,264.245353 227.942364,264.448608 C228.487974,264.651263 228.946047,264.937259 229.317182,265.307794 C229.687717,265.67773 229.970715,266.113619 230.166775,266.61666 C230.362835,267.1197 230.460565,267.664711 230.460565,268.251092 C230.460565,268.908223 230.362835,269.522784 230.166775,270.094775 C229.970715,270.667966 229.673328,271.236959 229.274612,271.802955 C228.875897,272.368351 228.36866,272.951734 227.753499,273.552505 C227.137739,274.153276 226.410458,274.809807 225.571058,275.522099 C225.136968,275.884839 224.682493,276.272762 224.207032,276.684668 C223.730972,277.097173 223.283692,277.484497 222.863991,277.847837 L230.586475,277.847837 L230.334655,279.022998 L221.248146,279.022998 L221.248146,277.889807 Z" id="Fill-137" fill="#398EB6" mask="url(#mask-3)"></path>
                        <path d="M237.90173,278.267478 C238.615221,278.267478 239.216591,278.120582 239.706441,277.826193 C240.195692,277.531803 240.594407,277.107906 240.902587,276.554501 C241.210167,276.001096 241.43021,275.321182 241.563315,274.515358 C241.69642,273.709533 241.762972,272.795186 241.762972,271.772317 C241.762972,270.763837 241.69642,269.856685 241.563315,269.050861 C241.43021,268.245036 241.210167,267.562124 240.902587,267.001525 C240.594407,266.440325 240.195692,266.009833 239.706441,265.708848 C239.216591,265.407863 238.615221,265.256771 237.90173,265.256771 C237.18824,265.256771 236.582672,265.407863 236.086827,265.708848 C235.589782,266.009833 235.187469,266.440325 234.879889,267.001525 C234.571709,267.562124 234.351666,268.245036 234.218561,269.050861 C234.085456,269.856685 234.019503,270.763837 234.019503,271.772317 C234.019503,272.795186 234.085456,273.709533 234.218561,274.515358 C234.351666,275.321182 234.571709,276.001096 234.879889,276.554501 C235.187469,277.107906 235.589782,277.531803 236.086827,277.826193 C236.582672,278.120582 237.18824,278.267478 237.90173,278.267478 M237.85976,279.400668 C236.222929,279.400668 234.949439,278.788505 234.040488,277.56418 C233.130938,276.340454 232.676463,274.41343 232.676463,271.783109 C232.676463,270.468248 232.798775,269.327863 233.0434,268.361953 C233.288625,267.397242 233.641773,266.599812 234.103443,265.970261 C234.565113,265.340111 235.120916,264.875443 235.771452,264.574458 C236.421987,264.274073 237.14627,264.12358 237.9437,264.12358 C238.754921,264.12358 239.478604,264.274073 240.115349,264.574458 C240.752094,264.875443 241.29051,265.340111 241.731794,265.970261 C242.17188,266.599812 242.510638,267.397242 242.749268,268.361953 C242.986698,269.327863 243.106013,270.468248 243.106013,271.783109 C243.106013,273.09797 242.986698,274.234758 242.749268,275.192874 C242.510638,276.151589 242.168283,276.941824 241.721002,277.56418 C241.273122,278.187135 240.723914,278.648805 240.073379,278.94979 C239.422844,279.250176 238.68537,279.400668 237.85976,279.400668" id="Fill-138" fill="#398EB6" mask="url(#mask-3)"></path>
                        <polygon id="Fill-139" fill="#398EB6" mask="url(#mask-3)" points="249.569396 265.802321 245.938989 268.005747 245.414364 267.061422 249.569396 264.522236 250.828497 264.522236 250.828497 279.022878 249.569396 279.022878"></polygon>
                        <path d="M257.45958,279.022758 C258.144891,276.700617 258.932128,274.434236 259.820694,272.223615 C260.70866,270.013593 261.740522,267.831152 262.915683,265.676291 L254.584634,265.676291 L254.584634,264.543101 L264.258724,264.543101 L264.258724,265.676291 C263.111143,267.816762 262.082878,269.992009 261.173927,272.20263 C260.264377,274.41385 259.495126,276.686827 258.865576,279.022758 L257.45958,279.022758 Z" id="Fill-140" fill="#398EB6" mask="url(#mask-3)"></path>
                        <polygon id="Fill-141" fill="#DBBC9A" mask="url(#mask-3)" points="121.304934 65.5752206 109.313499 65.5752206 109.313499 74.5687966 121.304934 74.5687966 121.304934 86.5602313 130.29851 86.5602313 130.29851 74.5687966 130.29851 65.5752206"></polygon>
                        <polygon id="Fill-142" fill="#DBBC9A" mask="url(#mask-3)" points="121.304934 116.538818 109.313499 116.538818 109.313499 125.532394 121.304934 125.532394 130.29851 125.532394 130.29851 116.538818 130.29851 104.547383 121.304934 104.547383"></polygon>
                        <polygon id="Fill-143" fill="#DBBC9A" mask="url(#mask-3)" points="70.3413362 65.5752206 70.3413362 74.5687966 70.3413362 86.5602313 79.3349122 86.5602313 79.3349122 74.5687966 91.3263469 74.5687966 91.3263469 65.5752206 79.3349122 65.5752206"></polygon>
                        <polygon id="Fill-144" fill="#DBBC9A" mask="url(#mask-3)" points="79.3349122 104.547383 70.3413362 104.547383 70.3413362 116.538818 70.3413362 125.532394 79.3349122 125.532394 91.3263469 125.532394 91.3263469 116.538818 79.3349122 116.538818"></polygon>
                    </g>
                </g>
            </g>
        </g>
    </g>
</svg>