<svg xmlns="http://www.w3.org/2000/svg" width="700" height="200" viewBox="0 0 197.556 56.444"><defs><filter id="d" color-interpolation-filters="sRGB"><feFlood flood-opacity=".498" flood-color="#000" result="flood"/><feComposite in="flood" in2="SourceGraphic" operator="in" result="composite1"/><feGaussianBlur in="composite1" stdDeviation=".8" result="blur"/><feOffset dx="-.5" dy=".5" result="offset"/><feComposite in="offset" in2="SourceGraphic" operator="out" result="composite2"/></filter><filter id="c" color-interpolation-filters="sRGB"><feFlood flood-opacity=".498" flood-color="#000" result="flood"/><feComposite in="flood" in2="SourceGraphic" operator="in" result="composite1"/><feGaussianBlur in="composite1" stdDeviation=".8" result="blur"/><feOffset dx="-.5" dy=".5" result="offset"/><feComposite in="offset" in2="SourceGraphic" operator="out" result="composite2"/></filter><filter id="b" color-interpolation-filters="sRGB"><feFlood flood-opacity=".498" flood-color="#000" result="flood"/><feComposite in="flood" in2="SourceGraphic" operator="in" result="composite1"/><feGaussianBlur in="composite1" stdDeviation=".8" result="blur"/><feOffset dx="-.5" dy=".5" result="offset"/><feComposite in="offset" in2="SourceGraphic" operator="out" result="composite2"/></filter><filter id="a" color-interpolation-filters="sRGB"><feFlood flood-opacity=".498" flood-color="#000" result="flood"/><feComposite in="flood" in2="SourceGraphic" operator="in" result="composite1"/><feGaussianBlur in="composite1" stdDeviation=".8" result="blur"/><feOffset dx="-.5" dy=".5" result="offset"/><feComposite in="offset" in2="SourceGraphic" operator="out" result="composite2"/></filter></defs><g transform="matrix(.55677 0 0 .55677 12.754 33.542)" fill="#0b2228" filter="url(#a)"><path style="line-height:125%;-inkscape-font-specification:Voltage" d="M126.916-12.62q0-2.176 1.216-3.392 1.28-1.28 3.52-1.28h6.4q4.608 0 8.512 2.304 3.968 2.24 6.336 6.208 2.368 3.968 2.368 8.64 0 3.264-1.28 6.528-.256.768-.576 1.408-.064.128-.832 1.408-.512.768-.96 1.344-.768.896-1.088 1.28-2.24 2.24-5.44 3.712-3.392 1.344-6.784 1.344-3.264 0-5.312-1.6-1.984-1.664-1.984-3.584 0-2.176 1.92-3.648 1.984-1.472 5.248-1.472 1.728 0 3.456-.96 1.792-1.024 2.624-2.432 1.024-1.408 1.024-3.328 0-1.792-.96-3.456t-2.496-2.496q-1.536-.96-3.392-.96h-4.928q-1.536 0-1.856-1.856.32-1.856 1.664-1.856h5.248q2.816 0 5.184 1.408 2.432 1.408 3.84 3.904 1.472 2.496 1.472 5.312 0 2.944-1.472 5.44-1.472 2.432-3.84 3.904-2.304 1.408-5.312 1.408-2.496 0-2.752 1.216.32 1.28 2.752 1.28 1.728 0 3.392-.512 1.728-.512 3.392-1.472 3.008-1.728 4.736-4.736 1.728-3.008 1.728-6.528 0-3.456-1.92-6.528-1.856-3.136-4.928-4.992-3.2-1.728-6.784-1.728h-5.888q-.896 0-1.28.448-.32.448-.32 1.28v41.408q0 2.368-1.472 3.776-1.472 1.344-3.776 1.344-2.048 0-3.52-1.344-1.408-1.408-1.408-3.776v-42.496q0-1.152-1.216-1.152-1.28 0-1.28 1.28v44.864q0 .896-.576 1.536-.512.576-1.408.576-.704 0-1.216-.576-.512-.64-.512-1.408v-44.864q0-2.496 1.472-3.904 1.472-1.472 3.776-1.472 2.176 0 3.648 1.28t1.472 3.584v42.496q0 1.152 1.088 1.472 1.28-.192 1.28-1.344z" font-weight="400" font-family="Voltage" letter-spacing="0" word-spacing="0"/></g><g transform="matrix(.39829 0 0 .39829 263.686 -561.262)" fill="#0b2228" filter="url(#b)" font-weight="400" font-family="Voltage" letter-spacing="0" word-spacing="0"><path d="M-463.455 1455.833c-.441 0-.856.138-1.242.415-.387.386-.608.883-.663 1.49v5.171c0 3.368-4.877 3.36-4.888-.165v-5.337c0-2.375.552-4.059 1.657-5.053 1.27-.939 3.038-1.409 5.302-1.409h46.925c3.37-.042 3.572 4.97.331 4.888zM-441.978 1541.817h35.665c4.03 0 7.266-1.1 9.709-3.298 2.443-2.259 3.664-5.404 3.664-9.434v-43.07c0-.917-.244-1.741-.733-2.474-.488-.732-1.13-1.099-1.923-1.099-1.65 0-2.473 1.252-2.473 3.756v42.43c0 2.686-.855 4.701-2.565 6.044-1.771 1.283-4.091 1.924-6.961 1.924h-35.115c-2.705.066-2.741 5.272.732 5.22z" style="line-height:125%;-inkscape-font-specification:Voltage"/><path d="M-419.358 1452.708c1.213-1.108 2.611-1.662 4.194-1.662 2.742 0 4.826 1.266 6.25 3.798l14.796 24.923c.738 1.371 1.107 3.165 1.107 5.38v1.266l-4.826-1.582c0-.58-.29-1.61-.87-3.086l-15.033-25.002c-.317-.633-.818-.95-1.504-.95l-4.114-3.085z" style="line-height:125%;-inkscape-font-specification:Voltage"/></g><g transform="matrix(.39829 0 0 .39829 263.686 -561.262)" fill="#216778" filter="url(#c)" font-weight="400" font-family="Voltage" letter-spacing="0" word-spacing="0"><path style="line-height:125%;-inkscape-font-specification:Voltage" d="M-445.705 1439.833c-.441 0-.856.138-1.242.415-.387.386-.608.883-.663 1.49v5.171c0 3.368-4.877 3.36-4.888-.165v-5.337c0-2.375.552-4.059 1.657-5.053 1.27-.939 3.038-1.409 5.302-1.409h46.925c3.37-.042 3.572 4.97.331 4.888zM-387.978 1525.817h1.665c4.03 0 5.016-1.1 7.459-3.298 2.443-2.259 3.664-5.404 3.664-9.434v-43.07c0-.917-.244-1.741-.733-2.474-.488-.732-1.13-1.099-1.923-1.099-1.65 0-2.473 1.252-2.473 3.756v42.43c0 2.686-.855 4.701-2.565 6.044-1.771 1.283-1.841 1.924-4.711 1.924h-1.115c-2.705.066-2.741 5.272.732 5.22z"/><path style="line-height:125%;-inkscape-font-specification:Voltage" d="M-401.608 1436.708c1.213-1.108 2.611-1.662 4.194-1.662 2.742 0 4.826 1.266 6.25 3.798l14.796 24.923c.738 1.371 1.107 3.165 1.107 5.38v1.266l-4.826-1.582c0-.58-.29-1.61-.87-3.086l-15.033-25.002c-.317-.633-.818-.95-1.504-.95l-4.114-3.085z"/></g><g transform="matrix(.39829 0 0 .39829 263.686 -561.262)" fill="#37abc8" filter="url(#d)" font-weight="400" font-family="Voltage" letter-spacing="0" word-spacing="0"><path d="M-428.351 1423.833c-.442 0-.856.138-1.243.415-.386.386-.607.883-.662 1.49v5.171c0 3.368-4.878 3.36-4.888-.165v-5.337c0-2.375.552-4.059 1.657-5.053 1.27-.939 3.037-1.409 5.302-1.409h46.925c3.369-.042 3.572 4.97.33 4.888zM-370.624 1509.817h1.665c4.03 0 5.016-1.1 7.459-3.298 2.442-2.259 3.663-5.404 3.663-9.434v-43.07c0-.917-.244-1.741-.732-2.474-.489-.732-1.13-1.099-1.924-1.099-1.649 0-2.473 1.252-2.473 3.756v42.43c0 2.686-.855 4.701-2.565 6.044-1.77 1.283-1.84 1.924-4.71 1.924h-1.116c-2.704.066-2.74 5.272.733 5.22z" style="line-height:125%;-inkscape-font-specification:Voltage"/><path d="M-384.254 1420.708c1.213-1.108 2.61-1.662 4.193-1.662 2.743 0 4.827 1.266 6.25 3.798l14.796 24.923c.739 1.371 1.108 3.165 1.108 5.38v1.266l-4.826-1.582c0-.58-.29-1.61-.87-3.086l-15.034-25.002c-.316-.633-.817-.95-1.503-.95l-4.114-3.085z" style="line-height:125%;-inkscape-font-specification:Voltage"/></g><path style="line-height:125%;-inkscape-font-specification:Voltage" d="M83.417 26.516q0-1.212.677-1.889.713-.712 1.96-.712h3.564q2.565 0 4.739 1.282 2.209 1.247 3.527 3.457 1.319 2.209 1.319 4.81 0 1.818-.713 3.635-.142.427-.32.784-.036.071-.464.784-.285.427-.534.748-.428.499-.606.713-1.247 1.247-3.029 2.066-1.888.749-3.777.749-1.817 0-2.958-.891-1.104-.927-1.104-1.996 0-1.211 1.069-2.03 1.104-.82 2.922-.82.962 0 1.924-.535.998-.57 1.461-1.354.57-.784.57-1.853 0-.997-.534-1.924-.535-.926-1.39-1.39-.855-.534-1.889-.534h-2.743q-.856 0-1.034-1.034.178-1.033.927-1.033h2.922q1.567 0 2.886.784 1.354.784 2.138 2.174.82 1.39.82 2.957 0 1.64-.82 3.03-.82 1.353-2.138 2.173-1.283.784-2.958.784-1.39 0-1.532.677.178.712 1.532.712.962 0 1.889-.285.962-.285 1.888-.82 1.675-.961 2.637-2.636.962-1.675.962-3.635 0-1.924-1.069-3.634-1.033-1.746-2.743-2.78-1.782-.962-3.777-.962h-3.279q-.499 0-.712.25-.179.249-.179.712v23.055q0 1.319-.82 2.102-.819.749-2.102.749-1.14 0-1.96-.749-.783-.783-.783-2.102v-23.66q0-.642-.677-.642-.713 0-.713.713v24.979q0 .499-.32.855-.286.32-.785.32-.392 0-.677-.32-.285-.356-.285-.784V26.587q0-1.39.82-2.174.82-.82 2.102-.82 1.212 0 2.031.713.82.713.82 1.996v23.66q0 .642.606.82.712-.107.712-.748z" font-weight="400" font-family="Voltage" letter-spacing="0" word-spacing="0" fill="#37abc8"/><g fill="#37abc8" font-weight="400" font-family="Voltage" letter-spacing="0" word-spacing="0"><path d="M79.097 18.579a.836.836 0 00-.494.165.93.93 0 00-.264.594v2.06c0 1.34-1.943 1.337-1.947-.067v-2.125c0-.946.22-1.617.66-2.013.506-.374 1.21-.561 2.111-.561h18.69c1.342-.017 1.423 1.98.132 1.947zM87.651 52.825h14.205c1.605 0 2.894-.438 3.867-1.313.973-.9 1.46-2.153 1.46-3.758V30.6c0-.364-.098-.693-.292-.984-.195-.292-.45-.438-.766-.438-.657 0-.985.498-.985 1.495v16.9c0 1.07-.34 1.872-1.022 2.407-.705.511-1.63.767-2.772.767H87.36c-1.078.026-1.092 2.1.291 2.079z" style="line-height:125%;-inkscape-font-specification:Voltage"/><path d="M96.66 17.334c.484-.441 1.04-.662 1.67-.662 1.093 0 1.923.504 2.49 1.513l5.893 9.926c.294.546.441 1.26.441 2.143v.504l-1.922-.63c0-.231-.115-.64-.346-1.229l-5.988-9.958c-.126-.252-.326-.378-.599-.378l-1.638-1.23z" style="line-height:125%;-inkscape-font-specification:Voltage"/></g><g fill="#216778" font-weight="400" font-family="Voltage" letter-spacing="0" word-spacing="0"><path style="line-height:125%;-inkscape-font-specification:Voltage" d="M86.167 12.206a.836.836 0 00-.495.165.93.93 0 00-.264.594v2.06c0 1.34-1.942 1.337-1.947-.066v-2.126c0-.946.22-1.617.66-2.013.506-.374 1.21-.56 2.112-.56h18.69c1.342-.017 1.422 1.979.132 1.946zM109.159 46.452h.663c1.605 0 1.998-.437 2.97-1.313.974-.9 1.46-2.152 1.46-3.757V24.227c0-.365-.097-.693-.292-.985-.194-.292-.45-.438-.766-.438-.657 0-.985.499-.985 1.496v16.9c0 1.07-.34 1.872-1.021 2.407-.706.51-.734.766-1.877.766h-.444c-1.077.026-1.091 2.1.292 2.08z"/><path style="line-height:125%;-inkscape-font-specification:Voltage" d="M103.73 10.961c.483-.44 1.04-.662 1.67-.662 1.093 0 1.923.505 2.49 1.513l5.893 9.927c.294.546.441 1.26.441 2.143v.504l-1.922-.63c0-.232-.116-.641-.347-1.23l-5.987-9.958c-.126-.252-.326-.378-.6-.378l-1.638-1.229z"/></g><g fill="#0b2228" font-weight="400" font-family="Voltage" letter-spacing="0" word-spacing="0"><path d="M93.079 5.834a.836.836 0 00-.495.165.93.93 0 00-.264.593v2.06c0 1.341-1.943 1.338-1.947-.066V6.46c0-.945.22-1.616.66-2.012.506-.374 1.21-.561 2.112-.561h18.69c1.341-.017 1.422 1.98.131 1.947zM116.07 40.08H116.735c1.605 0 1.998-.438 2.97-1.314.973-.9 1.46-2.152 1.46-3.757V17.854c0-.365-.097-.693-.292-.985-.195-.292-.45-.437-.766-.437-.657 0-.985.498-.985 1.495v16.9c0 1.07-.34 1.872-1.022 2.407-.705.51-.733.766-1.876.766h-.444c-1.077.027-1.092 2.1.292 2.08z" style="line-height:125%;-inkscape-font-specification:Voltage"/><path d="M110.642 4.589c.483-.442 1.04-.662 1.67-.662 1.093 0 1.922.504 2.49 1.512l5.893 9.927c.294.546.44 1.26.44 2.143v.504l-1.922-.63c0-.231-.115-.64-.346-1.23l-5.988-9.957c-.126-.252-.325-.378-.598-.378l-1.639-1.23z" style="line-height:125%;-inkscape-font-specification:Voltage"/></g></svg>