<svg width="680px" height="653px" viewBox="0 1 680 653" version="1.1" xmlns="http://www.w3.org/2000/svg" xmlns:xlink="http://www.w3.org/1999/xlink">
    <!-- Generator: Sketch 42 (36781) - http://www.bohemiancoding.com/sketch -->
    <desc>Created with Sketch.</desc>
    <defs></defs>
    <g id="pyramid_logo_red_on_transparent_background" stroke="none" stroke-width="1" fill="none" fill-rule="evenodd" transform="translate(0.000000, 1.000000)">
        <g id="Group" transform="translate(112.737089, 0.000000)" fill-rule="nonzero" fill="#000000">
            <path d="M275.902066,207.201315 C282.601502,207.228451 288.023944,212.686009 287.992019,219.388638 C287.969671,226.089671 282.512113,231.510516 275.801502,231.480188 C269.108451,231.451455 263.689202,225.998685 263.709953,219.292864 C263.741878,212.588638 269.19784,207.174178 275.902066,207.201315" id="Shape"></path>
            <path d="M317.484225,229.875962 C324.411925,234.589671 326.214085,244.026667 321.490798,250.957559 C316.783474,257.888451 307.343286,259.685822 300.418779,254.972113 C293.49108,250.258404 291.692113,240.823005 296.401033,233.88892 C301.116338,226.961221 310.55493,225.162254 317.484225,229.875962" id="Shape"></path>
            <path d="M344.727324,282.443474 C348.617371,292.16939 343.882911,303.204225 334.149014,307.09108 C324.426291,310.976338 313.388263,306.248263 309.503005,296.517559 C305.612958,286.785258 310.347418,275.752019 320.078122,271.861972 C329.805634,267.97831 340.846854,272.714366 344.727324,282.443474" id="Shape"></path>
            <path d="M336.222535,355.953709 C333.451455,368.753991 320.825164,376.885258 308.026479,374.112582 C295.230986,371.335117 287.101315,358.716808 289.875587,345.922911 C292.649859,333.124225 305.269765,324.99615 318.068451,327.762441 C330.86554,330.536714 338.992019,343.158216 336.222535,355.953709" id="Shape"></path>
            <path d="M276.01061,426.193239 C264.198404,437.521784 245.432958,437.122723 234.110798,425.297746 C222.785446,413.488732 223.181315,394.724883 234.999906,383.402723 C246.82169,372.06939 265.583944,372.470047 276.910892,384.287042 C288.229859,396.105634 287.826009,414.87108 276.01061,426.193239" id="Shape"></path>
            <path d="M164.52892,456.895399 C144.366761,460.375211 125.199061,446.84385 121.728826,426.680094 C118.252207,406.519531 131.772394,387.355023 151.942535,383.88 C172.103099,380.40338 191.267606,393.925164 194.747418,414.100094 C198.216056,434.257465 184.695869,453.425164 164.52892,456.895399" id="Shape"></path>
            <path d="M27.5344601,410.786291 C4.20694836,400.292582 -6.19577465,372.881878 4.29633803,349.557559 C14.7916432,326.236432 42.2055399,315.82892 65.5314554,326.324225 C88.8573709,336.814742 99.2569014,364.228638 88.7679812,387.55615 C78.2694836,410.875681 50.8571831,421.28 27.5344601,410.786291" id="Shape"></path>
            <path d="M173.332207,266.915211 C170.000845,261.096901 172.020094,253.679155 177.838404,250.350986 C183.656714,247.021221 191.077653,249.035681 194.404225,254.858779 C197.730798,260.678685 195.716338,268.091643 189.899624,271.423005 C184.078122,274.751174 176.663568,272.733521 173.332207,266.915211" id="Shape"></path>
            <path d="M172.170141,219.569014 C172.787887,211.209484 180.068357,204.934648 188.432676,205.549202 C196.782629,206.168545 203.062254,213.43784 202.444507,221.798967 C201.826761,230.158498 194.55108,236.431737 186.193146,235.815587 C177.833615,235.199437 171.558779,227.925352 172.170141,219.569014" id="Shape"></path>
            <path d="M204.077465,169.691174 C210.55662,161.457746 222.483756,160.041878 230.715587,166.522629 C238.949014,173.000188 240.366479,184.932113 233.887324,193.160751 C227.395399,201.392582 215.47784,202.808451 207.242817,196.3277 C199.017371,189.843756 197.595117,177.919812 204.077465,169.691174" id="Shape"></path>
            <path d="M271.997653,140.301127 C284.467512,136.29615 297.818498,143.166385 301.817089,155.636244 C305.812488,168.110892 298.951831,181.461878 286.477183,185.458873 C274.015305,189.452676 260.662723,182.58723 256.660939,170.117371 C252.657559,157.649108 259.530986,144.298122 271.997653,140.301127" id="Shape"></path>
            <path d="M362.922911,157.320282 C378.647512,161.893521 387.682254,178.342817 383.101033,194.059437 C378.535775,209.771268 362.088075,218.810798 346.368263,214.237559 C330.658028,209.664319 321.616901,193.219812 326.190141,177.5 C330.764977,161.78338 347.214272,152.748638 362.922911,157.320282" id="Shape"></path>
            <path d="M445.265164,238.514836 C458.357559,254.242629 456.218592,277.603662 440.495587,290.692864 C424.770986,303.785258 401.413146,301.657465 388.319155,285.928075 C375.223568,270.20507 377.362535,246.845634 393.088732,233.746854 C408.813333,220.660845 432.169577,222.795023 445.265164,238.514836" id="Shape"></path>
            <path d="M473.826761,380.215023 C476.404695,405.655962 457.864319,428.38169 432.418592,430.954836 C406.969671,433.526385 384.248732,414.993991 381.680376,389.54507 C379.10723,364.091362 397.647606,341.376808 423.096526,338.803662 C448.534272,336.233709 471.248826,354.766103 473.826761,380.215023" id="Shape"></path>
            <path d="M276.333052,325.886854 C272.96338,331.679624 265.524883,333.644601 259.72892,330.266948 C253.942535,326.894085 251.979155,319.458779 255.350423,313.672394 C258.729671,307.878028 266.158592,305.909859 271.948169,309.289108 C277.747324,312.660376 279.701127,320.092488 276.333052,325.886854" id="Shape"></path>
            <path d="M235.900188,350.556808 C228.356338,354.207418 219.28169,351.040469 215.64385,343.495023 C211.990047,335.946385 215.153803,326.876526 222.704038,323.233897 C230.249484,319.59446 239.324131,322.751831 242.968357,330.298873 C246.607793,337.841127 243.450423,346.915775 235.900188,350.556808" id="Shape"></path>
            <path d="M176.754554,347.87831 C166.390141,346.37784 159.200657,336.755681 160.696338,326.389671 C162.198404,316.020469 171.80939,308.824601 182.176995,310.328263 C192.54939,311.827136 199.740469,321.4477 198.241596,331.807324 C196.744319,342.181315 187.123756,349.375587 176.754554,347.87831" id="Shape"></path>
            <path d="M117.343944,303.745352 C107.649953,294.946854 106.915681,279.951737 115.715775,270.252958 C124.515869,260.558967 139.514178,259.826291 149.212958,268.627981 C158.910141,277.426479 159.636432,292.421596 150.834742,302.123568 C142.034648,311.819155 127.041127,312.545446 117.343944,303.745352" id="Shape"></path>
            <path d="M86.6178404,216.488263 C82.7198122,200.588075 92.4457277,184.542629 108.345915,180.643005 C124.241315,176.748169 140.296338,186.469296 144.191174,202.366291 C148.090798,218.264883 138.363286,234.311925 122.464695,238.213146 C106.5677,242.11277 90.5158685,232.383662 86.6178404,216.488263" id="Shape"></path>
            <path d="M115.771643,104.585164 C122.839812,85.3839437 144.143286,75.5558685 163.342911,82.6240376 C182.540939,89.7001878 192.375399,110.994085 185.302441,130.195305 C178.23108,149.398122 156.933991,159.22939 137.731174,152.156432 C118.531549,145.083474 108.698685,123.786385 115.771643,104.585164" id="Shape"></path>
            <path d="M224.206103,9.00046948 C244.952488,-5.95474178 273.898779,-1.25539906 288.844413,19.4893897 C303.799624,40.2421596 299.106667,69.1900469 278.350704,84.1404695 C257.607512,99.0956808 228.664413,94.3979343 213.701221,73.6435681 C198.760376,52.8971831 203.451737,23.9540845 224.206103,9.00046948" id="Shape"></path>
        </g>
        <g id="Group" transform="translate(0.000000, 471.488263)" fill-rule="nonzero" fill="#000000">
            <path d="M567.554178,16.2098592 C567.554178,24.0921127 561.153239,30.4882629 553.275775,30.4882629 C545.391925,30.4882629 538.997371,24.0921127 538.997371,16.2098592 C538.997371,8.32760563 545.391925,1.9314554 553.275775,1.9314554 C561.153239,1.9314554 567.554178,8.32920188 567.554178,16.2098592" id="Shape"></path>
            <path d="M52.634554,138.769484 C41.6555869,138.769484 32.3255399,135.1077 25.1903286,127.790516 L25.1903286,178.650047 L0.855586854,178.650047 L0.855586854,89.3705164 C0.855586854,62.2886385 20.799061,40.1551174 49.3415023,40.1551174 C77.7003756,40.1551174 97.6422535,62.2886385 97.6422535,89.3705164 C97.6422535,116.629577 77.5168075,138.769484 52.634554,138.769484 Z M49.3415023,62.8361502 C35.9857277,62.8361502 25.1903286,74.7329577 25.1903286,89.3705164 C25.1903286,104.372019 35.9857277,116.447606 49.3415023,116.447606 C62.697277,116.447606 73.4926761,104.739155 73.4926761,89.3705164 C73.4926761,74.1806573 62.697277,62.8361502 49.3415023,62.8361502 Z" id="Combined-Shape"></path>
            <path d="M152.027887,153.954554 C142.881408,178.466479 128.425822,181.761127 108.665915,180.480939 L108.665915,158.524601 C120.741502,159.260469 126.412958,156.332958 130.438685,145.535962 L133.181033,138.397559 L96.775493,42.5271362 L122.388826,42.5271362 L145.44338,110.587793 L167.94723,42.5271362 L193.744131,42.5271362 L152.027887,153.954554 Z" id="Shape"></path>
            <path d="M247.397089,63.3884507 C232.028451,60.644507 221.78216,68.876338 221.78216,82.2337089 L221.78216,136.755023 L197.632582,136.755023 L197.632582,82.2337089 C197.632582,55.5221596 216.110704,36.8588732 247.397089,40.7026291 L247.397089,63.3884507 Z" id="Shape"></path>
            <path d="M354.423662,136.755023 L331.554272,136.755023 L331.554272,126.877465 C324.417465,134.74216 314.17277,138.767887 302.826667,138.767887 C277.946009,138.767887 257.633803,116.811549 257.633803,89.7344601 C257.633803,62.4674178 277.578873,40.1535211 306.119718,40.1535211 C334.484977,40.1535211 354.423662,62.4674178 354.423662,89.7344601 L354.423662,136.755023 Z M306.119718,62.8361502 C292.763944,62.8361502 281.970141,74.3658216 281.970141,89.9180282 C281.970141,104.917934 292.763944,116.447606 306.119718,116.447606 C319.475493,116.447606 330.274085,104.553991 330.274085,89.9180282 C330.274085,74.9165258 319.477089,62.8361502 306.119718,62.8361502 Z" id="Combined-Shape"></path>
            <path d="M519.261408,136.755023 L495.108638,136.755023 L495.108638,81.6830047 C495.108638,76.375493 493.280939,63.7539906 477.361596,63.7539906 C466.752958,63.7539906 459.067042,71.0743662 459.067042,81.6830047 L459.067042,136.755023 L434.915869,136.755023 L434.915869,81.6830047 C434.915869,76.375493 433.270141,63.7539906 417.353991,63.7539906 C406.558592,63.7539906 399.056244,71.0743662 399.056244,81.6830047 L399.056244,136.755023 L374.903474,136.755023 L374.903474,82.2337089 C374.903474,58.2629108 391.557089,40.1567136 417.353991,40.1567136 C430.159061,40.1567136 440.587324,45.2774648 447.360188,53.5076995 C454.493803,45.2774648 465.10723,40.1567136 477.361596,40.1567136 C503.709202,40.1567136 519.261408,57.5350235 519.261408,82.2337089 L519.261408,136.755023 L519.261408,136.755023 Z" id="Shape"></path>
            <rect id="Rectangle-path" x="541.20338" y="42.5303286" width="24.1479812" height="94.2246948"></rect>
            <path d="M679.144413,89.7360563 C679.144413,116.995117 659.205728,138.954648 630.843662,138.954648 C602.301221,138.954648 582.357746,116.995117 582.357746,89.7360563 C582.357746,62.6541784 602.669953,40.5206573 627.371831,40.5206573 C638.524789,40.5206573 647.679249,43.9956808 654.996432,51.4980282 L654.996432,0.630516432 L679.144413,0.630516432 L679.144413,89.7360563 L679.144413,89.7360563 Z M630.843662,62.8361502 C617.484695,62.8361502 606.692488,74.3658216 606.692488,89.9180282 C606.692488,104.917934 617.484695,116.447606 630.843662,116.447606 C644.196244,116.447606 654.996432,104.553991 654.996432,89.9180282 C654.996432,74.9165258 644.196244,62.8361502 630.843662,62.8361502 Z" id="Combined-Shape"></path>
        </g>
        <g id="Group-2" transform="translate(24.943662, 533.741784)"></g>
    </g>
</svg>
