<svg width="801px" height="211px" viewBox="0 0 801 211" version="1.1" xmlns="http://www.w3.org/2000/svg" xmlns:xlink="http://www.w3.org/1999/xlink">
    <!-- Generator: Sketch 42 (36781) - http://www.bohemiancoding.com/sketch -->
    <desc>Created with Sketch.</desc>
    <defs></defs>
    <g id="pyramid_logo_red_on_transparent_background" stroke="none" stroke-width="1" fill="none" fill-rule="evenodd">
        <g id="dots" fill-rule="nonzero" fill="#BE1E2D">
            <path d="M126.96871,95.4671546 C130.040622,95.4795974 132.52699,97.9820677 132.512351,101.055444 C132.502104,104.128088 129.999634,106.613724 126.922598,106.599817 C123.853614,106.586642 121.36871,104.086368 121.378225,101.011528 C121.392864,97.9374199 123.894602,95.4547118 126.96871,95.4671546" id="Shape"></path>
            <path d="M146.035499,105.864227 C149.212077,108.025618 150.038426,112.35279 147.872644,115.530833 C145.714181,118.708875 141.385544,119.533028 138.21043,117.371638 C135.033852,115.210247 134.208966,110.883806 136.368161,107.7043 C138.530284,104.527722 142.858188,103.702836 146.035499,105.864227" id="Shape"></path>
            <path d="M158.527356,129.968161 C160.31107,134.427813 158.140165,139.487649 153.676853,141.269899 C149.218664,143.051418 144.157365,140.88344 142.375846,136.421592 C140.592132,131.959012 142.763038,126.899909 147.224886,125.116194 C151.68527,123.335407 156.748033,125.507045 158.527356,129.968161" id="Shape"></path>
            <path d="M154.62763,163.675023 C153.356999,169.544373 147.567429,173.272827 141.698811,172.001464 C135.831656,170.727905 132.103934,164.941995 133.376029,159.075572 C134.648124,153.206953 140.434767,149.479963 146.303385,150.748399 C152.171272,152.020494 155.89753,157.807868 154.62763,163.675023" id="Shape"></path>
            <path d="M127.018481,195.882159 C121.602196,201.07667 112.997621,200.893687 107.806038,195.471546 C102.612992,190.056725 102.794511,181.452882 108.213724,176.261299 C113.634401,171.064593 122.237511,171.248307 127.43129,176.666789 C132.621409,182.086002 132.436231,190.690576 127.018481,195.882159" id="Shape"></path>
            <path d="M75.9004575,209.96011 C66.6554437,211.555718 57.8664227,205.351144 56.2752059,196.105398 C54.6810613,186.861116 60.8805124,178.073559 70.1291857,176.480146 C79.3734675,174.886002 88.1610247,181.086185 89.7566331,190.337054 C91.347118,199.579872 85.147667,208.368893 75.9004575,209.96011" id="Shape"></path>
            <path d="M13.083989,188.817566 C2.38755718,184.005855 -2.38243367,171.437145 2.42854529,160.742177 C7.24098811,150.048673 19.8111619,145.276487 30.5068618,150.08893 C41.2025618,154.899177 45.9710887,167.46935 41.1615737,178.165782 C36.347667,188.858554 23.7782251,193.629277 13.083989,188.817566" id="Shape"></path>
            <path d="M79.937054,122.847941 C78.4095151,120.180055 79.3354071,116.778774 82.0032937,115.252699 C84.6711802,113.725892 88.073925,114.649588 89.5992681,117.319671 C91.1246112,119.988289 90.2009149,123.387374 87.5337603,124.914913 C84.8644099,126.440988 81.4645929,125.515828 79.937054,122.847941" id="Shape"></path>
            <path d="M79.4042086,101.138152 C79.6874657,97.305032 83.0258005,94.4278134 86.8611162,94.7096066 C90.6898445,94.9935956 93.5692589,98.326807 93.2860018,102.160659 C93.0027447,105.993779 89.6666057,108.870265 85.8342177,108.58774 C82.0010979,108.305215 79.1238792,104.969808 79.4042086,101.138152" id="Shape"></path>
            <path d="M94.0347667,78.2675206 C97.0056725,74.4922232 102.474657,73.8430009 106.249222,76.8146386 C110.02452,79.7848124 110.674474,85.2559927 107.703568,89.0290942 C104.726807,92.8036597 99.2622141,93.452882 95.4861848,90.4812443 C91.7145471,87.5081427 91.0623971,82.0406221 94.0347667,78.2675206" id="Shape"></path>
            <path d="M125.178408,64.7912168 C130.896249,62.9548033 137.018115,66.105032 138.851601,71.8228728 C140.683623,77.5429094 137.537786,83.6647758 131.817749,85.4975297 C126.103568,87.3288198 119.98097,84.1807868 118.14602,78.462946 C116.310339,72.7458371 119.462031,66.6239707 125.178408,64.7912168" id="Shape"></path>
            <path d="M166.870631,72.5950595 C174.080878,74.6920403 178.223605,82.2345837 176.122964,89.4411711 C174.029643,96.6455627 166.487832,100.790485 159.27978,98.6935041 C152.076121,96.5965233 147.930467,89.0561757 150.027447,81.8481244 C152.12516,74.6415371 159.667704,70.4988106 166.870631,72.5950595" id="Shape"></path>
            <path d="M204.627264,109.825435 C210.630558,117.037145 209.649771,127.748948 202.440256,133.750778 C195.230009,139.754071 184.519671,138.778408 178.515645,131.565965 C172.510887,124.35645 173.491674,113.64538 180.702653,107.639158 C187.9129,101.638792 198.622507,102.617383 204.627264,109.825435" id="Shape"></path>
            <path d="M217.723696,174.799634 C218.905764,186.465142 210.404392,196.885636 198.736688,198.065508 C187.067521,199.244648 176.649222,190.746935 175.471546,179.077768 C174.291674,167.406404 182.793047,156.991034 194.462214,155.811162 C206.126258,154.632754 216.541629,163.130467 217.723696,174.799634" id="Shape"></path>
            <path d="M127.166331,149.888381 C125.621226,152.544556 122.21043,153.445563 119.55279,151.896798 C116.899543,150.350229 115.999268,146.940897 117.545105,144.287649 C119.094602,141.630741 122.501006,140.728271 125.155718,142.277768 C127.814822,143.823605 128.710704,147.231473 127.166331,149.888381" id="Shape"></path>
            <path d="M108.626532,161.200366 C105.167429,162.874291 101.006404,161.422141 99.3383349,157.962306 C97.662946,154.501006 99.1136322,150.342177 102.575663,148.671912 C106.035499,147.003111 110.196523,148.450869 111.867521,151.911436 C113.536322,155.369808 112.088564,159.530833 108.626532,161.200366" id="Shape"></path>
            <path d="M81.5063129,159.972187 C76.7538884,159.284172 73.4572736,154.872095 74.1430924,150.118939 C74.831839,145.364318 79.2387923,142.064776 83.9926807,142.754254 C88.7487649,143.441537 92.0461116,147.852882 91.3588289,152.603111 C90.6722781,157.359927 86.2609332,160.658737 81.5063129,159.972187" id="Shape"></path>
            <path d="M54.2645929,139.735773 C49.8195791,135.701372 49.4828911,128.825618 53.5180238,124.378408 C57.5531565,119.933394 64.4303751,119.597438 68.8775846,123.633303 C73.3240622,127.667704 73.6570906,134.543458 69.621226,138.992132 C65.5860933,143.437877 58.7110704,143.770906 54.2645929,139.735773" id="Shape"></path>
            <path d="M40.1756633,99.7255261 C38.3882891,92.4347667 42.8479414,85.0774016 50.1387008,83.2892955 C57.4272644,81.5033852 64.789021,85.9608417 66.5749314,93.2501372 C68.3630375,100.540165 63.9026532,107.898262 56.6126258,109.6871 C49.3233303,111.475206 41.9630375,107.01409 40.1756633,99.7255261" id="Shape"></path>
            <path d="M53.5436414,48.4142726 C56.7846295,39.6098811 66.5529735,35.1033852 75.3566331,38.3443733 C84.1595608,41.589021 88.6689844,51.3529735 85.4258005,60.1573651 C82.1833486,68.9624886 72.4179323,73.4704483 63.6128088,70.2272644 C54.8091491,66.9840805 50.3004575,57.2186642 53.5436414,48.4142726" id="Shape"></path>
            <path d="M103.26441,4.58554437 C112.77731,-2.27191217 126.050137,-0.117108875 132.903202,9.39505947 C139.760659,18.9108875 137.608783,32.1844465 128.091491,39.0397072 C118.580055,45.8971638 105.308692,43.7430924 98.4475755,34.2265325 C91.5967063,24.7136322 93.74785,11.442269 103.26441,4.58554437" id="Shape"></path>
        </g>
        <g id="text" transform="translate(269.350412, 34.400732)" fill-rule="nonzero" fill="#BE1E2D">
            <path d="M442.900575,12.6496398 C442.900575,18.8006907 437.905493,23.7920355 431.758179,23.7920355 C425.605883,23.7920355 420.615784,18.8006907 420.615784,12.6496398 C420.615784,6.49858897 425.605883,1.50724414 431.758179,1.50724414 C437.905493,1.50724414 442.900575,6.49983463 442.900575,12.6496398" id="Shape"></path>
            <path d="M41.0742712,108.291131 C32.5066471,108.291131 25.2257859,105.433596 19.6577022,99.7235073 L19.6577022,139.412609 L0.667671782,139.412609 L0.667671782,69.7418055 C0.667671782,48.6080005 16.2309017,31.3357301 38.5044822,31.3357301 C60.6348122,31.3357301 76.1967965,48.6080005 76.1967965,69.7418055 C76.1967965,91.0138783 60.4915618,108.291131 41.0742712,108.291131 Z M38.5044822,49.0352607 C28.0820759,49.0352607 19.6577022,58.3191371 19.6577022,69.7418055 C19.6577022,81.4484835 28.0820759,90.8718735 38.5044822,90.8718735 C48.9268886,90.8718735 57.3512622,81.7349845 57.3512622,69.7418055 C57.3512622,57.8881401 48.9268886,49.0352607 38.5044822,49.0352607 Z" id="Combined-Shape"></path>
            <path d="M118.637553,120.14106 C111.499942,139.269358 100.219278,141.840393 84.799299,140.841376 L84.799299,123.707374 C94.222689,124.281621 98.6485059,121.997088 101.790051,113.571468 L103.930089,108.000893 L75.5204051,33.1867754 L95.5082063,33.1867754 L113.49922,86.2990692 L131.060483,33.1867754 L151.191535,33.1867754 L118.637553,120.14106 Z" id="Shape"></path>
            <path d="M193.060535,49.4662577 C181.067356,47.3249745 173.071488,53.7488241 173.071488,64.1724761 L173.071488,106.719113 L154.225953,106.719113 L154.225953,64.1724761 C154.225953,43.3276634 168.645671,28.7634499 193.060535,31.7629903 L193.060535,49.4662577 Z" id="Shape"></path>
            <path d="M276.580545,106.719113 L258.734027,106.719113 L258.734027,99.0109918 C253.164697,105.14834 245.170075,108.289886 236.31595,108.289886 C216.899905,108.289886 201.048929,91.1558831 201.048929,70.0258152 C201.048929,48.7475141 216.613404,31.3344845 238.885739,31.3344845 C261.021052,31.3344845 276.580545,48.7475141 276.580545,70.0258152 L276.580545,106.719113 Z M238.885739,49.0352607 C228.463333,49.0352607 220.040205,58.0326362 220.040205,70.1690656 C220.040205,81.874498 228.463333,90.8718735 238.885739,90.8718735 C249.308145,90.8718735 257.73501,81.5904883 257.73501,70.1690656 C257.73501,58.4623876 249.309391,49.0352607 238.885739,49.0352607 Z" id="Combined-Shape"></path>
            <path d="M405.214489,106.719113 L386.366463,106.719113 L386.366463,63.7427247 C386.366463,59.6009175 384.940187,49.751513 372.517257,49.751513 C364.238625,49.751513 358.24079,55.4640929 358.24079,63.7427247 L358.24079,106.719113 L339.39401,106.719113 L339.39401,63.7427247 C339.39401,59.6009175 338.109738,49.751513 325.689299,49.751513 C317.264925,49.751513 311.410341,55.4640929 311.410341,63.7427247 L311.410341,106.719113 L292.562315,106.719113 L292.562315,64.1724761 C292.562315,45.4664553 305.558247,31.3369758 325.689299,31.3369758 C335.681954,31.3369758 343.819827,35.3330412 349.105146,41.7556452 C354.671984,35.3330412 362.954353,31.3369758 372.517257,31.3369758 C393.07806,31.3369758 405.214489,44.8984361 405.214489,64.1724761 L405.214489,106.719113 L405.214489,106.719113 Z" id="Shape"></path>
            <rect id="Rectangle-path" x="422.337281" y="33.1892667" width="18.8442887" height="73.5298464"></rect>
            <path d="M529.981917,70.0270608 C529.981917,91.2991336 514.422424,108.435627 492.289602,108.435627 C470.016022,108.435627 454.452792,91.2991336 454.452792,70.0270608 C454.452792,48.8932558 470.303768,31.6209854 489.5803,31.6209854 C498.2837,31.6209854 505.427539,34.3327792 511.137628,40.1873639 L511.137628,0.492034243 L529.981917,0.492034243 L529.981917,70.0270608 L529.981917,70.0270608 Z M492.289602,49.0352607 C481.864705,49.0352607 473.442822,58.0326362 473.442822,70.1690656 C473.442822,81.874498 481.864705,90.8718735 492.289602,90.8718735 C502.709517,90.8718735 511.137628,81.5904883 511.137628,70.1690656 C511.137628,58.4623876 502.709517,49.0352607 492.289602,49.0352607 Z" id="Combined-Shape"></path>
        </g>
    </g>
</svg>
