<?xml version="1.0" encoding="utf-8"?>
<!-- Generator: Adobe Illustrator 14.0.0, SVG Export Plug-In . SVG Version: 6.00 Build 43363)  -->
<!DOCTYPE svg PUBLIC "-//W3C//DTD SVG 1.1//EN" "http://www.w3.org/Graphics/SVG/1.1/DTD/svg11.dtd">
<svg version="1.1" id="Layer_1" xmlns="http://www.w3.org/2000/svg" xmlns:xlink="http://www.w3.org/1999/xlink" x="0px" y="0px"
	 width="2042.562px" height="460.16px" viewBox="-765.576 -171.961 2042.562 460.16"
	 enable-background="new -765.576 -171.961 2042.562 460.16" xml:space="preserve">
<g>
	<path fill="#101010" d="M1111.4,140.387c0,0,15.527-34.594,53.879-30.703c0,0,39.457,3.891,40.02,46.801
		c0,0,0.594,42.828-54.473,44.895H928.436v-373.055H848.08v448.133l299.461,0.094c133.363-2.184,129.434-117.969,129.434-117.969
		c-4.961-119.334-114.43-117.658-114.43-117.658c-47.215,0.17-77.703,28.467-91.938,45.752L1111.4,140.387"/>
	<path fill="#101010" d="M47.244-171.961h137.809c51.602,0,83.777,9.707,109.277,30.332c25.5,20.645,52.809,57.082,52.809,108.672
		c0,29.75-10.926,76.498-43.102,107.465c-26.699,25.488-52.207,31.551-74.664,37.02L351.4,277.262H250.623L131.627,105.457h-1.209
		v171.805H47.244V-171.961L47.244-171.961z M130.418,42.926h53.426c68.602,0,80.135-45.529,80.135-69.205
		c0-24.885-15.18-67.977-80.135-67.977h-53.426V42.926L130.418,42.926z"/>
	<path fill="#101010" d="M344.689,109.102c0-101.996,83.176-180.307,179.691-180.307c95.32,0,178.484,75.893,178.484,179.088
		c0,110.496-84.988,180.316-178.484,180.316C424.221,288.199,344.689,205.629,344.689,109.102 M622.127,109.707
		c0-61.312-47.352-106.842-97.746-106.842c-41.883,0-98.965,35.811-98.965,106.236c0,63.738,47.977,105.035,98.965,105.035
		C583.275,214.137,622.127,163.129,622.127,109.707"/>
	<path fill="#101010" d="M730.154-171.971h80.727v449.24h-80.727V-171.971z"/>
	<path fill="#00AFF0" d="M-578.594-171.971h64.955l188.211,449.232h-91.684l-47.957-115.953h-160.867l-47.967,115.953h-91.674
		L-578.594-171.971L-578.594-171.971z M-598.021,82.988h103.205l-50.998-137.797h-1.209L-598.021,82.988L-598.021,82.988z"/>
	<path fill="#00AFF0" d="M6.602,277.262h-74.061v-41.289h-1.219c-15.176,24.312-50.383,52.227-107.453,52.227
		c-85.59,0-171.795-70.426-171.795-179.098c0-113.527,91.059-180.307,171.795-180.307c49.174,0,78.309,16.396,101.996,41.279
		v-142.057H6.602V277.262L6.602,277.262z M-167.631,214.129c60.715,0,99.568-54.645,99.568-105.633
		c0-55.248-42.498-105.631-99.568-105.631c-60.092,0-99.559,55.842-99.559,103.193C-267.189,168.59-220.441,214.129-167.631,214.129
		L-167.631,214.129z"/>
</g>
</svg>
