<?xml version="1.0" encoding="UTF-8" standalone="no"?>
<!-- Created with Inkscape (http://www.inkscape.org/) -->

<svg
   xmlns:dc="http://purl.org/dc/elements/1.1/"
   xmlns:cc="http://creativecommons.org/ns#"
   xmlns:rdf="http://www.w3.org/1999/02/22-rdf-syntax-ns#"
   xmlns:svg="http://www.w3.org/2000/svg"
   xmlns="http://www.w3.org/2000/svg"
   xmlns:sodipodi="http://sodipodi.sourceforge.net/DTD/sodipodi-0.dtd"
   xmlns:inkscape="http://www.inkscape.org/namespaces/inkscape"
   width="128"
   height="37"
   id="svg2"
   sodipodi:version="0.32"
   inkscape:version="0.48.4 r9939"
   sodipodi:docname="kup-logo.svg"
   inkscape:output_extension="org.inkscape.output.svg.inkscape"
   version="1.1"
   inkscape:export-filename="/home/jensens/SparkleShare/dokumente/D.VERTRIEB/WERBEMATERIALIEN/LOGOS/kup-logo-w128.png"
   inkscape:export-xdpi="20.373177"
   inkscape:export-ydpi="20.373177">
  <defs
     id="defs4">
    <inkscape:perspective
       sodipodi:type="inkscape:persp3d"
       inkscape:vp_x="0 : 526.18109 : 1"
       inkscape:vp_y="0 : 1000 : 0"
       inkscape:vp_z="744.09448 : 526.18109 : 1"
       inkscape:persp3d-origin="372.04724 : 350.78739 : 1"
       id="perspective10" />
  </defs>
  <sodipodi:namedview
     id="base"
     pagecolor="#dee4aa"
     bordercolor="#666666"
     borderopacity="1.0"
     inkscape:pageopacity="0"
     inkscape:pageshadow="2"
     inkscape:zoom="10.161744"
     inkscape:cx="41.294262"
     inkscape:cy="10.936697"
     inkscape:document-units="px"
     inkscape:current-layer="layer1"
     showgrid="false"
     showguides="false"
     inkscape:guide-bbox="true"
     inkscape:window-width="1600"
     inkscape:window-height="842"
     inkscape:window-x="1024"
     inkscape:window-y="40"
     inkscape:window-maximized="0"
     fit-margin-top="0"
     fit-margin-left="0"
     fit-margin-right="0"
     fit-margin-bottom="0"
     inkscape:showpageshadow="false"
     width="128px">
    <sodipodi:guide
       orientation="1,0"
       position="-162.66034,-109.98892"
       id="guide2440" />
    <sodipodi:guide
       orientation="1,0"
       position="566.87666,-121.89002"
       id="guide2442" />
    <sodipodi:guide
       orientation="1,0"
       position="-2.0090085,26.284272"
       id="guide2585" />
    <sodipodi:guide
       orientation="1,0"
       position="183.73951,67.071872"
       id="guide2587" />
  </sodipodi:namedview>
  <metadata
     id="metadata7">
    <rdf:RDF>
      <cc:Work
         rdf:about="">
        <dc:format>image/svg+xml</dc:format>
        <dc:type
           rdf:resource="http://purl.org/dc/dcmitype/StillImage" />
        <dc:title></dc:title>
      </cc:Work>
    </rdf:RDF>
  </metadata>
  <g
     inkscape:label="Ebene 1"
     inkscape:groupmode="layer"
     id="layer1"
     transform="translate(-105.5351,-171.07581)">
    <g
       style="font-size:50.14014053px;font-style:normal;font-variant:normal;font-weight:normal;font-stretch:normal;text-align:start;line-height:125%;writing-mode:lr-tb;text-anchor:start;fill:#000000;fill-opacity:1;stroke:none;font-family:Dustismo;-inkscape-font-specification:Dustismo"
       id="text2383"
       transform="matrix(0.22643982,0,0,0.22643982,81.637752,138.65084)">
      <path
         d="m 105.5351,258.06915 4.52926,0 0,22.49941 13.44089,-11.82504 5.75338,0 -14.5426,12.82883 15.15466,14.59156 -5.8758,0 -13.93053,-13.39192 0,13.39192 -4.52926,0 0,-38.09476"
         id="path3005"
         inkscape:connector-curvature="0" />
      <path
         d="m 150.75426,258.06915 4.50478,0 0,38.09476 -4.50478,0 0,-38.09476"
         id="path3007"
         inkscape:connector-curvature="0" />
      <path
         d="m 204.07712,281.32752 0,2.20342 -20.71219,0 c 0.19586,3.10113 1.12619,5.46777 2.79101,7.09993 1.68112,1.61585 4.01511,2.42377 7.00199,2.42376 1.73008,1e-5 3.40305,-0.21217 5.01891,-0.63654 1.63214,-0.42436 3.24798,-1.0609 4.84753,-1.90964 l 0,4.25996 c -1.61587,0.68551 -3.27251,1.2078 -4.96994,1.56688 -1.69748,0.35907 -3.41941,0.53861 -5.16581,0.53861 -4.37422,0 -7.84256,-1.27309 -10.40506,-3.81927 -2.54618,-2.54617 -3.81927,-5.99004 -3.81926,-10.33161 -1e-5,-4.48844 1.20779,-8.04655 3.6234,-10.67436 2.43192,-2.64409 5.70441,-3.96614 9.81748,-3.96617 3.68868,3e-5 6.60209,1.19151 8.74025,3.57445 2.15443,2.36666 3.23166,5.59018 3.23169,9.67058 m -4.50478,-1.32205 c -0.0327,-2.46456 -0.72633,-4.43131 -2.08101,-5.90028 -1.3384,-1.46893 -3.11746,-2.2034 -5.33718,-2.20343 -2.51355,3e-5 -4.52928,0.71002 -6.04718,2.12998 -1.5016,1.42 -2.36665,3.41941 -2.59514,5.99821 l 16.06051,-0.0245"
         id="path3009"
         inkscape:connector-curvature="0" />
      <path
         d="m 227.43342,268.74352 4.50478,0 0,27.42039 -4.50478,0 0,-27.42039 m 0,-10.67437 4.50478,0 0,5.70442 -4.50478,0 0,-5.70442"
         id="path3011"
         inkscape:connector-curvature="0" />
      <path
         d="m 280.09525,279.61375 0,16.55016 -4.50477,0 0,-16.40327 c -3e-5,-2.59512 -0.506,-4.5374 -1.51792,-5.82683 -1.01196,-1.28939 -2.52987,-1.93409 -4.55374,-1.93412 -2.43194,3e-5 -4.34974,0.7753 -5.75339,2.32584 -1.40367,1.55058 -2.1055,3.66423 -2.10549,6.34096 l 0,15.49742 -4.52926,0 0,-27.42039 4.52926,0 0,4.25995 c 1.07722,-1.64846 2.34215,-2.88074 3.79478,-3.69685 1.46894,-0.81606 3.15823,-1.2241 5.06788,-1.22413 3.15006,3e-5 5.53302,0.97933 7.14889,2.9379 1.61582,1.9423 2.42374,4.80675 2.42376,8.59336"
         id="path3013"
         inkscape:connector-curvature="0" />
      <path
         d="m 328.52163,276.50447 c -1.48529,1.32207 -2.57884,2.64413 -3.28066,3.96616 -0.68552,1.30575 -1.02827,2.67677 -1.02826,4.11306 -1e-5,2.38297 0.86504,4.36605 2.59514,5.94925 1.73009,1.5832 3.90086,2.3748 6.51234,2.3748 1.55054,0 3.00317,-0.25298 4.35789,-0.75896 1.35467,-0.52229 2.62776,-1.30573 3.81927,-2.35032 l -12.97572,-13.29399 m 3.45203,-2.74204 12.4371,12.7309 c 0.96295,-1.45262 1.71375,-3.00318 2.25239,-4.65168 0.53859,-1.66479 0.85686,-3.42753 0.95482,-5.28821 l 4.55374,0 c -0.19589,2.15447 -0.71819,4.28445 -1.56688,6.38993 -0.84876,2.1055 -2.03208,4.18651 -3.54996,6.24303 l 6.83062,6.97751 -6.16959,0 -3.501,-3.59893 c -1.69748,1.45263 -3.47654,2.53802 -5.33718,3.25618 -1.86069,0.70183 -3.86009,1.05274 -5.99821,1.05274 -3.93353,0 -7.1489,-1.11803 -9.6461,-3.3541 -2.49722,-2.25238 -3.74583,-5.13315 -3.74582,-8.64232 -1e-5,-2.08916 0.54677,-4.04775 1.64032,-5.8758 1.09355,-1.84432 2.73387,-3.57442 4.92098,-5.19028 -0.78344,-1.02825 -1.37918,-2.04835 -1.78722,-3.06032 -0.40805,-1.02823 -0.61207,-2.03201 -0.61206,-3.01134 -10e-6,-2.64408 0.90584,-4.76589 2.71756,-6.36545 1.81169,-1.61581 4.21913,-2.42373 7.22233,-2.42377 1.35468,4e-5 2.70122,0.14694 4.03961,0.44069 1.35468,0.29383 2.7257,0.73451 4.11306,1.32205 l 0,4.45582 c -1.42001,-0.76709 -2.7747,-1.34651 -4.06409,-1.73826 -1.28943,-0.40801 -2.48907,-0.61203 -3.59893,-0.61206 -1.71379,3e-5 -3.10929,0.45704 -4.1865,1.37102 -1.06092,0.89772 -1.59138,2.06472 -1.59137,3.50099 -1e-5,0.83244 0.23666,1.673 0.71,2.5217 0.48963,0.83243 1.47709,2.01575 2.96238,3.54996"
         id="path3015"
         inkscape:connector-curvature="0" />
      <path
         d="m 396.41156,292.05085 0,14.5426 -4.52926,0 0,-37.84993 4.52926,0 0,4.16202 c 0.94664,-1.63214 2.13812,-2.83994 3.57444,-3.6234 1.45261,-0.79974 3.18271,-1.19962 5.19029,-1.19965 3.3296,3e-5 6.03083,1.32208 8.1037,3.96617 2.08915,2.64413 3.13373,6.12064 3.13376,10.42954 -3e-5,4.30893 -1.04461,7.78544 -3.13376,10.42954 -2.07287,2.64411 -4.7741,3.96616 -8.1037,3.96616 -2.00758,0 -3.73768,-0.39172 -5.19029,-1.17516 -1.43632,-0.79976 -2.6278,-2.01572 -3.57444,-3.64789 m 15.32604,-9.57265 c -3e-5,-3.31328 -0.68554,-5.90842 -2.05653,-7.78543 -1.35472,-1.89329 -3.22355,-2.83995 -5.60649,-2.83997 -2.38298,2e-5 -4.25997,0.94668 -5.63098,2.83997 -1.3547,1.87701 -2.03205,4.47215 -2.03204,7.78543 -1e-5,3.31331 0.67734,5.91661 2.03204,7.80991 1.37101,1.877 3.248,2.81549 5.63098,2.81549 2.38294,0 4.25177,-0.93849 5.60649,-2.81549 1.37099,-1.8933 2.0565,-4.4966 2.05653,-7.80991"
         id="path3017"
         inkscape:connector-curvature="0" />
      <path
         d="m 452.30509,282.38027 c -3.63975,1e-5 -6.16144,0.41621 -7.56509,1.2486 -1.40367,0.83242 -2.10551,2.2524 -2.1055,4.25996 -10e-6,1.59953 0.52229,2.87262 1.56688,3.81927 1.0609,0.93033 2.4972,1.3955 4.30892,1.3955 2.4972,0 4.4966,-0.88137 5.99821,-2.64411 1.51789,-1.77905 2.27685,-4.13753 2.27687,-7.07544 l 0,-1.00378 -4.48029,0 m 8.98507,-1.86067 0,15.64431 -4.50478,0 0,-4.16202 c -1.02828,1.66481 -2.30953,2.89709 -3.84375,3.69685 -1.53425,0.78344 -3.41124,1.17516 -5.63097,1.17516 -2.80734,0 -5.0434,-0.78344 -6.7082,-2.35032 -1.6485,-1.58319 -2.47274,-3.69685 -2.47274,-6.34096 0,-3.08478 1.02826,-5.41062 3.0848,-6.97751 2.07284,-1.56686 5.15763,-2.3503 9.25438,-2.35032 l 6.31648,0 0,-0.44069 c -2e-5,-2.07283 -0.68553,-3.67235 -2.05653,-4.79856 -1.35471,-1.1425 -3.26435,-1.71375 -5.7289,-1.71378 -1.56689,3e-5 -3.09297,0.18772 -4.57823,0.5631 -1.48527,0.37542 -2.91342,0.93852 -4.28443,1.68929 l 0,-4.16202 c 1.64848,-0.63652 3.248,-1.10985 4.79857,-1.41999 1.55054,-0.3264 3.06029,-0.48962 4.52926,-0.48965 3.96614,3e-5 6.92852,1.02829 8.88714,3.0848 1.95858,2.05655 2.93787,5.17398 2.9379,9.35231"
         id="path3019"
         inkscape:connector-curvature="0" />
      <path
         d="m 502.44522,272.95451 c -0.50599,-0.29377 -1.06093,-0.50595 -1.66481,-0.63655 -0.5876,-0.14687 -1.24046,-0.22031 -1.9586,-0.22034 -2.54619,3e-5 -4.50479,0.83243 -5.8758,2.49722 -1.3547,1.6485 -2.03205,4.0233 -2.03204,7.1244 l 0,14.44467 -4.52926,0 0,-27.42039 4.52926,0 0,4.25995 c 0.94664,-1.66478 2.17893,-2.89706 3.69685,-3.69685 1.5179,-0.81606 3.36225,-1.2241 5.53305,-1.22413 0.31009,3e-5 0.65284,0.0245 1.02826,0.0734 0.37538,0.0327 0.79158,0.0898 1.24861,0.17138 l 0.0245,4.62719"
         id="path3021"
         inkscape:connector-curvature="0" />
      <path
         d="m 527.63772,260.95809 0,7.78543 9.27886,0 0,3.501 -9.27886,0 0,14.88535 c -10e-6,2.23608 0.30194,3.67238 0.90585,4.30892 0.62022,0.63655 1.86882,0.95482 3.74582,0.95482 l 4.62719,0 0,3.7703 -4.62719,0 c -3.47652,0 -5.8758,-0.64471 -7.19785,-1.93412 -1.32206,-1.30573 -1.98308,-3.67236 -1.98308,-7.09992 l 0,-14.88535 -3.30514,0 0,-3.501 3.30514,0 0,-7.78543 4.52926,0"
         id="path3023"
         inkscape:connector-curvature="0" />
      <path
         d="m 581.62159,279.61375 0,16.55016 -4.50478,0 0,-16.40327 c -2e-5,-2.59512 -0.50599,-4.5374 -1.51791,-5.82683 -1.01197,-1.28939 -2.52988,-1.93409 -4.55375,-1.93412 -2.43194,3e-5 -4.34973,0.7753 -5.75338,2.32584 -1.40367,1.55058 -2.1055,3.66423 -2.10549,6.34096 l 0,15.49742 -4.52927,0 0,-27.42039 4.52927,0 0,4.25995 c 1.07721,-1.64846 2.34214,-2.88074 3.79478,-3.69685 1.46894,-0.81606 3.15823,-1.2241 5.06788,-1.22413 3.15006,3e-5 5.53302,0.97933 7.14888,2.9379 1.61582,1.9423 2.42374,4.80675 2.42377,8.59336"
         id="path3025"
         inkscape:connector-curvature="0" />
      <path
         d="m 630.07244,281.32752 0,2.20342 -20.71218,0 c 0.19585,3.10113 1.12618,5.46777 2.791,7.09993 1.68112,1.61585 4.01511,2.42377 7.00199,2.42376 1.73008,1e-5 3.40305,-0.21217 5.01891,-0.63654 1.63215,-0.42436 3.24799,-1.0609 4.84754,-1.90964 l 0,4.25996 c -1.61587,0.68551 -3.27252,1.2078 -4.96995,1.56688 -1.69747,0.35907 -3.41941,0.53861 -5.1658,0.53861 -4.37422,0 -7.84257,-1.27309 -10.40506,-3.81927 -2.54619,-2.54617 -3.81927,-5.99004 -3.81927,-10.33161 0,-4.48844 1.2078,-8.04655 3.62341,-10.67436 2.43192,-2.64409 5.70441,-3.96614 9.81748,-3.96617 3.68867,3e-5 6.60208,1.19151 8.74024,3.57445 2.15444,2.36666 3.23167,5.59018 3.23169,9.67058 m -4.50477,-1.32205 c -0.0327,-2.46456 -0.72634,-4.43131 -2.08102,-5.90028 -1.33839,-1.46893 -3.11745,-2.2034 -5.33718,-2.20343 -2.51355,3e-5 -4.52927,0.71002 -6.04717,2.12998 -1.50161,1.42 -2.36665,3.41941 -2.59515,5.99821 l 16.06052,-0.0245"
         id="path3027"
         inkscape:connector-curvature="0" />
      <path
         d="m 669.3179,272.95451 c -0.50599,-0.29377 -1.06093,-0.50595 -1.66481,-0.63655 -0.5876,-0.14687 -1.24046,-0.22031 -1.9586,-0.22034 -2.54619,3e-5 -4.50479,0.83243 -5.8758,2.49722 -1.3547,1.6485 -2.03205,4.0233 -2.03204,7.1244 l 0,14.44467 -4.52926,0 0,-27.42039 4.52926,0 0,4.25995 c 0.94664,-1.66478 2.17893,-2.89706 3.69685,-3.69685 1.5179,-0.81606 3.36225,-1.2241 5.53305,-1.22413 0.31009,3e-5 0.65284,0.0245 1.02826,0.0734 0.37538,0.0327 0.79158,0.0898 1.24861,0.17138 l 0.0245,4.62719"
         id="path3029"
         inkscape:connector-curvature="0" />
    </g>
    <path
       style="font-size:40px;font-style:normal;font-variant:normal;font-weight:normal;font-stretch:normal;text-align:start;line-height:125%;writing-mode:lr-tb;text-anchor:start;fill:#000000;fill-opacity:1;stroke:none;font-family:Dustismo;-inkscape-font-specification:Dustismo"
       clip-path="none"
       d="m 195.75634,172.06486 0,18.21426 1.76907,0 0,-6.94888 28.81446,0 c 1.79193,1e-5 3.38769,-0.48296 4.77646,-1.45062 1.55897,-1.08411 2.33515,-2.4901 2.33516,-4.21037 -1e-5,-1.70233 -0.78138,-3.09273 -2.34931,-4.16791 -1.38877,-0.95868 -2.97934,-1.43645 -4.76231,-1.43648 l -30.58353,0 z m 1.76907,1.74784 28.50311,0 c 1.41562,2e-5 2.61103,0.2847 3.58765,0.84915 1.18266,0.68992 1.77613,1.69034 1.77614,3.0074 -1e-5,1.29021 -0.59867,2.29771 -1.79029,3.01448 -1.0035,0.60031 -2.19372,0.89869 -3.5735,0.89869 l -28.50311,0 0,-7.76972 z"
       id="path2394"
       inkscape:export-filename="/home/jensens/SparkleShare/dokumente/D.VERTRIEB/WERBEMATERIALIEN/LOGOS/kup-logo-1010.png"
       inkscape:export-xdpi="159.58986"
       inkscape:export-ydpi="159.58986"
       inkscape:connector-curvature="0" />
    <path
       inkscape:connector-curvature="0"
       id="path2406"
       style="font-size:40px;font-style:normal;font-variant:normal;font-weight:normal;font-stretch:normal;text-align:start;line-height:125%;writing-mode:lr-tb;text-anchor:start;fill:#000000;fill-opacity:1;stroke:none;font-family:Dustismo;-inkscape-font-specification:Dustismo"
       d="m 181.72368,190.57671 c 1.85465,0 3.40468,-0.7302 4.65008,-2.19064 1.19163,-1.38875 1.78745,-3.02389 1.78746,-4.90544 l 0,-11.41016 -1.74714,0 0,11.59832 c -1e-5,1.40668 -0.4256,2.60279 -1.27676,3.58836 -0.89597,1.04829 -2.03385,1.57242 -3.41364,1.57242 -1.37979,0 -23.33302,0 -24.71281,0 -1.37979,0 -2.51767,-0.52413 -3.41364,-1.57242 -0.85116,-0.98557 -1.27675,-2.18168 -1.27677,-3.58836 l 0,-11.59832 -1.74713,0 0,11.41016 c 1e-5,1.88155 0.59583,3.51669 1.78746,4.90544 1.24541,1.46044 2.79543,2.19064 4.65008,2.19064"
       sodipodi:nodetypes="cccccccscccccccc"
       inkscape:export-filename="/home/jensens/SparkleShare/dokumente/D.VERTRIEB/WERBEMATERIALIEN/LOGOS/kup-logo-1010.png"
       inkscape:export-xdpi="159.58986"
       inkscape:export-ydpi="159.58986" />
    <g
       id="g2435"
       transform="matrix(0.68810453,0,0,0.68810453,28.699596,70.527225)"
       inkscape:export-xdpi="159.58986"
       inkscape:export-ydpi="159.58986"
       inkscape:export-filename="/home/jensens/SparkleShare/dokumente/D.VERTRIEB/WERBEMATERIALIEN/LOGOS/kup-logo-1010.png">
      <path
         inkscape:connector-curvature="0"
         sodipodi:nodetypes="ccccccc"
         id="path2398"
         d="m 114.28146,159.87439 0,2.66539 0,11.49477 -2.55859,0 0,-26.46485 2.55859,0 0,12.30469"
         style="font-size:40px;font-style:normal;font-variant:normal;font-weight:normal;font-stretch:normal;text-align:start;line-height:125%;writing-mode:lr-tb;text-anchor:start;fill:#000000;fill-opacity:1;stroke:none;font-family:Dustismo;-inkscape-font-specification:Dustismo" />
      <path
         inkscape:connector-curvature="0"
         inkscape:transform-center-y="-14.900465"
         inkscape:transform-center-x="-59.156415"
         sodipodi:nodetypes="cccc"
         id="path2417"
         d="m 112.31338,163.79869 -0.62494,-2.48109 54.84031,-13.75679 0,2.62405"
         style="font-size:40px;font-style:normal;font-variant:normal;font-weight:normal;font-stretch:normal;text-align:start;line-height:125%;writing-mode:lr-tb;text-anchor:start;fill:#000000;fill-opacity:1;stroke:none;font-family:Dustismo;-inkscape-font-specification:Dustismo" />
      <path
         inkscape:connector-curvature="0"
         inkscape:transform-center-y="8.87886"
         inkscape:transform-center-x="-41.509575"
         sodipodi:nodetypes="ccccc"
         id="path2421"
         d="m 154.00413,170.95687 -35.79354,-8.79212 0.61034,-2.48472 47.70066,11.71382 -0.004,2.63762"
         style="font-size:40px;font-style:normal;font-variant:normal;font-weight:normal;font-stretch:normal;text-align:start;line-height:125%;writing-mode:lr-tb;text-anchor:start;fill:#000000;fill-opacity:1;stroke:none;font-family:Dustismo;-inkscape-font-specification:Dustismo" />
    </g>
  </g>
</svg>
