<?xml version="1.0" encoding="utf-8"?>
<!-- Generator: Adobe Illustrator 16.0.3, SVG Export Plug-In . SVG Version: 6.00 Build 0)  -->
<!DOCTYPE svg PUBLIC "-//W3C//DTD SVG 1.1//EN" "http://www.w3.org/Graphics/SVG/1.1/DTD/svg11.dtd">
<svg version="1.1" id="Ebene_1" xmlns="http://www.w3.org/2000/svg" xmlns:xlink="http://www.w3.org/1999/xlink" x="0px" y="0px"
	 width="120px" height="55px" viewBox="0 -2.5 120 55" enable-background="new 0 -2.5 120 55" xml:space="preserve">
<g>
	<g>
		<path fill="#1D1D1B" d="M60.711,8.83h-1.108c-0.206,0-0.301-0.079-0.411-0.238L55.71,3.924c-0.111-0.144-0.174-0.127-0.269-0.127
			s-0.206,0.016-0.206,0.206v4.542c0,0.253-0.158,0.285-0.285,0.285h-0.965c-0.126,0-0.285-0.032-0.285-0.285v-9.987
			c0-0.254,0.159-0.285,0.285-0.285h0.965c0.127,0,0.285,0.031,0.285,0.285v4.035c0,0.174,0.079,0.206,0.189,0.206
			c0.111,0,0.19-0.032,0.253-0.11l3.578-4.163c0.189-0.222,0.269-0.253,0.458-0.253h0.871c0.111,0,0.253,0.047,0.253,0.189
			c0,0.111-0.031,0.158-0.142,0.285l-3.672,4.164C56.96,2.989,56.929,3.037,56.929,3.1s0.032,0.111,0.063,0.158l3.862,5.081
			c0.079,0.111,0.142,0.174,0.142,0.285C60.996,8.798,60.854,8.83,60.711,8.83z"/>
		<path fill="#1D1D1B" d="M65.507,8.957c-2.485,0-3.799-1.615-3.799-4.068c0-2.374,1.234-4.115,3.814-4.115
			c2.486,0,3.798,1.615,3.798,4.068C69.321,7.216,68.087,8.957,65.507,8.957z M65.507,1.866c-1.868,0-2.248,1.472-2.248,3.055
			c0,1.551,0.412,2.944,2.263,2.944c1.868,0,2.248-1.472,2.248-3.055C67.771,3.258,67.359,1.866,65.507,1.866z"/>
		<path fill="#1D1D1B" d="M77.469,8.83h-0.902c-0.127,0-0.284-0.032-0.284-0.285V3.907c0-0.744-0.08-1.187-0.349-1.519
			c-0.317-0.348-0.824-0.522-1.489-0.522c-0.363,0-0.791,0.079-1.107,0.206C72.926,2.23,72.72,2.419,72.72,2.879v5.666
			c0,0.253-0.158,0.285-0.285,0.285h-0.901c-0.126,0-0.286-0.032-0.286-0.285v-7.36c0-0.253,0.16-0.285,0.286-0.285h0.854
			c0.189,0,0.221,0.095,0.221,0.206c0,0.063,0,0.111,0.159,0.111c0.19,0,0.444-0.08,0.586-0.143c0.458-0.19,1.091-0.301,1.583-0.301
			c0.902,0,1.726,0.237,2.215,0.792c0.522,0.57,0.602,1.266,0.602,2.564v4.416C77.753,8.798,77.595,8.83,77.469,8.83z"/>
		<path fill="#1D1D1B" d="M84.116,2.167c-0.237,0-0.316-0.126-1.155-0.126c-1.203,0-1.377,0.665-1.377,1.25v5.255
			c0,0.253-0.158,0.285-0.284,0.285h-0.902c-0.127,0-0.285-0.032-0.285-0.285v-7.36c0-0.253,0.158-0.285,0.285-0.285h0.854
			c0.19,0,0.223,0.095,0.223,0.206v0.126c0,0.079,0.078,0.143,0.174,0.143c0.458,0,0.997-0.602,1.993-0.602
			c0.697,0,0.697,0.237,0.697,0.522v0.633C84.338,2.071,84.275,2.167,84.116,2.167z"/>
		<path fill="#1D1D1B" d="M91.159,8.83h-0.854c-0.189,0-0.221-0.095-0.221-0.206c0-0.063,0-0.111-0.159-0.111
			c-0.363,0-0.918,0.443-2.121,0.443c-2.137,0-2.643-1.093-2.643-2.185c0-1.535,1.044-2.042,2.501-2.5l1.852-0.57
			c0.269-0.079,0.459-0.174,0.459-0.491V2.958c0-0.522-0.111-1.06-1.472-1.06c-1.313,0-1.979,0.395-2.327,0.585
			c-0.096,0.047-0.143,0.079-0.253,0.079c-0.143,0-0.206-0.111-0.206-0.253V1.724c0-0.19,0-0.285,0.158-0.396
			c0.222-0.159,1.188-0.554,2.77-0.554c1.504,0,2.026,0.412,2.264,0.649c0.427,0.427,0.538,0.918,0.538,2.105v5.017
			C91.444,8.798,91.286,8.83,91.159,8.83z M89.973,4.842c0-0.111-0.031-0.159-0.127-0.159c-0.11,0-0.11,0.017-0.254,0.063
			l-1.265,0.428c-0.855,0.285-1.615,0.474-1.615,1.503c0,0.902,0.649,1.171,1.456,1.171c0.443,0,0.95-0.063,1.346-0.253
			s0.459-0.364,0.459-0.791V4.842z"/>
		<path fill="#1D1D1B" d="M100.229,8.83h-0.855c-0.189,0-0.221-0.095-0.221-0.206c0-0.063,0-0.111-0.159-0.111
			c-0.349,0-0.839,0.443-2.041,0.443c-2.327,0-3.656-1.52-3.656-3.989c0-2.723,1.519-4.195,3.798-4.195
			c1.124,0,1.662,0.444,1.805,0.444c0.111,0,0.143-0.08,0.143-0.207v-2.976c0-0.253,0.158-0.285,0.285-0.285h0.902
			c0.126,0,0.284,0.031,0.284,0.285v10.51C100.514,8.798,100.355,8.83,100.229,8.83z M99.042,2.911c0-0.506-0.222-0.697-0.665-0.871
			c-0.284-0.111-0.648-0.159-0.966-0.159c-0.901,0-2.563,0.285-2.563,3.055c0,1.772,0.712,2.912,2.563,2.912
			c0.317,0,0.682-0.048,0.966-0.158c0.443-0.174,0.665-0.364,0.665-0.871V2.911z"/>
	</g>
	<g>
		<path fill="#1D1D1B" d="M61.266,25.977h-1.061c-0.222,0-0.269-0.094-0.301-0.19l-1.092-3.434c-0.032-0.08-0.047-0.142-0.111-0.19
			c-0.047-0.032-0.126-0.032-0.269-0.032H55.33c-0.126,0-0.206,0-0.253,0.032c-0.063,0.048-0.08,0.127-0.111,0.206l-1.124,3.418
			c-0.032,0.097-0.079,0.19-0.3,0.19H52.75c-0.19,0-0.269-0.079-0.269-0.205c0-0.111,0.016-0.111,0.047-0.222l3.34-9.513
			c0.158-0.459,0.222-0.744,0.728-0.744h0.95c0.522,0,0.57,0.238,0.729,0.712l3.213,9.545c0.032,0.11,0.047,0.11,0.047,0.222
			C61.535,25.897,61.456,25.977,61.266,25.977z M58.322,20.785l-1.267-3.973c-0.032-0.079-0.047-0.158-0.126-0.158
			s-0.111,0.11-0.126,0.174l-1.314,3.957c-0.016,0.063-0.047,0.127-0.047,0.189c0,0.096,0.079,0.111,0.221,0.111h2.485
			c0.143,0,0.221-0.015,0.221-0.111C58.369,20.912,58.337,20.849,58.322,20.785z"/>
		<path fill="#1D1D1B" d="M69.257,25.977h-0.854c-0.19,0-0.221-0.094-0.221-0.205c0-0.063,0-0.111-0.159-0.111
			c-0.348,0-0.839,0.443-2.041,0.443c-2.327,0-3.657-1.519-3.657-3.988c0-2.723,1.52-4.195,3.799-4.195
			c1.124,0,1.662,0.444,1.804,0.444c0.111,0,0.143-0.08,0.143-0.207v-2.975c0-0.254,0.158-0.285,0.285-0.285h0.901
			c0.126,0,0.284,0.031,0.284,0.285v10.51C69.541,25.946,69.383,25.977,69.257,25.977z M68.071,20.057
			c0-0.506-0.222-0.697-0.665-0.871c-0.285-0.11-0.649-0.159-0.966-0.159c-0.901,0-2.564,0.286-2.564,3.056
			c0,1.772,0.712,2.912,2.564,2.912c0.317,0,0.681-0.048,0.966-0.159c0.443-0.174,0.665-0.364,0.665-0.87V20.057z"/>
		<path fill="#1D1D1B" d="M78.244,22.178h-4.986c-0.142,0-0.237,0.063-0.237,0.222c0,1.836,1.187,2.596,2.612,2.596
			c0.966,0,1.725-0.333,2.025-0.491c0.095-0.047,0.142-0.079,0.254-0.079c0.174,0,0.222,0.127,0.222,0.253v0.538
			c0,0.207-0.017,0.301-0.174,0.412c-0.396,0.301-1.521,0.475-2.486,0.475c-2.042,0-4.005-0.902-4.005-4.005
			c0-2.247,1.203-4.178,3.657-4.178c2.927,0,3.403,2.327,3.403,3.593v0.379C78.529,22.147,78.37,22.178,78.244,22.178z
			 M75.078,18.996c-1.709,0-2.057,1.441-2.057,1.963c0,0.095,0.031,0.158,0.19,0.158h3.592c0.143,0,0.19-0.032,0.19-0.206
			C76.994,19.424,75.901,18.996,75.078,18.996z"/>
		<path fill="#1D1D1B" d="M86.68,25.977h-0.901c-0.126,0-0.285-0.03-0.285-0.284v-4.638c0-0.744-0.078-1.188-0.349-1.519
			c-0.316-0.349-0.822-0.522-1.487-0.522c-0.364,0-0.792,0.079-1.108,0.206c-0.41,0.159-0.617,0.348-0.617,0.807v5.667
			c0,0.254-0.158,0.284-0.284,0.284h-0.902c-0.127,0-0.284-0.03-0.284-0.284v-7.361c0-0.253,0.157-0.285,0.284-0.285h0.855
			c0.188,0,0.221,0.095,0.221,0.206c0,0.063,0,0.111,0.157,0.111c0.19,0,0.444-0.08,0.586-0.144c0.46-0.19,1.093-0.3,1.584-0.3
			c0.901,0,1.725,0.237,2.216,0.792c0.522,0.57,0.601,1.267,0.601,2.564v4.416C86.965,25.946,86.807,25.977,86.68,25.977z"/>
		<path fill="#1D1D1B" d="M94.848,25.977h-0.855c-0.189,0-0.222-0.094-0.222-0.205c0-0.063,0-0.111-0.157-0.111
			c-0.364,0-0.919,0.443-2.122,0.443c-2.137,0-2.643-1.093-2.643-2.185c0-1.534,1.044-2.042,2.501-2.5l1.852-0.57
			c0.269-0.08,0.459-0.174,0.459-0.491v-0.253c0-0.522-0.11-1.061-1.472-1.061c-1.313,0-1.979,0.396-2.327,0.585
			c-0.096,0.048-0.143,0.08-0.253,0.08c-0.142,0-0.205-0.112-0.205-0.254v-0.585c0-0.19,0-0.286,0.157-0.396
			c0.222-0.159,1.188-0.554,2.771-0.554c1.503,0,2.025,0.411,2.263,0.649c0.428,0.426,0.538,0.917,0.538,2.105v5.018
			C95.132,25.946,94.975,25.977,94.848,25.977z M93.66,21.988c0-0.111-0.031-0.159-0.127-0.159c-0.11,0-0.11,0.017-0.254,0.063
			l-1.265,0.428c-0.855,0.285-1.614,0.475-1.614,1.503c0,0.902,0.648,1.171,1.455,1.171c0.443,0,0.95-0.063,1.346-0.253
			c0.396-0.189,0.459-0.364,0.459-0.791V21.988z"/>
		<path fill="#1D1D1B" d="M103.632,25.977h-0.855c-0.189,0-0.221-0.094-0.221-0.205c0-0.063,0-0.111-0.159-0.111
			c-0.189,0-0.442,0.079-0.585,0.143c-0.459,0.19-1.107,0.301-1.599,0.301c-0.902,0-1.726-0.221-2.217-0.775
			c-0.522-0.57-0.585-1.267-0.585-2.564v-4.432c0-0.253,0.158-0.285,0.285-0.285h0.902c0.126,0,0.284,0.032,0.284,0.285v4.654
			c0,0.744,0.063,1.187,0.333,1.52c0.315,0.349,0.823,0.506,1.488,0.506c0.363,0,0.806-0.079,1.123-0.206
			c0.412-0.158,0.618-0.348,0.618-0.807v-5.667c0-0.253,0.157-0.285,0.284-0.285h0.902c0.126,0,0.285,0.032,0.285,0.285v7.361
			C103.917,25.946,103.758,25.977,103.632,25.977z"/>
		<path fill="#1D1D1B" d="M112.622,22.178h-4.986c-0.143,0-0.237,0.063-0.237,0.222c0,1.836,1.187,2.596,2.612,2.596
			c0.965,0,1.726-0.333,2.024-0.491c0.097-0.047,0.144-0.079,0.254-0.079c0.174,0,0.222,0.127,0.222,0.253v0.538
			c0,0.207-0.016,0.301-0.175,0.412c-0.396,0.301-1.519,0.475-2.484,0.475c-2.042,0-4.004-0.902-4.004-4.005
			c0-2.247,1.202-4.178,3.656-4.178c2.928,0,3.402,2.327,3.402,3.593v0.379C112.906,22.147,112.749,22.178,112.622,22.178z
			 M109.456,18.996c-1.709,0-2.058,1.441-2.058,1.963c0,0.095,0.032,0.158,0.189,0.158h3.594c0.142,0,0.19-0.032,0.19-0.206
			C111.372,19.424,110.279,18.996,109.456,18.996z"/>
		<path fill="#1D1D1B" d="M118.842,19.313c-0.237,0-0.316-0.127-1.155-0.127c-1.202,0-1.376,0.665-1.376,1.251v5.255
			c0,0.254-0.16,0.284-0.286,0.284h-0.901c-0.127,0-0.286-0.03-0.286-0.284v-7.361c0-0.253,0.159-0.285,0.286-0.285h0.854
			c0.19,0,0.223,0.095,0.223,0.206v0.126c0,0.079,0.078,0.142,0.174,0.142c0.459,0,0.997-0.601,1.994-0.601
			c0.697,0,0.697,0.237,0.697,0.522v0.633C119.064,19.218,119.001,19.313,118.842,19.313z"/>
	</g>
	<g>
		<path fill="#1D1D1B" d="M55.742,43.25c-1.156,0-2.089-0.316-2.485-0.569c-0.158-0.096-0.19-0.206-0.19-0.396v-0.633
			c0-0.126,0.032-0.253,0.222-0.253c0.159,0,0.237,0.079,0.364,0.143c0.285,0.158,0.854,0.554,2.042,0.554
			c1.361,0,1.931-0.681,1.931-1.566c0-0.919-0.539-1.298-1.203-1.741l-1.267-0.84c-0.886-0.585-1.883-1.219-1.883-2.722
			c0-1.947,1.33-2.786,3.197-2.786c1.061,0,1.947,0.333,2.295,0.57c0.159,0.11,0.19,0.205,0.19,0.396v0.634
			c0,0.126-0.031,0.252-0.222,0.252c-0.158,0-0.237-0.078-0.364-0.142c-0.332-0.174-0.902-0.555-1.915-0.555
			c-1.567,0-1.678,1.014-1.678,1.33c0,0.744,0.285,1.107,1.409,1.836l1.203,0.775c0.934,0.602,1.757,1.234,1.757,2.691
			C59.145,42.696,57.198,43.25,55.742,43.25z"/>
		<path fill="#1D1D1B" d="M63.75,43.25c-0.57,0-1.219-0.11-1.662-0.475c-0.539-0.443-0.649-1.188-0.649-2.12v-4.18
			c0-0.143-0.079-0.189-0.143-0.189h-0.839c-0.127,0-0.285-0.032-0.285-0.285v-0.522c0-0.253,0.158-0.285,0.285-0.285h0.839
			c0.063,0,0.143-0.047,0.143-0.189v-1.63c0-0.254,0.158-0.285,0.285-0.285h0.902c0.126,0,0.285,0.031,0.285,0.285v1.63
			c0,0.143,0.079,0.189,0.142,0.189h2.09c0.126,0,0.284,0.032,0.284,0.285v0.522c0,0.253-0.158,0.285-0.284,0.285h-2.09
			c-0.063,0-0.142,0.047-0.142,0.189v4.18c0,0.489,0.016,0.695,0.111,0.917c0.126,0.317,0.396,0.555,0.981,0.555
			c0.776,0,0.998-0.301,1.203-0.301c0.126,0,0.221,0.063,0.221,0.253v0.602C65.428,43.107,64.32,43.25,63.75,43.25z"/>
		<path fill="#1D1D1B" d="M67.771,33.816c-0.586,0-0.887-0.316-0.887-0.901c0-0.555,0.349-0.871,0.903-0.871
			c0.57,0,0.886,0.316,0.886,0.886C68.673,33.532,68.356,33.816,67.771,33.816z M68.229,43.123h-0.902
			c-0.126,0-0.285-0.03-0.285-0.284v-7.36c0-0.253,0.158-0.285,0.285-0.285h0.902c0.127,0,0.285,0.032,0.285,0.285v7.36
			C68.515,43.093,68.356,43.123,68.229,43.123z"/>
		<path fill="#1D1D1B" d="M74.366,33.231c-0.19,0-0.301-0.19-0.76-0.19c-0.918,0-0.902,0.712-0.902,1.235v0.728
			c0,0.143,0.079,0.189,0.143,0.189h1.345c0.126,0,0.285,0.032,0.285,0.285v0.522c0,0.253-0.159,0.285-0.285,0.285h-1.345
			c-0.064,0-0.143,0.047-0.143,0.189v6.363c0,0.254-0.158,0.284-0.284,0.284h-0.902c-0.127,0-0.286-0.03-0.286-0.284v-6.363
			c0-0.143-0.079-0.189-0.142-0.189h-0.838c-0.126,0-0.284-0.032-0.284-0.285v-0.522c0-0.253,0.158-0.285,0.284-0.285h0.838
			c0.063,0,0.142-0.047,0.142-0.189v-0.713c0-0.489,0-1.361,0.681-1.914c0.443-0.364,0.918-0.46,1.487-0.46
			c0.808,0,1.171,0.174,1.171,0.46v0.601C74.572,33.168,74.508,33.231,74.366,33.231z"/>
	</g>
	<g>
		<path fill="#1D1D1B" d="M78.782,43.25c-0.57,0-1.219-0.11-1.661-0.475c-0.538-0.443-0.648-1.188-0.648-2.12v-4.18
			c0-0.143-0.08-0.189-0.144-0.189H75.49c-0.126,0-0.284-0.032-0.284-0.285v-0.522c0-0.253,0.158-0.285,0.284-0.285h0.839
			c0.063,0,0.144-0.047,0.144-0.189v-1.63c0-0.254,0.157-0.285,0.284-0.285h0.902c0.127,0,0.284,0.031,0.284,0.285v1.63
			c0,0.143,0.08,0.189,0.144,0.189h2.089c0.126,0,0.285,0.032,0.285,0.285v0.522c0,0.253-0.159,0.285-0.285,0.285h-2.089
			c-0.063,0-0.144,0.047-0.144,0.189v4.18c0,0.489,0.017,0.695,0.111,0.917c0.127,0.317,0.396,0.555,0.981,0.555
			c0.776,0,0.997-0.301,1.202-0.301c0.127,0,0.223,0.063,0.223,0.253v0.602C80.461,43.107,79.353,43.25,78.782,43.25z"/>
		<path fill="#1D1D1B" d="M88.216,43.123h-0.854c-0.189,0-0.222-0.094-0.222-0.204c0-0.063,0-0.112-0.158-0.112
			c-0.19,0-0.442,0.079-0.586,0.143c-0.458,0.19-1.107,0.301-1.598,0.301c-0.902,0-1.726-0.221-2.217-0.775
			c-0.522-0.569-0.585-1.267-0.585-2.564v-4.432c0-0.253,0.158-0.285,0.285-0.285h0.901c0.127,0,0.285,0.032,0.285,0.285v4.653
			c0,0.744,0.063,1.188,0.332,1.52c0.316,0.349,0.823,0.507,1.488,0.507c0.364,0,0.807-0.079,1.124-0.205
			c0.411-0.16,0.617-0.349,0.617-0.809v-5.666c0-0.253,0.158-0.285,0.285-0.285h0.901c0.127,0,0.285,0.032,0.285,0.285v7.36
			C88.501,43.093,88.343,43.123,88.216,43.123z"/>
		<path fill="#1D1D1B" d="M97.158,43.123h-0.901c-0.126,0-0.285-0.03-0.285-0.284v-4.638c0-0.744-0.078-1.187-0.349-1.52
			c-0.316-0.349-0.822-0.522-1.487-0.522c-0.364,0-0.792,0.08-1.107,0.206c-0.411,0.158-0.618,0.349-0.618,0.807v5.667
			c0,0.254-0.157,0.284-0.284,0.284h-0.902c-0.127,0-0.284-0.03-0.284-0.284v-7.36c0-0.253,0.157-0.285,0.284-0.285h0.855
			c0.188,0,0.221,0.096,0.221,0.207c0,0.063,0,0.11,0.158,0.11c0.189,0,0.443-0.08,0.585-0.144c0.46-0.188,1.093-0.301,1.584-0.301
			c0.902,0,1.725,0.237,2.216,0.792c0.522,0.57,0.602,1.267,0.602,2.564v4.416C97.444,43.093,97.285,43.123,97.158,43.123z"/>
		<path fill="#1D1D1B" d="M106.322,44.754c-0.538,1.188-1.898,1.646-3.671,1.646c-1.298,0-2.454-0.395-2.723-0.585
			c-0.159-0.111-0.159-0.206-0.159-0.396v-0.57c0-0.142,0.063-0.253,0.206-0.253c0.111,0,0.159,0.031,0.254,0.079
			c0.349,0.189,1.14,0.602,2.532,0.602c0.586,0,1.313-0.11,1.805-0.443c0.491-0.332,0.554-0.918,0.554-1.472v-0.522
			c0-0.127-0.031-0.206-0.143-0.206c-0.189,0-0.791,0.49-1.946,0.49c-2.326,0-3.656-1.455-3.656-3.925
			c0-2.723,1.52-4.132,3.798-4.132c1.124,0,1.536,0.444,1.885,0.444c0.174,0,0.174-0.048,0.174-0.11
			c0-0.111,0.015-0.207,0.222-0.207h0.854c0.078,0,0.285,0,0.285,0.285v7.534C106.593,43.836,106.513,44.327,106.322,44.754z
			 M105.12,37.205c0-0.508-0.222-0.697-0.664-0.872c-0.285-0.11-0.649-0.157-0.966-0.157c-0.902,0-2.564,0.221-2.564,2.991
			c0,1.772,0.712,2.85,2.564,2.85c0.316,0,0.681-0.048,0.966-0.16c0.442-0.174,0.664-0.363,0.664-0.869V37.205z"/>
	</g>
	<rect x="1" y="-1.277" fill="none" stroke="#1D1D1B" stroke-width="0.9233" width="43.938" height="43.939"/>
	<g>
		<polygon fill="none" stroke="#1D1D1B" stroke-width="0.9233" points="34.754,2.874 20.475,22.932 34.754,22.932 		"/>
		<polygon fill="none" stroke="#1D1D1B" stroke-width="0.9233" points="15.364,30.112 6.43,42.662 34.754,42.662 34.754,30.112 		
			"/>
	</g>
</g>
</svg>
