<?xml version="1.0" encoding="utf-8"?>
<!-- Generator: Adobe Illustrator 14.0.0, SVG Export Plug-In . SVG Version: 6.00 Build 43363)  -->
<!DOCTYPE svg PUBLIC "-//W3C//DTD SVG 1.1//EN" "http://www.w3.org/Graphics/SVG/1.1/DTD/svg11.dtd">
<svg version="1.1" id="Ebene_1" xmlns="http://www.w3.org/2000/svg" xmlns:xlink="http://www.w3.org/1999/xlink" x="0px" y="0px"
	 width="944.531px" height="389.219px" viewBox="0 -1 944.531 389.219" enable-background="new 0 -1 944.531 389.219"
	 xml:space="preserve">
<g>
	<g>
		<path fill="#1D1D1B" d="M477.688,87.656h-8.863c-1.648,0-2.41-0.633-3.289-1.906L437.68,48.406
			c-0.887-1.148-1.391-1.016-2.152-1.016c-0.758,0-1.648,0.129-1.648,1.648v36.336c0,2.023-1.262,2.281-2.277,2.281h-7.723
			c-1.008,0-2.277-0.258-2.277-2.281V5.479c0-2.031,1.27-2.281,2.277-2.281h7.723c1.016,0,2.277,0.25,2.277,2.281v32.277
			c0,1.395,0.633,1.648,1.512,1.648c0.891,0,1.52-0.254,2.023-0.879L466.04,5.22c1.512-1.773,2.151-2.023,3.664-2.023h6.97
			c0.891,0,2.021,0.375,2.021,1.512c0,0.891-0.24,1.266-1.133,2.281l-29.379,33.315c-0.504,0.625-0.75,1.008-0.75,1.512
			c0,0.504,0.254,0.887,0.504,1.262l30.891,40.648c0.641,0.891,1.141,1.395,1.141,2.281
			C479.969,87.398,478.828,87.656,477.688,87.656z"/>
		<path fill="#1D1D1B" d="M516.055,88.672c-19.883,0-30.391-12.922-30.391-32.543c0-18.992,9.865-32.922,30.508-32.922
			c19.891,0,30.391,12.922,30.391,32.543C546.562,74.742,536.695,88.672,516.055,88.672z M516.055,31.945
			c-14.945,0-17.984,11.773-17.984,24.438c0,12.41,3.297,23.555,18.102,23.555c14.953,0,17.984-11.777,17.984-24.441
			C534.172,43.078,530.875,31.945,516.055,31.945z"/>
		<path fill="#1D1D1B" d="M611.75,87.656h-7.219c-1.016,0-2.266-0.258-2.266-2.281V48.273c0-5.953-0.641-9.5-2.797-12.152
			c-2.531-2.785-6.594-4.176-11.906-4.176c-2.906,0-6.328,0.629-8.859,1.648c-3.297,1.262-4.938,2.773-4.938,6.453v45.328
			c0,2.023-1.266,2.281-2.281,2.281h-7.211c-1.008,0-2.289-0.258-2.289-2.281V26.495c0-2.023,1.281-2.281,2.289-2.281h6.836
			c1.508,0,1.766,0.762,1.766,1.648c0,0.504,0,0.887,1.266,0.887c1.523,0,3.555-0.637,4.689-1.141
			c3.672-1.523,8.732-2.41,12.672-2.41c7.211,0,13.805,1.895,17.719,6.336c4.172,4.559,4.811,10.129,4.811,20.512v35.328
			C614.023,87.398,612.766,87.656,611.75,87.656z"/>
		<path fill="#1D1D1B" d="M664.93,34.351c-1.898,0-2.531-1.008-9.242-1.008c-9.625,0-11.016,5.32-11.016,10v42.039
			c0,2.023-1.268,2.281-2.273,2.281h-7.211c-1.016,0-2.281-0.258-2.281-2.281V26.503c0-2.023,1.266-2.281,2.281-2.281h6.828
			c1.516,0,1.781,0.762,1.781,1.648v1.008c0,0.633,0.625,1.145,1.391,1.145c3.672,0,7.984-4.816,15.953-4.816
			c5.57,0,5.57,1.895,5.57,4.176v5.066C666.703,33.582,666.203,34.351,664.93,34.351z"/>
		<path fill="#1D1D1B" d="M721.273,87.656h-6.836c-1.508,0-1.766-0.762-1.766-1.648c0-0.504,0-0.887-1.273-0.887
			c-2.898,0-7.344,3.543-16.961,3.543c-17.102,0-21.148-8.746-21.148-17.48c0-12.281,8.352-16.336,20.008-20l14.812-4.559
			c2.156-0.633,3.672-1.395,3.672-3.93v-2.016c0-4.176-0.891-8.48-11.773-8.48c-10.508,0-15.836,3.16-18.617,4.68
			c-0.766,0.379-1.141,0.633-2.023,0.633c-1.146,0-1.646-0.887-1.646-2.023v-4.68c0-1.52,0-2.281,1.266-3.168
			c1.781-1.273,9.5-4.434,22.156-4.434c12.031,0,16.211,3.297,18.117,5.191c3.414,3.418,4.305,7.344,4.305,16.84v40.137
			C723.547,87.398,722.289,87.656,721.273,87.656z M711.781,55.75c0-0.887-0.25-1.27-1.016-1.27c-0.875,0-0.875,0.137-2.031,0.504
			l-10.117,3.422c-6.836,2.281-12.922,3.793-12.922,12.023c0,7.219,5.195,9.371,11.648,9.371c3.547,0,7.602-0.504,10.766-2.027
			c3.172-1.516,3.672-2.91,3.672-6.324V55.75z"/>
		<path fill="#1D1D1B" d="M793.828,87.656h-6.836c-1.508,0-1.773-0.762-1.773-1.648c0-0.504,0-0.887-1.266-0.887
			c-2.797,0-6.719,3.543-16.328,3.543c-18.617,0-29.25-12.16-29.25-31.914c0-21.781,12.156-33.559,30.391-33.559
			c8.984,0,13.289,3.551,14.438,3.551c0.893,0,1.143-0.641,1.143-1.656V1.281c0-2.023,1.266-2.281,2.279-2.281h7.221
			c1,0,2.266,0.246,2.266,2.281v84.078C796.109,87.398,794.844,87.656,793.828,87.656z M784.336,40.305
			c0-4.047-1.773-5.578-5.32-6.969c-2.273-0.887-5.188-1.273-7.727-1.273c-7.211,0-20.508,2.281-20.508,24.441
			c0,14.176,5.703,23.297,20.508,23.297c2.539,0,5.453-0.387,7.727-1.266c3.547-1.391,5.32-2.91,5.32-6.969V40.305z"/>
	</g>
	<g>
		<path fill="#1D1D1B" d="M482.125,224.832h-8.484c-1.777,0-2.152-0.754-2.41-1.52l-8.733-27.473
			c-0.259-0.642-0.375-1.138-0.888-1.521c-0.379-0.259-1.008-0.259-2.151-0.259H434.64c-1.008,0-1.648,0-2.023,0.259
			c-0.504,0.383-0.641,1.016-0.891,1.647l-8.992,27.346c-0.254,0.772-0.629,1.52-2.398,1.52H414c-1.52,0-2.152-0.633-2.152-1.641
			c0-0.887,0.129-0.887,0.375-1.777l26.723-76.102c1.262-3.672,1.773-5.953,5.824-5.953h7.597c4.177,0,4.562,1.906,5.832,5.695
			l25.707,76.359c0.25,0.883,0.375,0.883,0.375,1.777C484.281,224.191,483.648,224.832,482.125,224.832z M458.574,183.297
			l-10.133-31.785c-0.258-0.633-0.379-1.266-1.008-1.266c-0.633,0-0.891,0.883-1.008,1.395l-10.515,31.656
			c-0.125,0.504-0.375,1.016-0.375,1.512c0,0.767,0.633,0.888,1.77,0.888h19.879c1.146,0,1.771-0.121,1.771-0.888
			C458.953,184.312,458.695,183.809,458.574,183.297z"/>
		<path fill="#1D1D1B" d="M546.055,224.832h-6.836c-1.518,0-1.768-0.754-1.768-1.641c0-0.504,0-0.887-1.266-0.887
			c-2.789,0-6.719,3.543-16.328,3.543c-18.623,0-29.256-12.152-29.256-31.902c0-21.785,12.164-33.562,30.391-33.562
			c8.992,0,13.297,3.555,14.43,3.555c0.891,0,1.141-0.641,1.141-1.656v-23.801c0-2.031,1.268-2.281,2.281-2.281h7.211
			c1.008,0,2.273,0.25,2.273,2.281v84.078C548.328,224.582,547.062,224.832,546.055,224.832z M536.562,177.473
			c0-4.051-1.766-5.578-5.312-6.969c-2.281-0.879-5.195-1.273-7.734-1.273c-7.203,0-20.508,2.289-20.508,24.449
			c0,14.176,5.695,23.297,20.508,23.297c2.539,0,5.453-0.383,7.734-1.272c3.547-1.392,5.312-2.91,5.312-6.961V177.473z"/>
		<path fill="#1D1D1B" d="M617.953,194.438h-39.891c-1.133,0-1.891,0.508-1.891,1.777c0,14.688,9.492,20.77,20.891,20.77
			c7.734,0,13.797-2.664,16.203-3.93c0.758-0.375,1.133-0.634,2.031-0.634c1.391,0,1.771,1.017,1.771,2.027v4.301
			c0,1.656-0.133,2.41-1.391,3.297c-3.164,2.41-12.164,3.802-19.883,3.802c-16.344,0-32.047-7.215-32.047-32.039
			c0-17.978,9.625-33.426,29.258-33.426c23.416,0.001,27.229,18.618,27.229,28.747v3.031
			C620.234,194.191,618.961,194.438,617.953,194.438z M592.625,168.984c-13.672,0-16.453,11.527-16.453,15.703
			c0,0.762,0.242,1.266,1.516,1.266h28.734c1.141,0,1.523-0.258,1.523-1.648C607.953,172.406,599.203,168.984,592.625,168.984z"/>
		<path fill="#1D1D1B" d="M685.438,224.832h-7.203c-1.016,0-2.281-0.238-2.281-2.273v-37.102c0-5.953-0.625-9.504-2.797-12.152
			c-2.523-2.793-6.57-4.176-11.891-4.176c-2.914,0-6.336,0.629-8.867,1.646c-3.273,1.273-4.93,2.785-4.93,6.457v45.336
			c0,2.034-1.268,2.272-2.281,2.272h-7.211c-1.016,0-2.273-0.238-2.273-2.272V163.68c0-2.023,1.258-2.281,2.273-2.281h6.836
			c1.508,0,1.773,0.762,1.773,1.648c0,0.504,0,0.891,1.258,0.891c1.516,0,3.547-0.641,4.688-1.152
			c3.672-1.52,8.742-2.402,12.672-2.402c7.203,0,13.797,1.898,17.727,6.336c4.18,4.562,4.805,10.137,4.805,20.512v35.328
			C687.719,224.582,686.453,224.832,685.438,224.832z"/>
		<path fill="#1D1D1B" d="M750.781,224.832h-6.836c-1.508,0-1.773-0.754-1.773-1.641c0-0.504,0-0.887-1.266-0.887
			c-2.906,0-7.344,3.543-16.969,3.543c-17.094,0-21.141-8.746-21.141-17.48c0-12.273,8.344-16.336,20-20l14.818-4.559
			c2.148-0.642,3.672-1.396,3.672-3.931v-2.023c0-4.176-0.883-8.488-11.771-8.488c-10.508,0-15.836,3.168-18.625,4.68
			c-0.766,0.383-1.141,0.641-2.016,0.641c-1.141-0.001-1.641-0.895-1.641-2.032v-4.68c0-1.52,0-2.289,1.25-3.168
			c1.781-1.273,9.508-4.434,22.172-4.434c12.023,0,16.203,3.289,18.109,5.191c3.422,3.41,4.297,7.336,4.297,16.84v40.146
			C753.055,224.582,751.797,224.832,750.781,224.832z M741.281,192.918c0-0.887-0.25-1.27-1.016-1.27
			c-0.883,0-0.883,0.137-2.031,0.504l-10.125,3.422c-6.836,2.281-12.906,3.801-12.906,12.027c0,7.215,5.18,9.367,11.641,9.367
			c3.539,0,7.594-0.504,10.766-2.023c3.172-1.516,3.672-2.914,3.672-6.328V192.918L741.281,192.918z"/>
		<path fill="#1D1D1B" d="M821.055,224.832h-6.836c-1.518,0-1.768-0.754-1.768-1.641c0-0.504,0-0.887-1.279-0.887
			c-1.51,0-3.531,0.633-4.674,1.145c-3.672,1.52-8.857,2.406-12.797,2.406c-7.219,0-13.811-1.771-17.732-6.199
			c-4.172-4.562-4.682-10.137-4.682-20.512v-35.458c0-2.023,1.26-2.281,2.273-2.281h7.219c1.018,0,2.273,0.258,2.273,2.281v37.23
			c0,5.953,0.508,9.496,2.664,12.16c2.516,2.793,6.586,4.051,11.906,4.051c2.906,0,6.445-0.633,8.984-1.647
			c3.297-1.266,4.938-2.785,4.938-6.457v-45.336c0-2.023,1.266-2.281,2.281-2.281h7.211c1.008,0,2.281,0.258,2.281,2.281v58.887
			C823.336,224.582,822.062,224.832,821.055,224.832z"/>
		<path fill="#1D1D1B" d="M892.977,194.438h-39.883c-1.148,0-1.906,0.508-1.906,1.777c0,14.688,9.5,20.77,20.906,20.77
			c7.719,0,13.797-2.664,16.188-3.93c0.773-0.375,1.156-0.634,2.031-0.634c1.391,0,1.781,1.017,1.781,2.027v4.301
			c0,1.656-0.135,2.41-1.406,3.297c-3.172,2.41-12.156,3.802-19.875,3.802c-16.328,0-32.031-7.215-32.031-32.039
			c0-17.978,9.617-33.426,29.25-33.426c23.422,0,27.219,18.617,27.219,28.746v3.031C895.25,194.191,893.992,194.438,892.977,194.438
			z M867.648,168.984c-13.672,0-16.461,11.527-16.461,15.703c0,0.762,0.25,1.266,1.508,1.266h28.758
			c1.133,0,1.516-0.258,1.516-1.648C882.977,172.406,874.234,168.984,867.648,168.984z"/>
		<path fill="#1D1D1B" d="M942.734,171.519c-1.891,0-2.531-1.016-9.234-1.016c-9.625,0-11.016,5.32-11.016,10.008v42.04
			c0,2.03-1.281,2.272-2.281,2.272h-7.211c-1.016,0-2.289-0.242-2.289-2.272v-58.887c0-2.023,1.273-2.281,2.289-2.281h6.836
			c1.516,0,1.781,0.762,1.781,1.648v1.008c0,0.633,0.625,1.137,1.391,1.137c3.672,0,7.977-4.809,15.953-4.809
			c5.578,0,5.578,1.898,5.578,4.176v5.066C944.516,170.758,944.008,171.519,942.734,171.519z"/>
	</g>
	<g>
		<path fill="#1D1D1B" d="M437.937,363.016c-9.25,0-16.715-2.531-19.883-4.547c-1.262-0.773-1.52-1.656-1.52-3.173v-5.062
			c0-1.016,0.258-2.031,1.777-2.031c1.273,0,1.895,0.641,2.91,1.148c2.281,1.266,6.832,4.43,16.336,4.43
			c10.891,0,15.449-5.445,15.449-12.523c0-7.352-4.312-10.383-9.625-13.93l-10.137-6.719c-7.086-4.68-15.062-9.75-15.062-21.781
			c0-15.57,10.641-22.281,25.578-22.281c8.484,0,15.574,2.656,18.359,4.555c1.27,0.884,1.52,1.642,1.52,3.173v5.069
			c0,1.008-0.25,2.017-1.777,2.017c-1.262,0-1.895-0.625-2.91-1.142c-2.655-1.391-7.219-4.438-15.319-4.438
			c-12.535,0-13.426,8.109-13.426,10.641c0,5.953,2.281,8.859,11.273,14.688l9.625,6.202c7.469,4.812,14.055,9.875,14.055,21.531
			C465.16,358.578,449.586,363.016,437.937,363.016z"/>
		<path fill="#1D1D1B" d="M502,363.016c-4.562,0-9.75-0.875-13.297-3.797c-4.312-3.548-5.188-9.509-5.188-16.961v-33.445
			c0-1.142-0.641-1.508-1.148-1.508h-6.711c-1.017,0-2.281-0.259-2.281-2.281v-4.18c0-2.017,1.266-2.281,2.281-2.281h6.711
			c0.508,0,1.148-0.375,1.148-1.508v-13.039c0-2.031,1.266-2.281,2.281-2.281h7.211c1.008,0,2.281,0.25,2.281,2.281v13.039
			c0,1.147,0.633,1.508,1.133,1.508h16.719c1.016,0,2.273,0.266,2.273,2.281v4.18c0,2.022-1.26,2.281-2.273,2.281h-16.719
			c-0.5,0-1.133,0.375-1.133,1.508v33.445c0,3.913,0.125,5.555,0.883,7.336c1.016,2.53,3.172,4.438,7.852,4.438
			c6.211,0,7.984-2.406,9.625-2.406c1.008,0,1.768,0.5,1.768,2.023v4.82C515.422,361.875,506.562,363.016,502,363.016z"/>
		<path fill="#1D1D1B" d="M534.172,287.547c-4.688,0-7.102-2.531-7.102-7.211c0-4.445,2.789-6.969,7.227-6.969
			c4.562,0,7.086,2.523,7.086,7.086C541.383,285.273,538.844,287.547,534.172,287.547z M537.828,362h-7.211
			c-1.008,0-2.281-0.242-2.281-2.273v-58.883c0-2.016,1.266-2.281,2.281-2.281h7.211c1.016,0,2.281,0.267,2.281,2.281v58.883
			C540.125,361.758,538.844,362,537.828,362z"/>
		<path fill="#1D1D1B" d="M586.93,282.859c-1.523,0-2.414-1.516-6.086-1.516c-7.344,0-7.211,5.694-7.211,9.875v5.827
			c0,1.142,0.633,1.517,1.146,1.517h10.75c1.018,0,2.281,0.25,2.281,2.281v4.172c0,2.022-1.266,2.28-2.281,2.28h-10.75
			c-0.516,0-1.146,0.375-1.146,1.517v50.897c0,2.031-1.268,2.273-2.273,2.273h-7.219c-1.016,0-2.281-0.242-2.281-2.273v-50.897
			c0-1.148-0.641-1.517-1.141-1.517h-6.703c-1.008,0-2.273-0.258-2.273-2.28v-4.172c0-2.031,1.266-2.281,2.273-2.281h6.703
			c0.5,0,1.141-0.375,1.141-1.517v-5.702c0-3.914,0-10.892,5.445-15.312c3.539-2.906,7.344-3.68,11.896-3.68
			c6.463,0,9.359,1.391,9.359,3.68v4.812C588.578,282.359,588.062,282.859,586.93,282.859z"/>
	</g>
	<g>
		<path fill="#1D1D1B" d="M622.258,363.016c-4.562,0-9.758-0.875-13.289-3.797c-4.305-3.548-5.189-9.509-5.189-16.961v-33.445
			c0-1.142-0.641-1.508-1.146-1.508h-6.711c-1.018,0-2.273-0.259-2.273-2.281v-4.18c0-2.017,1.258-2.281,2.273-2.281h6.711
			c0.508,0,1.146-0.375,1.146-1.508v-13.039c0-2.031,1.26-2.281,2.273-2.281h7.219c1.018,0,2.273,0.25,2.273,2.281v13.039
			c0,1.147,0.641,1.508,1.148,1.508h16.711c1.008,0,2.281,0.266,2.281,2.281v4.18c0,2.022-1.273,2.281-2.281,2.281h-16.711
			c-0.508,0-1.148,0.375-1.148,1.508v33.445c0,3.913,0.133,5.555,0.891,7.336c1.016,2.53,3.164,4.438,7.844,4.438
			c6.203,0,7.979-2.406,9.609-2.406c1.016,0,1.789,0.5,1.789,2.023v4.82C635.688,361.875,626.828,363.016,622.258,363.016z"/>
		<path fill="#1D1D1B" d="M697.727,362h-6.836c-1.508,0-1.766-0.75-1.766-1.633c0-0.508,0-0.898-1.268-0.898
			c-1.521,0-3.539,0.633-4.688,1.148c-3.672,1.523-8.859,2.406-12.789,2.406c-7.211,0-13.805-1.766-17.734-6.195
			c-4.18-4.555-4.68-10.141-4.68-20.516v-35.453c0-2.031,1.266-2.281,2.281-2.281h7.203c1.016,0,2.281,0.25,2.281,2.281v37.219
			c0,5.953,0.5,9.5,2.656,12.156c2.531,2.797,6.586,4.062,11.906,4.062c2.904,0,6.453-0.633,8.992-1.641
			c3.287-1.281,4.93-2.797,4.93-6.47v-45.327c0-2.031,1.266-2.281,2.281-2.281h7.211c1.016,0,2.279,0.25,2.279,2.281v58.875
			C700.008,361.758,698.742,362,697.727,362z"/>
		<path fill="#1D1D1B" d="M769.266,362h-7.211c-1.008,0-2.273-0.242-2.273-2.273v-37.102c0-5.953-0.625-9.5-2.797-12.156
			c-2.531-2.797-6.578-4.18-11.891-4.18c-2.922,0-6.346,0.641-8.859,1.648c-3.289,1.266-4.945,2.789-4.945,6.453v45.336
			c0,2.031-1.258,2.272-2.273,2.272h-7.219c-1.016,0-2.266-0.241-2.266-2.272v-58.883c0-2.017,1.25-2.281,2.266-2.281h6.844
			c1.5,0,1.766,0.772,1.766,1.656c0,0.508,0,0.883,1.268,0.883c1.516,0,3.547-0.633,4.68-1.148c3.68-1.5,8.742-2.406,12.672-2.406
			c7.211,0,13.805,1.891,17.727,6.328c4.18,4.562,4.812,10.141,4.812,20.516v35.328C771.547,361.758,770.281,362,769.266,362z"/>
		<path fill="#1D1D1B" d="M842.578,375.047c-4.305,9.5-15.188,13.172-29.375,13.172c-10.375,0-19.625-3.164-21.781-4.688
			c-1.266-0.883-1.266-1.641-1.266-3.164v-4.555c0-1.142,0.5-2.031,1.641-2.031c0.891,0,1.273,0.25,2.031,0.633
			c2.797,1.516,9.125,4.82,20.266,4.82c4.688,0,10.5-0.883,14.438-3.547c3.922-2.656,4.43-7.344,4.43-11.781v-4.172
			c0-1.016-0.25-1.648-1.146-1.648c-1.508,0-6.328,3.922-15.562,3.922c-18.609,0-29.25-11.641-29.25-31.397
			c0-21.781,12.156-33.062,30.383-33.062c8.992,0,12.289,3.555,15.086,3.555c1.391,0,1.391-0.383,1.391-0.883
			c0-0.884,0.117-1.656,1.773-1.656h6.836c0.625,0,2.273,0,2.273,2.281v60.28C844.742,367.703,844.109,371.633,842.578,375.047z
			 M832.961,314.656c0-4.062-1.773-5.578-5.312-6.977c-2.281-0.884-5.195-1.259-7.727-1.259c-7.219,0-20.516,1.767-20.516,23.931
			c0,14.18,5.703,22.805,20.516,22.805c2.531,0,5.445-0.391,7.727-1.281c3.539-1.391,5.312-2.906,5.312-6.953V314.656z"/>
	</g>
	<rect y="6.801" fill="none" stroke="#1D1D1B" stroke-width="0.9233" width="351.504" height="351.511"/>
	<g>
		<polygon fill="none" stroke="#1D1D1B" stroke-width="0.9233" points="270.031,40.008 155.8,200.473 270.031,200.473 		"/>
		<polygon fill="none" stroke="#1D1D1B" stroke-width="0.9233" points="114.91,257.906 43.441,358.312 270.031,358.312 
			270.031,257.906 		"/>
	</g>
</g>
</svg>
