<?xml version="1.0" encoding="utf-8"?>
<!-- Generator: Adobe Illustrator 14.0.0, SVG Export Plug-In . SVG Version: 6.00 Build 43363)  -->
<!DOCTYPE svg PUBLIC "-//W3C//DTD SVG 1.1//EN" "http://www.w3.org/Graphics/SVG/1.1/DTD/svg11.dtd">
<svg version="1.1"
	 id="svg4388" xmlns:inkscape="http://www.inkscape.org/namespaces/inkscape" xmlns:cc="http://creativecommons.org/ns#" xmlns:rdf="http://www.w3.org/1999/02/22-rdf-syntax-ns#" xmlns:svg="http://www.w3.org/2000/svg" sodipodi:docname="peeker-linkpeek.svg" inkscape:version="0.48.4 r9939" inkscape:export-xdpi="314.50253" inkscape:export-ydpi="314.50253" xmlns:dc="http://purl.org/dc/elements/1.1/" xmlns:sodipodi="http://sodipodi.sourceforge.net/DTD/sodipodi-0.dtd" inkscape:export-filename="/home/fox/hg/linkpeek/linkpeek/static/img/peeker-linkpeek.png"
	 xmlns="http://www.w3.org/2000/svg" xmlns:xlink="http://www.w3.org/1999/xlink" x="0px" y="0px" width="855px" height="558.25px"
	 viewBox="-322.884 -631.108 855 558.25" enable-background="new -322.884 -631.108 855 558.25" xml:space="preserve">
<sodipodi:namedview  id="base" inkscape:window-maximized="1" inkscape:cx="163.90475" inkscape:pageopacity="0.0" inkscape:cy="156.79206" inkscape:pageshadow="2" showgrid="false" bordercolor="#666666" pagecolor="#ffffff" inkscape:window-y="27" inkscape:window-width="1366" inkscape:document-units="px" inkscape:current-layer="layer1" inkscape:window-height="709" borderopacity="1.0" inkscape:zoom="1.8268054" inkscape:window-x="0">
	</sodipodi:namedview>
<g id="layer1" transform="translate(0,-180)" inkscape:label="Layer 1" inkscape:groupmode="layer">
	<path id="path3901" inkscape:connector-curvature="0" fill="#53B7F9" stroke="#3E5768" stroke-width="4" d="M147.484-350.938
		c-211.156,0-382.336,171.18-382.336,382.336c0,25.254,2.562,49.777,7.234,73.664h750.21c4.672-23.887,7.234-48.41,7.234-73.664
		C529.829-179.758,358.648-350.938,147.484-350.938z"/>
	
		<path id="path3970-0-0" sodipodi:type="arc" sodipodi:cx="59.5" sodipodi:cy="175.5" sodipodi:rx="13.5" sodipodi:ry="13.5" fill="#FFFFFF" stroke="#3E5768" stroke-width="3.5015" d="
		M-73.73-71.723c0,68.137-55.238,123.375-123.375,123.375S-320.48-3.586-320.48-71.723c0-68.137,55.238-123.371,123.375-123.371
		S-73.73-139.859-73.73-71.723z"/>
	
		<path id="path3970-5-3-5" inkscape:transform-center-x="-7.2196176" inkscape:transform-center-y="-1.5369665e-05" sodipodi:type="arc" sodipodi:cx="59.5" sodipodi:cy="175.5" sodipodi:rx="13.5" sodipodi:ry="13.5" fill="#FFFFFF" stroke="#3E5768" stroke-width="2.3799" d="
		M340.133-268.008c0,100.25-81.273,181.523-181.523,181.523c-100.254,0-181.523-81.273-181.523-181.523
		s81.27-181.523,181.523-181.523C258.859-449.531,340.133-368.258,340.133-268.008z"/>
	
		<path id="path4017-6-7" sodipodi:type="arc" sodipodi:cx="112" sodipodi:cy="162" sodipodi:rx="6" sodipodi:ry="6" fill="#3E5768" stroke="#3E5768" stroke-width="3.8229" stroke-linecap="round" d="
		M207.859-270.918c0,27.738-22.484,50.223-50.227,50.223c-27.743,0-50.227-22.484-50.227-50.223s22.484-50.223,50.227-50.223
		C185.375-321.141,207.859-298.656,207.859-270.918z"/>
	
		<path id="path4019-4-6" sodipodi:type="arc" sodipodi:cx="57.5" sodipodi:cy="171.5" sodipodi:rx="3.5" sodipodi:ry="3.5" fill="#3E5768" stroke="#3E5768" stroke-width="3.7891" stroke-linecap="round" d="
		M-166.582-75.301c0,16.324-13.234,29.559-29.559,29.559c-16.325,0-29.559-13.234-29.559-29.559
		c0-16.325,13.234-29.559,29.559-29.559C-179.816-104.86-166.582-91.625-166.582-75.301z"/>
	
		<path id="path4037" inkscape:export-xdpi="19.913124" inkscape:export-ydpi="19.913124" inkscape:connector-curvature="0" inkscape:export-filename="/home/fox/favicon.ico.png" fill="#53B7F9" stroke="#3E5768" stroke-width="4" stroke-linecap="round" d="
		M321.656,740.312c-57.438-41.82-127.516-67.25-204-67.25c-192.199,0-348.004,155.805-348.004,348c0,32.031,5.648,62.539,13.75,92
		h538.254V740.312L321.656,740.312z"/>
	
		<path id="path3970-0" inkscape:export-xdpi="19.913124" inkscape:export-ydpi="19.913124" inkscape:export-filename="/home/fox/favicon.ico.png" sodipodi:type="arc" sodipodi:cx="59.5" sodipodi:cy="175.5" sodipodi:rx="13.5" sodipodi:ry="13.5" fill="#FFFFFF" stroke="#3E5768" stroke-width="3.5015" d="
		M-81.902,944.273c0,68.141-55.238,123.375-123.375,123.375c-68.141,0-123.375-55.234-123.375-123.375
		c0-68.133,55.234-123.367,123.375-123.367C-137.141,820.906-81.902,876.14-81.902,944.273z"/>
	
		<path id="path3970-5-3" inkscape:export-xdpi="19.913124" inkscape:export-ydpi="19.913124" inkscape:transform-center-x="-7.2196176" inkscape:transform-center-y="-1.5369665e-05" inkscape:export-filename="/home/fox/favicon.ico.png" sodipodi:type="arc" sodipodi:cx="59.5" sodipodi:cy="175.5" sodipodi:rx="13.5" sodipodi:ry="13.5" fill="#FFFFFF" stroke="#3E5768" stroke-width="2.3799" d="
		M331.953,747.992c0,100.25-81.266,181.523-181.516,181.523c-100.254,0-181.523-81.273-181.523-181.523
		s81.27-181.522,181.523-181.522C250.688,566.469,331.953,647.742,331.953,747.992z"/>
	
		<path id="path4017-6" inkscape:export-xdpi="19.913124" inkscape:export-ydpi="19.913124" inkscape:export-filename="/home/fox/favicon.ico.png" sodipodi:type="arc" sodipodi:cx="112" sodipodi:cy="162" sodipodi:rx="6" sodipodi:ry="6" fill="#3E5768" stroke="#3E5768" stroke-width="3.8229" stroke-linecap="round" d="
		M199.688,745.085c0,27.734-22.492,50.219-50.227,50.219c-27.742,0-50.227-22.482-50.227-50.219
		c0-27.742,22.484-50.227,50.227-50.227C177.195,694.859,199.688,717.343,199.688,745.085z"/>
	
		<path id="path4019-4" inkscape:export-xdpi="19.913124" inkscape:export-ydpi="19.913124" inkscape:export-filename="/home/fox/favicon.ico.png" sodipodi:type="arc" sodipodi:cx="57.5" sodipodi:cy="171.5" sodipodi:rx="3.5" sodipodi:ry="3.5" fill="#3E5768" stroke="#3E5768" stroke-width="3.7891" stroke-linecap="round" d="
		M-174.754,940.695c0,16.328-13.234,29.562-29.559,29.562s-29.559-13.234-29.559-29.562c0-16.32,13.234-29.555,29.559-29.555
		S-174.754,924.375-174.754,940.695z"/>
	<g id="flowRoot3020" transform="translate(0,180)">
	</g>
</g>
</svg>
