<?xml version="1.0" encoding="UTF-8" standalone="no"?><!DOCTYPE svg PUBLIC "-//W3C//DTD SVG 1.1//EN" "http://www.w3.org/Graphics/SVG/1.1/DTD/svg11.dtd"><svg width="100%" height="100%" viewBox="0 0 476 460" version="1.1" xmlns="http://www.w3.org/2000/svg" xmlns:xlink="http://www.w3.org/1999/xlink" xml:space="preserve" xmlns:serif="http://www.serif.com/" style="fill-rule:evenodd;clip-rule:evenodd;stroke-linejoin:round;stroke-miterlimit:2;"><rect id="Artboard1" x="0" y="0" width="475.628" height="459.23" style="fill:none;"/><g id="pyramid_logo_red_on_transparent_background"><g id="Group"><path id="Shape" d="M276.639,208.209c6.7,0.027 12.122,5.484 12.09,12.187c-0.022,6.701 -5.48,12.122 -12.19,12.091c-6.693,-0.028 -12.113,-5.481 -12.092,-12.187c0.032,-6.704 5.488,-12.119 12.192,-12.091" style="fill:#ab2430;fill-rule:nonzero;"/><path id="Shape1" serif:id="Shape" d="M318.221,230.883c6.928,4.714 8.73,14.151 4.007,21.082c-4.707,6.931 -14.148,8.728 -21.072,4.014c-6.928,-4.713 -8.727,-14.149 -4.018,-21.083c4.715,-6.927 14.154,-8.726 21.083,-4.013" style="fill:#ab2430;fill-rule:nonzero;"/><path id="Shape2" serif:id="Shape" d="M345.464,283.451c3.89,9.726 -0.844,20.761 -10.578,24.647c-9.723,3.886 -20.761,-0.842 -24.646,-10.573c-3.89,-9.732 0.845,-20.766 10.575,-24.656c9.728,-3.883 20.769,0.853 24.649,10.582" style="fill:#ab2430;fill-rule:nonzero;"/><path id="Shape3" serif:id="Shape" d="M336.96,356.961c-2.771,12.8 -15.398,20.932 -28.196,18.159c-12.796,-2.778 -20.926,-15.396 -18.151,-28.19c2.774,-12.798 15.394,-20.927 28.193,-18.16c12.797,2.774 20.923,15.396 18.154,28.191" style="fill:#ab2430;fill-rule:nonzero;"/><path id="Shape4" serif:id="Shape" d="M276.748,427.201c-11.813,11.328 -30.578,10.929 -41.9,-0.896c-11.325,-11.809 -10.93,-30.573 0.889,-41.895c11.822,-11.333 30.584,-10.933 41.911,0.884c11.319,11.819 10.915,30.584 -0.9,41.907" style="fill:#ab2430;fill-rule:nonzero;"/><path id="Shape5" serif:id="Shape" d="M165.266,457.903c-20.162,3.48 -39.33,-10.052 -42.8,-30.216c-3.477,-20.16 10.043,-39.325 30.214,-42.8c20.16,-3.476 39.325,10.045 42.805,30.22c3.468,20.158 -10.052,39.325 -30.219,42.796" style="fill:#ab2430;fill-rule:nonzero;"/><path id="Shape6" serif:id="Shape" d="M28.272,411.794c-23.328,-10.494 -33.731,-37.905 -23.239,-61.229c10.496,-23.321 37.91,-33.729 61.236,-23.233c23.325,10.49 33.725,37.904 23.236,61.231c-10.498,23.32 -37.911,33.724 -61.233,23.231" style="fill:#ab2430;fill-rule:nonzero;"/><path id="Shape7" serif:id="Shape" d="M174.069,267.923c-3.331,-5.819 -1.312,-13.237 4.506,-16.565c5.819,-3.329 13.24,-1.315 16.566,4.508c3.327,5.82 1.312,13.233 -4.504,16.564c-5.822,3.328 -13.236,1.311 -16.568,-4.507" style="fill:#ab2430;fill-rule:nonzero;"/><path id="Shape8" serif:id="Shape" d="M172.907,220.576c0.618,-8.359 7.898,-14.634 16.263,-14.019c8.35,0.619 14.629,7.888 14.012,16.249c-0.618,8.36 -7.894,14.633 -16.252,14.017c-8.359,-0.616 -14.634,-7.89 -14.023,-16.247" style="fill:#ab2430;fill-rule:nonzero;"/><path id="Shape9" serif:id="Shape" d="M204.815,170.698c6.479,-8.233 18.406,-9.649 26.638,-3.168c8.233,6.477 9.651,18.409 3.171,26.638c-6.492,8.232 -18.409,9.648 -26.644,3.167c-8.226,-6.484 -9.648,-18.408 -3.165,-26.637" style="fill:#ab2430;fill-rule:nonzero;"/><path id="Shape10" serif:id="Shape" d="M272.735,141.308c12.47,-4.005 25.821,2.866 29.819,15.336c3.996,12.474 -2.865,25.825 -15.34,29.822c-12.462,3.994 -25.814,-2.871 -29.816,-15.341c-4.003,-12.469 2.87,-25.82 15.337,-29.817" style="fill:#ab2430;fill-rule:nonzero;"/><path id="Shape11" serif:id="Shape" d="M363.66,158.328c15.725,4.573 24.759,21.022 20.178,36.739c-4.565,15.712 -21.013,24.751 -36.733,20.178c-15.71,-4.573 -24.751,-21.018 -20.178,-36.738c4.575,-15.716 21.024,-24.751 36.733,-20.179" style="fill:#ab2430;fill-rule:nonzero;"/><path id="Shape12" serif:id="Shape" d="M446.002,239.522c13.093,15.728 10.954,39.089 -4.769,52.178c-15.725,13.093 -39.083,10.965 -52.177,-4.765c-13.095,-15.723 -10.956,-39.082 4.77,-52.181c15.724,-13.086 39.081,-10.952 52.176,4.768" style="fill:#ab2430;fill-rule:nonzero;"/><path id="Shape13" serif:id="Shape" d="M474.564,381.222c2.578,25.441 -15.963,48.167 -41.408,50.74c-25.449,2.572 -48.17,-15.961 -50.739,-41.41c-2.573,-25.453 15.968,-48.168 41.417,-50.741c25.437,-2.57 48.152,15.962 50.73,41.411" style="fill:#ab2430;fill-rule:nonzero;"/><path id="Shape14" serif:id="Shape" d="M277.07,326.894c-3.37,5.793 -10.808,7.758 -16.604,4.38c-5.786,-3.373 -7.75,-10.808 -4.378,-16.594c3.379,-5.795 10.808,-7.763 16.597,-4.384c5.799,3.372 7.753,10.804 4.385,16.598" style="fill:#ab2430;fill-rule:nonzero;"/><path id="Shape15" serif:id="Shape" d="M236.637,351.564c-7.544,3.651 -16.618,0.484 -20.256,-7.062c-3.654,-7.548 -0.49,-16.618 7.06,-20.261c7.546,-3.639 16.62,-0.482 20.264,7.065c3.64,7.542 0.483,16.617 -7.068,20.258" style="fill:#ab2430;fill-rule:nonzero;"/><path id="Shape16" serif:id="Shape" d="M177.492,348.886c-10.365,-1.501 -17.554,-11.123 -16.059,-21.489c1.502,-10.369 11.113,-17.565 21.481,-16.061c10.372,1.498 17.564,11.119 16.065,21.479c-1.498,10.374 -11.118,17.568 -21.487,16.071" style="fill:#ab2430;fill-rule:nonzero;"/><path id="Shape17" serif:id="Shape" d="M118.081,304.753c-9.694,-8.799 -10.428,-23.794 -1.628,-33.493c8.8,-9.694 23.798,-10.426 33.497,-1.625c9.697,8.799 10.424,23.794 1.622,33.496c-8.8,9.695 -23.794,10.422 -33.491,1.622" style="fill:#ab2430;fill-rule:nonzero;"/><path id="Shape18" serif:id="Shape" d="M87.355,217.496c-3.898,-15.901 5.828,-31.946 21.728,-35.846c15.895,-3.895 31.95,5.827 35.845,21.724c3.9,15.898 -5.828,31.945 -21.726,35.846c-15.897,3.9 -31.949,-5.829 -35.847,-21.724" style="fill:#ab2430;fill-rule:nonzero;"/><path id="Shape19" serif:id="Shape" d="M116.509,105.592c7.068,-19.201 28.371,-29.029 47.571,-21.961c19.198,7.076 29.032,28.37 21.96,47.572c-7.072,19.202 -28.369,29.034 -47.572,21.961c-19.199,-7.073 -29.032,-28.37 -21.959,-47.572" style="fill:#ab2430;fill-rule:nonzero;"/><path id="Shape20" serif:id="Shape" d="M224.943,10.008c20.747,-14.955 49.693,-10.256 64.639,10.489c14.955,20.752 10.262,49.7 -10.494,64.651c-20.743,14.955 -49.686,10.257 -64.65,-10.497c-14.941,-20.747 -10.249,-49.69 10.505,-64.643" style="fill:#ab2430;fill-rule:nonzero;"/></g></g></svg>