<?xml version="1.0" encoding="utf-8"?>
<!-- Generator: Adobe Illustrator 14.0.0, SVG Export Plug-In . SVG Version: 6.00 Build 43363)  -->
<!DOCTYPE svg PUBLIC "-//W3C//DTD SVG 1.1//EN" "http://www.w3.org/Graphics/SVG/1.1/DTD/svg11.dtd">
<svg version="1.1"
	 id="Слой_1" inkscape:export-filename="/home/bishop/work/projects/android/art/ngwicon.png" xmlns:svg="http://www.w3.org/2000/svg" xmlns:dc="http://purl.org/dc/elements/1.1/" inkscape:export-xdpi="511.99786" xmlns:sodipodi="http://sodipodi.sourceforge.net/DTD/sodipodi-0.dtd" xmlns:inkscape="http://www.inkscape.org/namespaces/inkscape" sodipodi:docname="ngw_logo.svg" xmlns:rdf="http://www.w3.org/1999/02/22-rdf-syntax-ns#" inkscape:version="0.48.5 r10040" inkscape:export-ydpi="511.99786" xmlns:cc="http://creativecommons.org/ns#"
	 xmlns="http://www.w3.org/2000/svg" xmlns:xlink="http://www.w3.org/1999/xlink" x="0px" y="0px" width="359.771px"
	 height="360.002px" viewBox="-134.857 -135.002 359.771 360.002" enable-background="new -134.857 -135.002 359.771 360.002"
	 xml:space="preserve">
<sodipodi:namedview  id="namedview19" inkscape:window-maximized="1" inkscape:current-layer="Слой_1" inkscape:window-y="-4" inkscape:window-x="-4" inkscape:cy="49.062499" inkscape:cx="-63.5021" inkscape:zoom="2.6222222" showgrid="false" inkscape:window-height="705" inkscape:window-width="1366" inkscape:pageshadow="2" inkscape:pageopacity="0" guidetolerance="10" gridtolerance="10" objecttolerance="10" pagecolor="#ffffff" bordercolor="#666666" borderopacity="1">
	</sodipodi:namedview>
<g id="g2988">
	<path id="path3" fill="#31B7DA" d="M224.914,138.889c0,11.039-7.016,23.523-20,28.465c-12.984,4.945-126,49.559-141.332,54.113
		c-15.332,4.551-21.371,4.867-34.004,0s-133.859-48.652-144.436-54.117c-10.576-5.461-20-17.422-20-28.469v-253.883
		c0-11.043,8.955-20,20-20h319.771c11.047,0,20,8.957,20,20V138.889z"/>
	<path id="world" inkscape:connector-curvature="0" fill="#FFFFFF" d="M44.801-103.951c-73.842,0-133.695,59.852-133.695,133.695
		c0,73.84,59.854,133.695,133.695,133.695c73.844,0,133.695-59.855,133.695-133.695C178.496-44.1,118.645-103.951,44.801-103.951z
		 M161.031,25.432h-51.719c-0.477-19.105-3.875-37.357-9.906-54.064c11.648-4.857,22.414-11.316,32.227-18.951
		C149.082-27.994,159.992-2.559,161.031,25.432z M40.031,145.947c-14.336-11.941-26.359-27.441-35.158-45.441
		c11.291-3.527,23.256-5.461,35.615-5.855v51.312C40.332,145.963,40.186,145.955,40.031,145.947z M49.555-86.459
		c16.266,13.543,29.539,31.682,38.52,52.84c-12.301,4.201-25.367,6.643-38.969,7.072v-59.938
		C49.27-86.475,49.406-86.467,49.555-86.459L49.555-86.459z M63.922-84.992c23.809,3.959,45.164,15.076,61.797,31.172
		c-9.031,6.928-18.898,12.791-29.57,17.234C88.297-55.191,77.285-71.641,63.922-84.992z M40.488-86.484v59.938
		c-13.602-0.439-26.678-2.871-38.971-7.072c8.98-21.158,22.254-39.297,38.521-52.84C40.195-86.467,40.332-86.477,40.488-86.484z
		 M-6.555-36.578c-10.652-4.441-20.529-10.307-29.561-17.232c16.621-16.096,37.986-27.215,61.793-31.174
		C12.309-71.641,1.303-55.191-6.555-36.578z M-1.734-25.666c13.301,4.615,27.473,7.305,42.223,7.754v43.344h-51.572
		C-10.617,7.369-7.418-9.891-1.734-25.666z M40.488,34.057v51.969c-13.602,0.414-26.756,2.637-39.15,6.633
		c-7.471-17.785-11.879-37.598-12.422-58.602H40.488z M25.678,144.482c-21.33-3.547-40.703-12.836-56.453-26.328
		c8.496-5.891,17.682-10.875,27.498-14.664C4.244,119.084,14.086,132.928,25.678,144.482z M49.113,145.975V94.658
		c12.352,0.398,24.324,2.332,35.613,5.855c-8.805,18.004-20.82,33.504-35.156,45.441C49.422,145.955,49.27,145.963,49.113,145.975z
		 M92.879,103.49c9.809,3.789,18.984,8.781,27.496,14.664c-15.75,13.484-35.121,22.781-56.453,26.328
		C75.516,132.928,85.352,119.084,92.879,103.49z M88.266,92.658c-12.406-3.996-25.559-6.219-39.152-6.633V34.057h51.574
		C100.141,55.061,95.727,74.873,88.266,92.658z M49.113,25.432v-43.344c14.742-0.449,28.91-3.131,42.223-7.746
		c5.676,15.777,8.875,33.035,9.352,51.098H49.113V25.432z M-42.023-47.584c9.816,7.635,20.58,14.094,32.217,18.951
		c-6.029,16.707-9.428,34.959-9.902,54.064h-51.719C-70.393-2.559-59.48-27.994-42.023-47.584z M-71.428,34.057h51.719
		c0.535,22.039,5.141,42.852,12.965,61.559c-10.93,4.262-21.115,9.938-30.518,16.656C-57.514,92.115-70.297,64.557-71.428,34.057z
		 M126.863,112.264c-9.402-6.711-19.59-12.395-30.527-16.656c7.836-18.707,12.43-39.523,12.977-61.559h51.719
		C159.898,64.557,147.109,92.115,126.863,112.264z"/>
</g>
</svg>
