<?xml version="1.0" encoding="utf-8"?>
<!-- Generator: Adobe Illustrator 14.0.0, SVG Export Plug-In . SVG Version: 6.00 Build 43363)  -->
<!DOCTYPE svg PUBLIC "-//W3C//DTD SVG 1.1//EN" "http://www.w3.org/Graphics/SVG/1.1/DTD/svg11.dtd">
<svg version="1.1" id="Слой_1" xmlns="http://www.w3.org/2000/svg" xmlns:xlink="http://www.w3.org/1999/xlink" x="0px" y="0px"
	 width="1224px" height="166.828px" viewBox="-306 312.735 1224 166.828" enable-background="new -306 312.735 1224 166.828"
	 xml:space="preserve">
<path id="path22" fill="#231F20" d="M-306,479.265V312.735h11.062l104.491,104.342V312.735h33.335v166.529h-12.258l-103.295-103.297
	v103.297H-306"/>
<path id="path24" fill="#231F20" d="M31.542,479.265V312.735l-122.43-0.149v31.093h89.094v35.578h-50.825V410.2h50.825v37.82
	h-88.944v31.094L31.542,479.265"/>
<path id="path26" fill="#231F20" d="M444.873,312.735v31.093h-55.459v135.437h-33.336V343.828h-55.46v-31.093H444.873"/>
<path id="path28" fill="#176FC1" d="M516.777,455.347c-15.996-15.846-23.918-35.729-23.918-59.646
	c0.148-23.469,8.072-43.052,23.918-59.047s35.727-23.918,59.195-23.918c23.77,0,44.1,7.475,61.141,22.273l-22.273,24.366
	c-11.361-8.819-24.365-13.304-39.016-13.304c-14.949,0-27.057,4.783-36.176,14.052c-9.119,9.268-13.754,21.077-13.754,35.577
	c0.15,15.547,4.785,27.805,13.902,36.924c9.119,9.119,21.229,13.604,36.176,13.604c11.959,0,21.229-2.393,27.656-7.176v-28.701
	l-22.273,0.148v-31.093h55.908v77.733c-16.893,14.799-37.373,22.273-61.141,22.273C552.504,479.265,532.623,471.192,516.777,455.347
	"/>
<path id="path30" fill="#176FC1" d="M702.889,479.265h33.186V312.586h-33.186V479.265z"/>
<path id="path32" fill="#176FC1" d="M891.988,318.267c8.521,3.736,16.445,9.268,23.918,16.742l-22.273,22.273
	c-7.473-8.969-17.789-13.305-31.092-13.305c-13.305,0-21.826,3.14-25.562,9.418c-3.738,6.278-3.738,11.66,0,16.145
	c3.736,4.484,12.258,7.773,25.562,10.016c14.051,1.495,26.906,6.129,38.268,13.902C912.32,401.231,918,413.64,918,430.681
	c0,13.305-6.129,24.814-18.387,34.383c-12.258,9.566-26.459,14.5-42.754,14.5c-15.396,0-28.402-2.242-38.717-6.578
	c-10.314-4.484-19.283-10.314-26.609-17.789l22.125-22.572c7.475,8.969,20.031,14.051,37.82,15.547
	c14.799,0,24.066-3.139,27.654-9.418c3.738-6.279,3.738-12.557,0-18.836c-3.588-6.277-12.855-10.164-27.654-11.66
	c-13.305-1.494-25.562-5.531-36.625-12.258s-16.742-18.088-16.742-34.382c0-14.799,6.279-26.608,18.984-35.428
	c12.557-8.97,25.562-13.454,38.867-13.454C871.359,312.735,883.469,314.529,891.988,318.267"/>
<path id="path34" fill="#231F20" d="M202.555,377.313l47.238-64.578h-39.166l-27.805,37.82L202.555,377.313"/>
<path id="path36" fill="#176FC1" d="M191.493,392.562l-58.6-79.826H93.729l58.3,79.826l-63.682,86.703h39.614L191.493,392.562"/>
<path id="path38" fill="#231F20" d="M202.555,407.659l-19.732,26.908l32.738,44.697h39.465L202.555,407.659"/>
</svg>
