<?xml version="1.0" encoding="UTF-8"?><svg width="213px" height="213px" xmlns="http://www.w3.org/2000/svg" xmlns:xlink="http://www.w3.org/1999/xlink"><defs><path id="a" d="M0 213h212.6V.4H0z"/></defs><g fill="none" fill-rule="evenodd"><path fill="#565756" d="M28.376 199.84v2.842h4.367l.502 2.006h-4.869v4.847h-2.009v-11.7h7.882v2.005zM41.562 199.84v2.842h4.367l.502 2.006h-4.87v2.841h5.873v2.006h-7.881v-11.7h7.882v2.005z"/><g transform="translate(0 -.4)"><path d="M61.64 202.43c0 .424-.058.828-.175 1.213a4.127 4.127 0 0 1-1.238 1.938 4.037 4.037 0 0 1-.98.644l2.394 3.71h-2.393l-2.125-3.292H55.75l.82-2.006h.87c.602 0 1.122-.217 1.556-.652.2-.211.357-.451.469-.72.112-.266.167-.544.167-.834 0-.29-.055-.568-.167-.836a2.146 2.146 0 0 0-.47-.702 2.122 2.122 0 0 0-1.554-.652h-2.377v9.695h-2.008v-11.701h4.385c.58 0 1.123.112 1.63.335.508.222.952.523 1.33.902.38.379.68.822.905 1.329.223.507.334 1.05.334 1.63M75.864 202.43c0 .424-.059.828-.176 1.213a4.123 4.123 0 0 1-1.238 1.938 4.062 4.062 0 0 1-.98.644l2.394 3.71H73.47l-2.125-3.292h-1.37l.82-2.006h.87c.601 0 1.12-.217 1.555-.652.201-.211.357-.451.47-.72.111-.266.165-.544.165-.834 0-.29-.054-.568-.166-.836a2.146 2.146 0 0 0-.469-.702 2.124 2.124 0 0 0-1.556-.652h-2.376v9.695H67.28v-11.701h4.385c.58 0 1.123.112 1.631.335a4.32 4.32 0 0 1 1.331.902c.38.379.68.822.903 1.329.223.507.335 1.05.335 1.63M93.87 209.935h-2.21l-.904-2.006-.904-2.006-2.376-5.249-2.377 5.25h3.046l.904 2.005h-4.852l-.904 2.006h-2.209l5.288-11.7h2.208zM107.74 202.43c0 .424-.059.828-.176 1.213a4.32 4.32 0 0 1-.484 1.06 4.156 4.156 0 0 1-.754.878 4.037 4.037 0 0 1-.979.644l2.393 3.71h-2.393l-2.125-3.292h-1.372l.82-2.006h.871c.601 0 1.121-.217 1.555-.652.201-.211.357-.451.47-.72a2.162 2.162 0 0 0 0-1.671 2.146 2.146 0 0 0-.47-.701 2.122 2.122 0 0 0-1.555-.652h-2.377v9.695h-2.008v-11.701h4.385c.58 0 1.123.112 1.631.335.507.222.951.523 1.33.902.38.379.68.822.904 1.329.223.507.334 1.05.334 1.63M125.745 209.935h-2.209l-.903-2.006-.904-2.006-2.376-5.249-2.376 5.25h3.045l.904 2.005h-4.853l-.903 2.006h-2.209l5.288-11.7h2.21zM143.633 206.76c-.19.212-.377.412-.561.602a35.79 35.79 0 0 0-.543.568h3.865v2.006h-7.38v-1.405l.385-.35.87-.836c.257-.256.547-.55.87-.878.324-.328.658-.683 1.005-1.061.635-.68 1.126-1.248 1.47-1.705.347-.457.6-.825.763-1.103.162-.278.26-.477.293-.594.033-.117.05-.181.05-.192a1.772 1.772 0 0 0-.535-1.28 1.902 1.902 0 0 0-.586-.383 1.772 1.772 0 0 0-.702-.142c-.257 0-.494.047-.712.142a1.947 1.947 0 0 0-.577.384 1.749 1.749 0 0 0-.393.577 1.756 1.756 0 0 0-.143.702h-2.007a3.786 3.786 0 0 1 1.121-2.691 3.569 3.569 0 0 1 1.238-.836 3.9 3.9 0 0 1 1.473-.284 3.89 3.89 0 0 1 1.47.284c.47.19.883.468 1.24.836.357.357.633.766.829 1.229.194.462.292.95.292 1.462 0 .335-.086.702-.26 1.103-.172.402-.442.864-.811 1.388-.502.725-1.176 1.543-2.024 2.457M158.708 206.058a8.86 8.86 0 0 0 .126-.928c.027-.328.042-.676.042-1.045 0-.757-.057-1.415-.168-1.972a6.238 6.238 0 0 0-.2-.72 2.63 2.63 0 0 0-.284-.584c-.168-.278-.352-.48-.553-.602a1.98 1.98 0 0 0-.92-.2c-.413 0-.736.067-.971.2-.201.112-.38.3-.535.569-.145.245-.285.627-.419 1.145s-.2 1.24-.2 2.164c0 .369.014.717.041 1.045.028.329.07.638.126.928.122.546.278.98.469 1.304.156.267.334.463.535.585.245.133.563.2.954.2.401 0 .719-.067.953-.2.212-.112.397-.307.553-.585.2-.334.351-.77.451-1.304M156.751 198c.747 0 1.386.159 1.916.477.529.317.956.752 1.279 1.304.325.55.561 1.197.712 1.938.151.74.226 1.529.226 2.365 0 .836-.071 1.624-.209 2.366-.14.74-.371 1.384-.695 1.93a3.69 3.69 0 0 1-1.272 1.296c-.524.318-1.177.477-1.957.477-.781 0-1.434-.16-1.958-.477a3.673 3.673 0 0 1-1.272-1.304c-.324-.551-.555-1.195-.694-1.93-.14-.736-.21-1.522-.21-2.358 0-.836.068-1.624.201-2.365.134-.741.36-1.387.678-1.938a3.561 3.561 0 0 1 1.272-1.304c.53-.318 1.19-.477 1.983-.477M171.794 198.234v11.701h-2.008v-9.294l-1.758 1.773-1.422-1.42 2.76-2.76zM180.027 201.828c0 .257.047.493.142.711.094.217.226.41.393.576a1.773 1.773 0 0 0 1.288.535c.245 0 .48-.047.703-.14a1.865 1.865 0 0 0 .979-.97c.095-.219.142-.455.142-.712a1.84 1.84 0 0 0-1.121-1.68 1.794 1.794 0 0 0-.703-.14 1.773 1.773 0 0 0-1.288.533 1.824 1.824 0 0 0-.535 1.287m5.655 0a3.55 3.55 0 0 1-.586 2.006l-3.58 6.101h-2.343l2.527-4.279a3.934 3.934 0 0 1-1.38-.317 3.768 3.768 0 0 1-1.18-.803 3.81 3.81 0 0 1-1.122-2.708c0-.512.098-1 .293-1.462.195-.463.472-.878.828-1.245a3.817 3.817 0 0 1 2.711-1.12c.514 0 1.001.098 1.465.292.462.195.878.471 1.246.828.358.367.633.782.828 1.245.196.462.293.95.293 1.462" fill="#565756"/><mask id="b" fill="#fff"><use xlink:href="#a"/></mask><path fill="#008ABE" mask="url(#b)" d="M2.511 191.338h207.947v-3.083H2.511zM13.275 163.026a7.07 7.07 0 0 1 2.201 1.476 7.067 7.067 0 0 1 1.486 2.171c.366.83.55 1.72.55 2.663 0 .947-.184 1.84-.55 2.675a7.022 7.022 0 0 1-1.486 2.187 7.067 7.067 0 0 1-2.2 1.475 6.74 6.74 0 0 1-2.698.545h-2.75l1.347-3.277h1.403c.992 0 1.844-.354 2.56-1.064.715-.71 1.074-1.559 1.074-2.54 0-1.002-.359-1.838-1.075-2.512-.715-.71-1.567-1.067-2.559-1.067H6.7v15.84H3.397v-19.117h7.181c.954 0 1.852.183 2.697.545M19.164 181.598h3.302v-19.117h-3.302zM31.244 170.838c-1.102 0-2.037.384-2.808 1.146-.77.767-1.156 1.694-1.156 2.788 0 1.075.386 1.993 1.156 2.757.37.384.793.67 1.281.86.484.193.994.287 1.527.287a3.99 3.99 0 0 0 1.512-.287 3.83 3.83 0 0 0 1.295-.86c.77-.764 1.154-1.682 1.154-2.757 0-1.094-.385-2.021-1.154-2.788-.809-.762-1.744-1.146-2.807-1.146m0-3.277c1.008 0 1.953.187 2.834.558.881.376 1.651.89 2.312 1.546a7.205 7.205 0 0 1 1.554 2.294 7.07 7.07 0 0 1 .564 2.813c0 .982-.19 1.912-.564 2.784a7.267 7.267 0 0 1-1.554 2.298 7.332 7.332 0 0 1-2.312 1.54 7.211 7.211 0 0 1-2.834.559 7.197 7.197 0 0 1-2.834-.558 7.32 7.32 0 0 1-2.312-1.541 7.25 7.25 0 0 1-1.554-2.298 6.947 6.947 0 0 1-.566-2.784 7.02 7.02 0 0 1 .566-2.813 7.189 7.189 0 0 1 1.554-2.294 7.215 7.215 0 0 1 5.146-2.104M46.956 167.56c.898 0 1.714.17 2.448.507a5.632 5.632 0 0 1 1.887 1.391c.521.593.924 1.28 1.21 2.064a7.31 7.31 0 0 1 .427 2.514v7.563h-3.303v-7.563c0-.912-.322-1.667-.963-2.268a3.095 3.095 0 0 0-2.258-.93c-.898 0-1.66.311-2.283.93-.625.62-.936 1.374-.936 2.268v7.563h-3.302v-13.656h3.302v1.037a6.507 6.507 0 0 1 1.678-1.022c.624-.264 1.322-.398 2.093-.398M61.429 170.838c-1.064 0-2 .384-2.806 1.146a3.7 3.7 0 0 0-.798 1.148h7.208a3.744 3.744 0 0 0-.796-1.148c-.772-.762-1.707-1.146-2.808-1.146zm3.604 5.57h-7.208c.182.42.449.792.798 1.12.385.385.816.67 1.292.86.478.194.982.288 1.514.288.753 0 1.42-.172 2.009-.518l3.44 1.367a7.002 7.002 0 0 1-2.394 1.789c-.936.427-1.954.639-3.055.639a7.216 7.216 0 0 1-2.835-.558 7.35 7.35 0 0 1-2.311-1.541 7.267 7.267 0 0 1-1.554-2.298 6.946 6.946 0 0 1-.565-2.784 7.02 7.02 0 0 1 .565-2.813 7.205 7.205 0 0 1 1.554-2.294 7.347 7.347 0 0 1 2.31-1.546 7.234 7.234 0 0 1 2.836-.558 7.222 7.222 0 0 1 5.146 2.104 7.24 7.24 0 0 1 1.555 2.294c.376.874.565 1.81.565 2.813 0 .583-.065 1.129-.195 1.636h-3.467z"/></g><path d="M91.414 178.632a10.213 10.213 0 0 1-3.19 2.145c-1.213.518-2.517.776-3.91.776a9.862 9.862 0 0 1-3.894-.776 10.144 10.144 0 0 1-3.19-2.13 10.003 10.003 0 0 1-2.148-3.168 9.663 9.663 0 0 1-.783-3.868c0-1.364.26-2.65.783-3.862a9.994 9.994 0 0 1 2.147-3.17c.91-.9 1.972-1.61 3.191-2.129a9.865 9.865 0 0 1 3.894-.779c1.393 0 2.697.261 3.91.78a10.19 10.19 0 0 1 3.19 2.142l-2.34 2.323a6.774 6.774 0 0 0-2.173-1.464 6.665 6.665 0 0 0-2.587-.504c-.898 0-1.752.168-2.558.504a6.776 6.776 0 0 0-2.176 1.464 6.69 6.69 0 0 0-1.47 2.156 6.436 6.436 0 0 0-.51 2.54c0 .894.17 1.745.51 2.553.34.811.827 1.535 1.47 2.173a6.534 6.534 0 0 0 2.176 1.446c.806.33 1.66.492 2.558.492.917 0 1.78-.163 2.587-.492a6.532 6.532 0 0 0 2.173-1.446l2.34 2.294zM99.09 170.438c-1.1 0-2.036.384-2.805 1.146-.772.767-1.156 1.694-1.156 2.788 0 1.075.384 1.993 1.156 2.757.366.384.793.67 1.278.86.486.193.995.287 1.527.287.532 0 1.036-.094 1.514-.287.476-.19.908-.476 1.293-.86.77-.764 1.156-1.682 1.156-2.757 0-1.094-.385-2.021-1.156-2.788-.807-.762-1.743-1.146-2.807-1.146m0-3.277c1.01 0 1.953.187 2.834.558.88.376 1.65.89 2.312 1.546a7.224 7.224 0 0 1 1.555 2.294c.375.874.565 1.81.565 2.813a6.98 6.98 0 0 1-.565 2.784 7.287 7.287 0 0 1-1.555 2.298 7.332 7.332 0 0 1-2.312 1.54 7.204 7.204 0 0 1-2.834.559 7.196 7.196 0 0 1-2.833-.558 7.332 7.332 0 0 1-2.312-1.541 7.218 7.218 0 0 1-1.554-2.298 6.946 6.946 0 0 1-.564-2.784c0-1.003.187-1.94.564-2.813a7.156 7.156 0 0 1 1.554-2.294 7.213 7.213 0 0 1 5.145-2.104M114.803 167.16c.899 0 1.715.17 2.447.507a5.632 5.632 0 0 1 1.887 1.391c.522.593.925 1.28 1.21 2.064.285.781.427 1.62.427 2.513v7.564h-3.303v-7.564c0-.911-.32-1.666-.963-2.267a3.09 3.09 0 0 0-2.255-.93c-.9 0-1.663.311-2.285.93-.623.62-.933 1.374-.933 2.268v7.563h-3.305v-13.657h3.305v1.038a6.495 6.495 0 0 1 1.676-1.023c.624-.263 1.32-.397 2.092-.397M127.502 165.618a3.606 3.606 0 0 0-1.048.697 3.458 3.458 0 0 0-.727 1.024 2.936 2.936 0 0 0-.276 1.27h1.953l.826 3.278h-2.779v9.312h-3.302V168.609c.02-.874.193-1.707.524-2.5a6.415 6.415 0 0 1 1.431-2.116 6.464 6.464 0 0 1 2.146-1.42 6.635 6.635 0 0 1 2.532-.491v3.277c-.458 0-.886.086-1.28.259M136.044 170.438c-1.063 0-1.998.384-2.806 1.146a3.7 3.7 0 0 0-.798 1.148h7.208a3.727 3.727 0 0 0-.796-1.148c-.771-.762-1.707-1.146-2.808-1.146zm3.604 5.57h-7.208c.18.42.45.792.798 1.12.385.385.816.67 1.292.86.479.194.983.288 1.514.288.75 0 1.42-.172 2.01-.518l3.44 1.367a6.974 6.974 0 0 1-2.395 1.789c-.935.427-1.954.639-3.055.639a7.2 7.2 0 0 1-2.833-.558 7.325 7.325 0 0 1-2.313-1.541 7.264 7.264 0 0 1-1.553-2.298 6.93 6.93 0 0 1-.565-2.784c0-1.003.187-1.94.565-2.813a7.202 7.202 0 0 1 1.553-2.294 7.217 7.217 0 0 1 5.146-2.104c1.01 0 1.954.187 2.836.558.878.376 1.65.89 2.309 1.546a7.213 7.213 0 0 1 1.557 2.294 7.07 7.07 0 0 1 .564 2.813c0 .583-.066 1.129-.195 1.636h-3.467zM149.872 167.542c.651-.272 1.39-.409 2.215-.409v3.277c-1.102 0-2.034.382-2.807 1.15-.769.798-1.156 1.728-1.156 2.782v6.856h-3.3v-13.683h3.3v1.065a7.126 7.126 0 0 1 1.748-1.038M159.626 170.438c-1.064 0-1.999.384-2.807 1.146a3.713 3.713 0 0 0-.797 1.148h7.21a3.786 3.786 0 0 0-.798-1.148c-.773-.762-1.706-1.146-2.808-1.146zm3.606 5.57h-7.21c.183.42.448.792.797 1.12.384.385.817.67 1.293.86.478.194.982.288 1.514.288.753 0 1.422-.172 2.01-.518l3.439 1.367a6.974 6.974 0 0 1-2.395 1.789c-.935.427-1.952.639-3.054.639a7.211 7.211 0 0 1-2.834-.558 7.343 7.343 0 0 1-2.312-1.541 7.267 7.267 0 0 1-1.554-2.298 6.963 6.963 0 0 1-.564-2.784c0-1.003.188-1.94.564-2.813a7.205 7.205 0 0 1 1.554-2.294 7.34 7.34 0 0 1 2.312-1.546 7.229 7.229 0 0 1 2.834-.558 7.213 7.213 0 0 1 5.146 2.104 7.189 7.189 0 0 1 1.554 2.294c.377.874.564 1.81.564 2.813a6.82 6.82 0 0 1-.191 1.636h-3.467zM175.338 167.16c.899 0 1.716.17 2.45.507a5.614 5.614 0 0 1 1.885 1.391c.52.593.925 1.28 1.212 2.064.282.781.426 1.62.426 2.513v7.564h-3.304v-7.564c0-.911-.32-1.666-.963-2.267a3.09 3.09 0 0 0-2.258-.93c-.896 0-1.66.311-2.281.93-.624.62-.937 1.374-.937 2.268v7.563h-3.302v-13.657h3.302v1.038a6.524 6.524 0 0 1 1.678-1.023c.623-.263 1.32-.397 2.092-.397M194.957 179.453a7.305 7.305 0 0 1-2.311 1.541 7.213 7.213 0 0 1-2.835.56 7.208 7.208 0 0 1-2.834-.56 7.193 7.193 0 0 1-3.865-3.839 6.946 6.946 0 0 1-.565-2.784 7.02 7.02 0 0 1 .565-2.813 7.139 7.139 0 0 1 1.555-2.292 7.314 7.314 0 0 1 2.31-1.547 7.226 7.226 0 0 1 2.834-.559 7.23 7.23 0 0 1 5.146 2.106l-2.34 2.319c-.767-.764-1.705-1.148-2.806-1.148-1.063 0-2 .384-2.804 1.147-.774.766-1.158 1.694-1.158 2.787 0 1.075.384 1.993 1.158 2.758.383.385.813.67 1.291.86a3.98 3.98 0 0 0 1.513.286c1.121 0 2.054-.38 2.806-1.145l2.34 2.323z" fill="#565756"/><path d="M202.195 170.438c-1.066 0-2 .384-2.81 1.146a3.706 3.706 0 0 0-.795 1.148h7.207a3.74 3.74 0 0 0-.795-1.148c-.772-.762-1.709-1.146-2.807-1.146zm3.602 5.57h-7.207c.181.42.448.792.795 1.12.387.385.818.67 1.293.86.48.194.984.288 1.517.288.75 0 1.42-.172 2.006-.518l3.44 1.367a6.968 6.968 0 0 1-2.39 1.789c-.94.427-1.958.639-3.056.639a7.191 7.191 0 0 1-2.835-.558 7.348 7.348 0 0 1-2.313-1.541 7.248 7.248 0 0 1-1.553-2.298 6.964 6.964 0 0 1-.566-2.784c0-1.003.19-1.94.566-2.813a7.186 7.186 0 0 1 1.553-2.294 7.344 7.344 0 0 1 2.313-1.546 7.209 7.209 0 0 1 2.835-.558 7.216 7.216 0 0 1 5.144 2.104 7.178 7.178 0 0 1 1.556 2.294 7.07 7.07 0 0 1 .563 2.813 6.67 6.67 0 0 1-.193 1.636h-3.468z" fill="#565756"/><path d="M136.08 17.357c5.14 0 9.307 4.167 9.307 9.306 0 5.14-4.168 9.307-9.308 9.307a9.307 9.307 0 0 1 0-18.613M164.308 45.256a9.302 9.302 0 0 1-9.31 9.306c-5.13 0-9.303-4.165-9.303-9.306 0-5.144 4.176-9.306 9.304-9.306a9.301 9.301 0 0 1 9.309 9.306M136.048 54.597a9.308 9.308 0 1 1-.002 18.616 9.308 9.308 0 0 1 .002-18.616" fill="#008ABE"/><path d="M165.837 69.435c-6.21 6.202-14.741 10.026-24.208 10.027-9.468-.001-17.998-3.828-24.207-10.027-6.2-6.21-10.023-14.741-10.026-24.205.003-9.467 3.826-17.997 10.028-24.208 6.209-6.202 14.74-10.026 24.207-10.028 9.467.002 17.998 3.826 24.208 10.028 6.203 6.211 10.024 14.741 10.027 24.208-.005 9.464-3.826 17.995-10.03 24.205M141.632 2.221c-23.753.003-43.006 19.255-43.008 43.009.002 23.751 19.255 43.003 43.008 43.007 23.754-.004 43.005-19.254 43.009-43.007-.004-23.754-19.255-43.006-43.01-43.009" fill="#008ABE"/><path d="M196.013 108.31v44.959l-4.012.015v-14.012a4.373 4.373 0 0 0-3.057-4.165l-.414-.134a2.188 2.188 0 0 0-2.843 2.089v16.236l-10.865.024V96.485l21.19 4.94v6.885zM179.951 80.852l.025.029-.025.018-.165 13.252-4.965-1.185-8.544 1.403-.017-.119V76.834z" fill="#FFFFFE"/><path fill="#FFFFFE" d="M174.821 92.966v3.52H174.726l-20.754 3.131h-.039V96.39l12.345-2.022zM174.607 67.63l.044 9.166-2.73-.817v-5.688l-1.864-.523v5.65l-3.798-1.142v-.039l-.029-9.399h.01z"/><path fill="#FFFFFE" d="M166.26 76.834v.02l-12.943 2.685v-2.458l5.42-1.188 7.523-1.656v.038zM166.23 64.833v.005l-7.493 1.76v-.106l-1.422-1.055v-.652l8.905-2.1zM156.031 89.03v5.81l-2.098 1.55v.009l-20.19-4.388-.083-8.553z"/><path d="M146.69 114.41v-9.942l-3.601-.653v10.115l3.6.48zm7.245 38.858v.106l-5.995.01v-9.633c0-1.299-1.237-2.445-3.059-2.834l-.409-.09c-1.406-.3-2.843.413-2.843 1.422v11.154l-7.316.018v-.153l-.57-61.257 20.192 4.388v56.869zM153.316 79.54v5.258l-19.693-5.23-.08-8.73 19.773 5.597v.645zM133.623 79.568l.037 3.89-.141-.038-15.035 3.076v-3.69l15.035-3.267zM133.519 67.98l.023 2.858-.023-.01-12.785 3.143v-2.985zM120.732 73.972v1.265l-2.248 2.244-23.147-5.577V58.595l25.395 7.203v5.188z" fill="#FFFFFE"/><path d="M110.439 91.173V82.24l-4.772-.93v8.89l4.772.974zm0 25.243v-8.555l-3.204-.43v8.506l3.204.48zm8.046 36.853v.19l-23.147.053V71.903l23.147 5.578v75.788zM106.85 59.989v-8.726l-3.2-1.007v8.825l3.2.908zm3.999-14.721v15.96l-15.491-4.464-.02-.004V40.048l15.449 5.22.038-.034.024.034z" fill="#FFFFFE"/><path fill="#565756" d="M103.65 28.527v.394l-.729.614-6.793-2.54-.79-.294v-1.293l.79.295z"/><path fill="#565756" d="M103.65 28.527l-7.522-2.824-.79-.295-7.085 2.658 7.084-4.96z"/><path fill="#FFFFFE" d="M102.922 39.653v.005l-7.584-2.692V26.7l.79.295 6.794 2.539z"/><path fill="#565756" d="M45.61 66.136v.52l-.724.574-6.285-1.384v-1.218z"/><path d="M40.227 119.512v-5.773l-1.688-.123v5.72l1.688.176zm0 13.974v-8.145l-1.688-.148v8.178l1.688.115zm3.918 20.15v.004l-8.492.02v-42.774l8.492.91v41.84z" fill="#FFFFFE"/><path fill="#565756" d="M44.145 98.149v4.208l-8.492-1.046v-4.336zM40.227 125.341v8.145l-1.688-.116v-8.176zM40.227 113.739v5.773l-1.688-.176v-5.72z"/><path fill="#FFFFFE" d="M38.602 64.628v1.218l-2.93 1.06-.726-.619V65.9zM35.653 96.975v4.336l-23.15 4.307v-3.389l7.64-1.736zM35.653 84.142v2.896l-15.51 3.651-1.664-1.364v-.871l9.752-2.467v-.005l7.422-1.873z"/><path fill="#565756" d="M210.458 153.883v1.896l-208.216.391v-1.973l13.009-.485 2.582-.01 14.116-.033 3.704-.01 8.492-.019 28.395-.07 22.798-.058 23.146-.053 15.828-.038 7.318-.018 6.308-.019 5.996-.01 20.887-.053 10.866-.024 6.313-.013 4.013-.015zM198.714 98.662l-2.7 2.763-21.193-4.94v-3.519l4.965 1.184z"/><path d="M192 153.269v.016l-6.313.012v-16.235c0-1.48 1.435-2.53 2.842-2.09l.414.135a4.371 4.371 0 0 1 3.057 4.165v13.997zM182.168 79.059l-2.191 1.822-.026-.029-13.691-4.018v-2.558l3.798 1.141 1.864.561 2.729.818zM175.987 65.846v.761l-1.38 1.022-8.368-2.79-.009-.006-.01-2.149z" fill="#565756"/><path fill="#565756" d="M175.987 65.846l-9.767-3.162-8.905 2.101 8.905-5.263zM161.423 136.543l-.066-10.57-2.796.167v10.622l2.862-.219zm7.565-23.817l.014-10.888-2.943.404V112.987l2.929-.26zm5.833 40.543v.052l-20.885.052V99.62h.037l20.754-3.135h.094v56.785zM171.922 70.291v5.688l-1.864-.562v-5.649zM166.26 94.25l.018.118-12.342 2.022 2.095-1.55v-9.324l-2.714-.718V79.54l12.943-2.686v7.888z"/><path fill="#565756" d="M166.23 64.838l.03 9.4-7.523 1.655v-9.296zM156.031 85.516v3.514l-22.37-5.573-.038-3.889 19.693 5.23zM156.031 74.937l-2.715 1.497-19.774-5.596-.024-2.857zM147.939 143.75v9.634l-6.31.018v-11.154c0-1.009 1.436-1.723 2.844-1.422l.408.09c1.822.391 3.058 1.537 3.058 2.834M146.69 104.468v9.941l-3.601-.479v-10.114zM128.625 107.283v-9.895l-3.827.624v9.828l3.827-.557zm5.688 45.986v.153l-15.829.038V94.717l15.258-2.705.571 61.257zM133.66 83.457l.082 8.554-15.258 2.705v-8.22l15.034-3.077zM133.542 70.838l.081 8.73-.104-.029-15.035 3.267v-5.325l2.248-2.245v-1.264l12.787-3.144zM120.732 64.082v1.716l-25.395-7.203V56.773l.02-.009 15.491 4.465zM112.45 43.038v.87l-1.626 1.325-.037.035-15.449-5.22v-3.081l7.584 2.69zM110.439 107.863v8.554l-3.204-.48v-8.508zM110.439 82.24v8.934l-4.772-.974v-8.891zM106.85 51.263v8.726l-3.2-.909v-8.825zM80.46 118.556v-9.349l-3.138.476-.07 9.211 3.209-.338zm.856 28.143v-8.51l-4.611.38V147l4.61-.3zm5.355-55.986v-9.406l-4.773.933v9.248l4.773-.775zm.84 26.716v-9.344l-3.413.51.205 9.167 3.209-.333zm7.827-45.525v81.608l-22.798.057-.318-56.537-.03-4.75-.043-6.889-.013-3.063-.024-4.022 23.15-6.424.076.02z"/><path fill="#565756" d="M95.338 58.595v13.31l-.075-.02-23.151 6.423-2.13-3.07v-9.459l25.356-7.189zM95.338 56.76v.014l-2.928.841v-8.777l-3.205 1.01v8.695l-9.34 2.686.032-15.999 15.44-5.183zM95.338 26.702v10.264l-7.503 2.649-.08-.224v-9.856zM48.914 128.322v-7.57l-1.559.21v7.55l1.56-.19zm3.708 13.46v-7.44l-1.563.142v7.417l1.563-.118zm3.71-13.982l.08-7.932-1.564.21v7.86l1.483-.138zm.27 13.703v-7.466l-1.564.124v7.465l1.564-.123zm3.708-14.265v-7.873l-1.564.228v7.84l1.564-.195zm4.066-.595v-7.868l-1.565.194v7.846l1.565-.172zm0 14.265v-7.594l-1.565.139v7.545l1.565-.09zm7.846-43.876l.318 56.537-28.396.07V102.358h.078l27.932-5.325h.068zM72.15 85.393l.042 6.889h-.057l-20.53 4.303.023-6.946h.034l20.45-4.246zM52.014 75.065v.924l-1.017 1.292-15.31-3.148-.052.015v-2.81l.019-.01 2.948.675 6.214 1.417z"/><path fill="#565756" d="M51.644 87.029l-.015 2.61-15.975-2.601v-2.896l6.58 1.189 3.376.608 5.297.956z"/><path fill="#565756" d="M45.61 79.782v6.157l-3.376-.608v-6.096zM45.61 66.136L38.6 64.628 34.944 65.9l5.406-3.87z"/><path fill="#565756" d="M38.602 65.846v6.157l-2.948-.676-.02.011v-.344l.039-4.087zM35.653 153.569v.09l-3.704.01v-6.542c0-3.371-2.753-5.977-5.957-5.977-.429 0-.865.048-1.298.143a8.743 8.743 0 0 0-6.862 8.535v3.874l-2.58.01v-39.54l20.401-3.285v42.682z"/><path fill="#565756" d="M35.653 101.31v9.577l-20.402 3.285-2.748-2.245v-6.308zM35.653 94.232v2.743l-15.51 3.518v-9.804l15.51-3.651v4.517zM35.653 82.672v1.437l-7.422 1.873-.018-.067v-9.514l7.421-2.254v8.511z"/><path fill="#FFFFFE" d="M35.635 71.338v2.81l-7.422 2.253-1.664-1.365v-.87z"/></g></svg>