<svg width="801px" height="218px" viewBox="0 0 801 218" version="1.1" xmlns="http://www.w3.org/2000/svg" xmlns:xlink="http://www.w3.org/1999/xlink">
    <!-- Generator: Sketch 42 (36781) - http://www.bohemiancoding.com/sketch -->
    <desc>Created with Sketch.</desc>
    <defs></defs>
    <g id="pyramid_logo_red_on_transparent_background" stroke="none" stroke-width="1" fill="none" fill-rule="evenodd">
        <g id="dots" fill-rule="nonzero" fill="#FFFFFF">
            <path d="M131.628395,98.970749 C134.813045,98.9836485 137.390661,101.577958 137.375485,104.764125 C137.364862,107.949534 134.770552,110.526391 131.580591,110.511974 C128.398976,110.498316 125.822878,107.906283 125.832742,104.718598 C125.847918,101.531672 128.441469,98.9578495 131.628395,98.970749" id="Shape"></path>
            <path d="M151.394925,109.749388 C154.688082,111.990101 155.544758,116.476079 153.299492,119.770753 C151.061815,123.065428 146.57432,123.919828 143.28268,121.679115 C139.989523,119.438403 139.134365,114.953183 141.372801,111.656991 C143.614272,108.363834 148.101009,107.508676 151.394925,109.749388" id="Shape"></path>
            <path d="M164.345227,134.737924 C166.194402,139.361243 163.943826,144.606772 159.316712,146.45443 C154.694911,148.30133 149.447865,146.053788 147.600965,141.428193 C145.751789,136.801838 148.002366,131.557068 152.627962,129.707893 C157.25204,127.861752 162.500603,130.113087 164.345227,134.737924" id="Shape"></path>
            <path d="M160.302383,169.68181 C158.98512,175.766563 152.983076,179.631849 146.899082,178.313827 C140.816606,176.993529 136.952079,170.995279 138.270859,164.913562 C139.58964,158.829568 145.588649,154.965799 151.672642,156.280786 C157.755877,157.599566 161.618887,163.599334 160.302383,169.68181" id="Shape"></path>
            <path d="M131.679993,203.070931 C126.064932,208.456078 117.144575,208.26638 111.762463,202.645249 C106.378835,197.031706 106.567015,188.112107 112.18511,182.729996 C117.804723,177.342573 126.723564,177.53303 132.107951,183.150367 C137.488545,188.768462 137.296571,197.68882 131.679993,203.070931" id="Shape"></path>
            <path d="M78.6859643,217.665535 C69.1016635,219.319702 59.99009,212.887423 58.3404763,203.302363 C56.6878275,193.718821 63.1147951,184.608765 72.70289,182.956875 C82.286432,181.304226 91.396488,187.731953 93.0506544,197.322324 C94.6995092,206.904348 88.2725416,216.015922 78.6859643,217.665535" id="Shape"></path>
            <path d="M13.5641645,195.747072 C2.47517928,190.758774 -2.46986773,177.728799 2.51767162,166.641331 C7.50672856,155.555381 20.5382212,150.608057 31.6264476,155.597114 C42.7146741,160.583895 47.6582035,173.615388 42.6721818,184.704373 C37.6816072,195.789564 24.6508734,200.73537 13.5641645,195.747072" id="Shape"></path>
            <path d="M82.8707018,127.356396 C81.2871031,124.5906 82.2469749,121.064494 85.0127715,119.482412 C87.778568,117.899572 91.3061917,118.857168 92.8875141,121.625241 C94.4688365,124.391796 93.5112411,127.915626 90.7462033,129.499225 C87.9788891,131.081306 84.4543006,130.122193 82.8707018,127.356396" id="Shape"></path>
            <path d="M82.3183013,104.849869 C82.6119538,100.876076 86.0728038,97.8932645 90.0488735,98.1853994 C94.0181141,98.4798106 97.0032015,101.935349 96.7095491,105.909901 C96.4158966,109.883695 92.957323,112.865747 88.9842884,112.572853 C85.0104951,112.279959 82.027684,108.822145 82.3183013,104.849869" id="Shape"></path>
            <path d="M97.4857932,81.1398974 C100.56573,77.2260487 106.235423,76.5530002 110.148513,79.6336955 C114.062362,82.7128731 114.736169,88.3848428 111.656232,92.2964152 C108.570226,96.2095052 102.905085,96.8825536 98.9904776,93.8018584 C95.0804228,90.7196456 94.4043392,85.0514698 97.4857932,81.1398974" id="Shape"></path>
            <path d="M129.77239,67.1690204 C135.700072,65.2652115 142.046608,68.5310519 143.947382,74.4587345 C145.846638,80.3886934 142.58535,86.7352291 136.655391,88.6352441 C130.731503,90.5337415 124.384208,87.2701774 122.481917,81.3424949 C120.578867,75.4155711 123.846225,69.0690354 129.77239,67.1690204" id="Shape"></path>
            <path d="M172.994696,75.25926 C180.469555,77.4331989 184.764317,85.2525497 182.586585,92.723615 C180.41644,100.192404 172.597848,104.489443 165.125265,102.315504 C157.657234,100.141565 153.359437,92.3244905 155.533376,84.8519076 C157.708074,77.3808422 165.527424,73.0860799 172.994696,75.25926" id="Shape"></path>
            <path d="M212.136977,113.85597 C218.360589,121.332347 217.343808,132.437267 209.869707,138.659361 C202.394848,144.882972 191.291446,143.871503 185.067075,136.394367 C178.841946,128.920266 179.858728,117.816105 187.334346,111.589459 C194.809205,105.368883 205.911848,106.383387 212.136977,113.85597" id="Shape"></path>
            <path d="M225.714041,181.214689 C226.93949,193.308314 218.126122,204.111235 206.03022,205.334408 C193.9328,206.556822 183.132156,197.747247 181.91126,185.649828 C180.688087,173.550131 189.501455,162.752522 201.598875,161.52935 C213.690983,160.307695 224.488592,169.117269 225.714041,181.214689" id="Shape"></path>
            <path d="M131.833269,155.389205 C130.231459,158.142861 126.695489,159.076934 123.940315,157.47133 C121.189694,155.868003 120.25638,152.33355 121.858949,149.58293 C123.465311,146.828515 126.996729,145.892924 129.748867,147.499287 C132.505558,149.101855 133.43432,152.634791 131.833269,155.389205" id="Shape"></path>
            <path d="M112.613069,167.116335 C109.027018,168.851692 104.713286,167.346249 102.984,163.759439 C101.247125,160.171112 102.75105,155.859656 106.340136,154.128093 C109.926946,152.398048 114.240678,153.898938 115.973,157.486506 C117.703045,161.071798 116.202155,165.38553 112.613069,167.116335" id="Shape"></path>
            <path d="M84.4975517,165.843082 C79.5707157,165.129817 76.1531169,160.55582 76.8641049,155.628225 C77.5781281,150.699112 82.1468143,147.278478 87.0751679,147.99326 C92.0057979,148.705766 95.4241555,153.279005 94.7116499,158.203565 C93.9999031,163.134953 89.4266641,166.554829 84.4975517,165.843082" id="Shape"></path>
            <path d="M56.2560749,144.864003 C51.6479315,140.681541 51.2988872,133.55345 55.4821071,128.94303 C59.665327,124.334887 66.794936,123.986601 71.4053558,128.17058 C76.0150167,132.353041 76.3602671,139.481133 72.1762884,144.09307 C67.9930685,148.701972 60.8657359,149.047222 56.2560749,144.864003" id="Shape"></path>
            <path d="M41.650089,103.3854 C39.7971191,95.827074 44.4204384,88.1996976 51.9787648,86.3459689 C59.5348148,84.4945166 67.1667441,89.1155594 69.0181964,96.6723682 C70.871925,104.229936 66.247847,111.858071 58.6902794,113.712559 C51.1334706,115.566287 43.5030589,110.94145 41.650089,103.3854" id="Shape"></path>
            <path d="M55.5086648,50.191051 C58.8685955,41.0635429 68.9954326,36.391661 78.1221819,39.7515916 C87.2481725,43.1153163 91.9230896,53.2376006 88.5608825,62.3651087 C85.1994343,71.4933756 75.0756323,76.1667751 65.9473654,72.8045681 C56.8206161,69.4423611 52.1464578,59.3185591 55.5086648,50.191051" id="Shape"></path>
            <path d="M107.054159,4.75383144 C116.916178,-2.35529015 130.676111,-0.121406709 137.78068,9.73985321 C144.889801,19.6049071 142.658953,33.3655987 132.792382,40.472444 C122.931881,47.5815655 109.173465,45.3484409 102.06055,35.4826282 C94.9582573,25.6206095 97.1883468,11.8621942 107.054159,4.75383144" id="Shape"></path>
        </g>
        <g id="text" transform="translate(298.350006, 66.400002)" fill-rule="nonzero" fill="#FFFFFF">
            <path d="M418.696397,11.9583467 C418.696397,17.7732473 413.974293,22.491819 408.162925,22.491819 C402.346847,22.491819 397.629453,17.7732473 397.629453,11.9583467 C397.629453,6.14344605 402.346847,1.4248744 408.162925,1.4248744 C413.974293,1.4248744 418.696397,6.14462363 418.696397,11.9583467" id="Shape"></path>
            <path d="M38.8295937,102.373104 C30.7301837,102.373104 23.847216,99.6717304 18.5834238,94.2736938 L18.5834238,131.793816 L0.63118403,131.793816 L0.63118403,65.9304692 C0.63118403,45.9516105 15.3438954,29.6232564 36.4002417,29.6232564 C57.3211661,29.6232564 72.0326998,45.9516105 72.0326998,65.9304692 C72.0326998,86.0400394 57.1857441,102.373104 38.8295937,102.373104 Z M36.4002417,46.3555211 C26.5474119,46.3555211 18.5834238,55.1320409 18.5834238,65.9304692 C18.5834238,76.9973862 26.5474119,85.9057951 36.4002417,85.9057951 C46.2530715,85.9057951 54.2170596,77.26823 54.2170596,65.9304692 C54.2170596,54.7245975 46.2530715,46.3555211 36.4002417,46.3555211 Z" id="Combined-Shape"></path>
            <path d="M112.154101,113.575443 C105.406555,131.658394 94.7423715,134.088924 80.1650821,133.144503 L80.1650821,116.94686 C89.0734911,117.489726 93.2574404,115.33004 96.2273026,107.364875 L98.2503887,102.098727 L71.3932727,31.3731435 L90.2887558,31.3731435 L107.296575,81.582891 L123.898128,31.3731435 L142.929033,31.3731435 L112.154101,113.575443 Z" id="Shape"></path>
            <path d="M182.509924,46.7629646 C171.172163,44.7387009 163.613263,50.811492 163.613263,60.6654994 L163.613263,100.886995 L145.797623,100.886995 L145.797623,60.6654994 C145.797623,40.9598398 159.429314,27.1915493 182.509924,30.0271671 L182.509924,46.7629646 Z" id="Shape"></path>
            <path d="M261.465629,100.886995 L244.59441,100.886995 L244.59441,93.6001168 C239.32944,99.402064 231.771718,102.371926 223.401464,102.371926 C205.046491,102.371926 190.061758,86.1742838 190.061758,66.1989579 C190.061758,46.0834997 204.775647,29.6220789 225.830816,29.6220789 C246.756451,29.6220789 261.465629,46.0834997 261.465629,66.1989579 L261.465629,100.886995 Z M225.830816,46.3555211 C215.977986,46.3555211 208.015176,54.861197 208.015176,66.3343798 C208.015176,77.4001192 215.977986,85.9057951 225.830816,85.9057951 C235.683646,85.9057951 243.649989,77.1316305 243.649989,66.3343798 C243.649989,55.2674628 235.684823,46.3555211 225.830816,46.3555211 Z" id="Combined-Shape"></path>
            <path d="M383.069827,100.886995 L365.251832,100.886995 L365.251832,60.2592335 C365.251832,56.3437729 363.9035,47.0326309 352.159473,47.0326309 C344.333262,47.0326309 338.663204,52.4330226 338.663204,60.2592335 L338.663204,100.886995 L320.846386,100.886995 L320.846386,60.2592335 C320.846386,56.3437729 319.632299,47.0326309 307.890628,47.0326309 C299.92664,47.0326309 294.392004,52.4330226 294.392004,60.2592335 L294.392004,100.886995 L276.574008,100.886995 L276.574008,60.6654994 C276.574008,42.9817483 288.859723,29.624434 307.890628,29.624434 C317.337192,29.624434 325.030336,33.4021176 330.026817,39.4737311 C335.289431,33.4021176 343.119175,29.624434 352.159473,29.624434 C371.596644,29.624434 383.069827,42.4447708 383.069827,60.6654994 L383.069827,100.886995 L383.069827,100.886995 Z" id="Shape"></path>
            <rect id="Rectangle-path" x="399.256871" y="31.3754987" width="17.8144627" height="69.5114965"></rect>
            <path d="M501.01881,66.2001355 C501.01881,86.3097058 486.309631,102.509703 465.386352,102.509703 C444.330005,102.509703 429.617294,86.3097058 429.617294,66.2001355 C429.617294,46.2212768 444.602027,29.8929228 462.825111,29.8929228 C471.052877,29.8929228 477.806311,32.4565191 483.204347,37.9911552 L483.204347,0.465144947 L501.01881,0.465144947 L501.01881,66.2001355 L501.01881,66.2001355 Z M465.386352,46.3555211 C455.531167,46.3555211 447.569534,54.861197 447.569534,66.3343798 C447.569534,77.4001192 455.531167,85.9057951 465.386352,85.9057951 C475.236826,85.9057951 483.204347,77.1316305 483.204347,66.3343798 C483.204347,55.2674628 475.236826,46.3555211 465.386352,46.3555211 Z" id="Combined-Shape"></path>
        </g>
        <text id="powered-by" font-family="OpenSans, Open Sans" font-size="47" font-weight="normal" fill="#FFFFFF">
            <tspan x="299" y="72">powered by</tspan>
        </text>
    </g>
</svg>
